<?xml version="1.0" standalone="no"?>
<!DOCTYPE svg PUBLIC "-//W3C//DTD SVG 1.1//EN" "http://www.w3.org/Graphics/SVG/1.1/DTD/svg11.dtd" >
<svg>
<metadata>
Created by FontForge 20090914 at Thu Jul 17 13:46:40 2014
 By www-data
Copyright (c) 2002, 2005 Parachute&#194;&#168;, www.parachute.gr.  All rights reserved.
</metadata>
<defs>
<font id="PFDinTextCompPro-Regular" horiz-adv-x="1818" >
  <font-face 
    font-family="PF Din Text Comp Pro"
    font-weight="400"
    font-stretch="normal"
    units-per-em="1000"
    panose-1="2 0 5 6 2 0 0 2 0 4"
    ascent="750"
    descent="-250"
    x-height="493"
    cap-height="696"
    bbox="-139 -251.002 1760 913.002"
    underline-thickness="60"
    underline-position="-100"
    unicode-range="U+0020-U+FB05"
  />
<missing-glyph horiz-adv-x="440" 
d="M0 700h440v-700h-440v700zM360 650h-280l140 -255zM390 95v510l-140 -255zM360 50l-140 255l-140 -255h280zM50 95l140 255l-140 255v-510z" />
    <glyph glyph-name="fj" unicode="fj" horiz-adv-x="392" 
d="M141 432l-0.000976562 -432.001h-80v432h-50v61h50v102c0 22 3.66699 41.5 11 58.5s17.5 31.167 30.5 42.5s28.333 20 46 26s36.5 9 56.5 9c59.333 0 104.666 -17 135.999 -51l-47 -56c-10 11.333 -22.667 19.333 -38 24s-30.666 7 -45.999 7
c-25.333 0 -43.166 -6.16699 -53.499 -18.5s-15.5 -27.166 -15.5 -44.499v-99h205v-562c0 -17.333 -1.66699 -33.833 -5 -49.5s-9.33301 -29.5 -18 -41.5s-20.5 -21.5 -35.5 -28.5s-33.833 -10.5 -56.5 -10.5h-30v75h14c22.667 0 37 5 43 15s9 24.667 9 44v497h-126z" />
    <glyph glyph-name="ffj" unicode="ffj" horiz-adv-x="595" 
d="M205 732c19.333 0 36.668 -2.16699 52.001 -6.5s29.333 -10.166 42 -17.499c12.667 13.333 28.167 23.166 46.5 29.499s39.166 9.5 62.499 9.5c60 0 105.667 -17 137 -51l-48 -56c-10.667 9.33301 -23.5 16.833 -38.5 22.5s-30.167 8.5 -45.5 8.5
c-25.333 0 -43.166 -6.16699 -53.499 -18.5s-15.5 -27.166 -15.5 -44.499v-114h205v-563c0 -17.333 -1.83301 -33.833 -5.5 -49.5s-9.83398 -29.5 -18.501 -41.5s-20.5 -21.5 -35.5 -28.5s-33.833 -10.5 -56.5 -10.5h-30v75h14c22.667 0 37 6.16699 43 18.5
s9 32.166 9 59.499v478h-125v-432h-80v432h-123v-432h-80v432h-50v62h50v102c0 22 3.66699 41.5 11 58.5s17.5 31.167 30.5 42.5s28.333 20 46 26s36.5 9 56.5 9zM264.002 494l-0.000976562 117c0 4.66699 0.166992 9.66699 0.5 15s1.5 10.666 3.5 15.999
c-20 9.33301 -39.333 14 -58 14c-25.333 0 -43.166 -6.16699 -53.499 -18.5s-15.5 -27.166 -15.5 -44.499v-99h123z" />
    <glyph glyph-name="ff" unicode="ff" horiz-adv-x="447" 
d="M205 731c16.667 0 31.832 -1.66699 45.499 -5s26.167 -7.66602 37.5 -12.999c9.33301 11.333 21.333 19.666 36 24.999s31 8 49 8h46v-74h-32c-15.333 0 -26.666 -4.5 -33.999 -13.5s-11 -20.5 -11 -34.5v-131h77v-61h-77v-432h-80v432h-121v-432h-80v432h-50v61h50v102
c0 22 3.66699 41.5 11 58.5s17.5 31.167 30.5 42.5s28.333 20 46 26s36.5 9 56.5 9zM261.998 493v119.999v15c0 6 0.666992 11.667 2 17c-10 4.66699 -19.333 7.66699 -28 9s-17.334 2 -26.001 2c-25.333 0 -43.166 -6.16699 -53.499 -18.5s-15.5 -27.166 -15.5 -44.499
v-100h121z" />
    <glyph glyph-name="fi" unicode="fi" horiz-adv-x="392" 
d="M267 0l-0.000976562 431.999h-126v-432h-80v432h-50v61h50v102c0 22 3.66699 41.5 11 58.5s17.5 31.167 30.5 42.5s28.333 20 46 26s36.5 9 56.5 9c59.333 0 104.666 -17 135.999 -51l-47 -56c-10 11.333 -22.667 19.333 -38 24s-30.666 7 -45.999 7
c-25.333 0 -43.166 -6.16699 -53.499 -18.5s-15.5 -27.166 -15.5 -44.499v-99h205v-493h-79z" />
    <glyph glyph-name="fl" unicode="fl" horiz-adv-x="427" 
d="M266 655c-13.333 3.33301 -24.501 5.33203 -33.501 5.99902s-17.167 1 -24.5 1c-25.333 0 -42.833 -6.83301 -52.5 -20.5s-14.5 -32.167 -14.5 -55.5v-93h77v-61h-77v-432h-80v432h-50v61h50v101c0 44 12.833 79 38.5 105s60.5 39 104.5 39
c11.333 0 28.5 -0.666992 51.5 -2s53.167 -6.66602 90.5 -15.999v-590c0 -22.667 2.83301 -39.167 8.5 -49.5s18.5 -15.5 38.5 -15.5h12v-72h-16c-21.333 0 -39.666 1.83301 -54.999 5.5s-28 10 -38 19s-17.5 21.5 -22.5 37.5s-7.5 36.333 -7.5 61v539z" />
    <glyph glyph-name="ffi" unicode="ffi" horiz-adv-x="595" 
d="M205 732c19.333 0 36.667 -2.16895 52 -6.50195s29.333 -10.166 42 -17.499c12.667 13.333 28.167 23.166 46.5 29.499s39.166 9.5 62.499 9.5c33.333 0 60.666 -4.16699 81.999 -12.5s40 -21.166 56 -38.499l-49 -56c-10 11.333 -22.667 19.333 -38 24
s-30.666 7 -45.999 7c-25.333 0 -43.166 -6.16699 -53.499 -18.5s-15.5 -27.166 -15.5 -44.499v-114h205v-494h-80v432h-125v-432h-80v432h-123v-432h-80v432h-50v62h50v102c0 22 3.66699 41.5 11 58.5s17.5 31.167 30.5 42.5s28.333 20 46 26s36.5 9 56.5 9z
M264.001 493.998l-0.000976562 116.999v13.5c0 4.33301 0.666992 8.83301 2 13.5c-19.333 12 -38 18 -56 18c-25.333 0 -43.166 -6.16699 -53.499 -18.5s-15.5 -27.166 -15.5 -44.499v-99h123z" />
    <glyph glyph-name="ffl" unicode="ffl" horiz-adv-x="629" 
d="M205 731c14.667 0 31.167 -1.83398 49.5 -5.50098s34.166 -9.5 47.499 -17.5c12.667 12 27.667 21.333 45 28s37 10 59 10c11.333 0 28.5 -0.666992 51.5 -2s53.167 -6.66602 90.5 -15.999v-598c0 -22.667 2.83301 -39.167 8.5 -49.5s18.5 -15.5 38.5 -15.5h12v-72h-16
c-21.333 0 -39.666 1.83301 -54.999 5.5s-28 10 -38 19s-17.5 21.5 -22.5 37.5s-7.5 36.333 -7.5 61v547c-13.333 3.33301 -24.5 5.33301 -33.5 6s-17.167 1 -24.5 1c-25.333 0 -42.833 -6.83301 -52.5 -20.5s-14.5 -32.167 -14.5 -55.5v-101h77v-61h-77v-432h-80v432h-122
v-432h-80v432h-50v61h50v102c0 22 3.66699 41.5 11 58.5s17.5 31.167 30.5 42.5s28.333 20 46 26s36.5 9 56.5 9zM263 601.999c0 14.667 1.33105 27.332 3.99805 37.999c-11.333 6 -21.666 10 -30.999 12s-18 3 -26 3c-25.333 0 -43.166 -6.16699 -53.499 -18.5
s-15.5 -27.166 -15.5 -44.499v-99h122v109z" />
    <glyph glyph-name="ft" unicode="ft" horiz-adv-x="434" 
d="M346 493l63.998 -0.00195312v-61h-64v-298c0 -25.333 4.83301 -41.666 14.5 -48.999s22.167 -11 37.5 -11h11v-75h-30c-21.333 0 -39.166 3.33301 -53.499 10s-26 15.334 -35 26.001s-15.333 22.5 -19 35.5s-5.5 25.833 -5.5 38.5v323h-125v-432h-80v432h-50v61h50v121
c0 37.333 10 65.333 30 84s47 28 81 28h46v-74h-32c-15.333 0 -26.666 -4.5 -33.999 -13.5s-11 -20.5 -11 -34.5v-111h125v131h80v-131z" />
    <glyph glyph-name=".notdef" horiz-adv-x="440" 
d="M0 700h440v-700h-440v700zM360 650h-280l140 -255zM390 95v510l-140 -255zM360 50l-140 255l-140 -255h280zM50 95l140 255l-140 255v-510z" />
    <glyph glyph-name="space" unicode=" " horiz-adv-x="195" 
 />
    <glyph glyph-name="exclam" unicode="!" horiz-adv-x="228" 
d="M147 177h-66l-7 519h80zM74 -1v80h80v-80h-80z" />
    <glyph glyph-name="quotedbl" unicode="&#x22;" horiz-adv-x="250" 
d="M153 503v193h60v-193h-60zM38 503v193h60v-193h-60z" />
    <glyph glyph-name="numbersign" unicode="#" horiz-adv-x="380" 
d="M207 225h-87l-41 -225h-53l42 225h-61v52h71l27 150h-61v52h71l42 222h53l-42 -222h87l41 222h53l-42 -222h62v-52h-72l-27 -150h62v-52h-72l-42 -225h-53zM130 277h87l28 150h-87z" />
    <glyph glyph-name="dollar" unicode="$" horiz-adv-x="380" 
d="M350 190c0 -28 -2.49902 -53.666 -7.49902 -76.999s-13.167 -43.5 -24.5 -60.5s-26.166 -30.5 -44.499 -40.5s-40.5 -16 -66.5 -18v-88h-38v88c-50.667 3.33301 -87.667 19.666 -111 48.999s-35 65.666 -35 108.999l79 16c0 -23.333 4.66699 -44.5 14 -63.5
s27 -30.5 53 -34.5v257c-30.667 14 -55.334 27.833 -74.001 41.5s-33 28.334 -43 44.001s-16.5 32.167 -19.5 49.5s-4.5 36.333 -4.5 57c0 50 11.5 91.5 34.5 124.5s58.5 52.167 106.5 57.5v79h38v-79c27.333 -1.33301 50.166 -7 68.499 -17s33 -22.167 44 -36.5
s18.833 -30.166 23.5 -47.499s7 -34.333 7 -51l-78 -20c0 28 -5 50.333 -15 67s-26.667 26.667 -50 30v-230c32 -12.667 57.5 -25.834 76.5 -39.501s33.333 -28.5 43 -44.5s16 -34 19 -54s4.5 -42.667 4.5 -68zM272.001 189.001c0 18 -0.666016 33 -1.99902 45
s-4.33301 22.5 -9 31.5s-11.334 16.833 -20.001 23.5s-20 13.667 -34 21v-240c15.333 2 27.333 6.66699 36 14s15.167 16.333 19.5 27s7 22.667 8 36s1.5 27.333 1.5 42zM107.002 520.001c0 -12 0.5 -22.834 1.5 -32.501s3.5 -18.667 7.5 -27s10.167 -16.166 18.5 -23.499
s19.833 -15 34.5 -23v211c-13.333 -2.66699 -24 -7.5 -32 -14.5s-14.167 -15.5 -18.5 -25.5s-7.33301 -20.667 -9 -32s-2.5 -22.333 -2.5 -33z" />
    <glyph glyph-name="percent" unicode="%" horiz-adv-x="610" 
d="M578 80c0 -27.333 -9.66699 -48.168 -29 -62.501s-41.666 -21.5 -66.999 -21.5c-12.667 0 -24.834 1.83301 -36.501 5.5s-22 9 -31 16s-16.167 15.667 -21.5 26s-8 22.5 -8 36.5v255c0 14 2.66699 26.167 8 36.5s12.5 19 21.5 26s19.333 12.333 31 16
s23.834 5.5 36.501 5.5c25.333 0 47.666 -7.16699 66.999 -21.5s29 -35.166 29 -62.499v-255zM516 332.998c0 8.66699 -3.16699 16 -9.5 22s-14.5 9 -24.5 9c-10.667 0 -19.167 -3 -25.5 -9s-9.5 -13.333 -9.5 -22v-250c0 -9.33301 3.16699 -17 9.5 -23s14.833 -9 25.5 -9
c10 0 18.167 3 24.5 9s9.5 13.667 9.5 23v250zM225 358.998c0 -27.333 -9.66699 -48.168 -29 -62.501s-41.666 -21.5 -66.999 -21.5c-12.667 0 -24.834 1.83301 -36.501 5.5s-22 9 -31 16s-16.167 15.667 -21.5 26s-8 22.5 -8 36.5v255c0 14 2.66699 26.167 8 36.5
s12.5 19 21.5 26s19.333 12.333 31 16s23.834 5.5 36.501 5.5c25.333 0 47.666 -7.16699 66.999 -21.5s29 -35.166 29 -62.499v-255zM163 611.996c0 8.66699 -3.16699 16 -9.5 22s-14.5 9 -24.5 9c-10.667 0 -19.167 -3 -25.5 -9s-9.5 -13.333 -9.5 -22v-250
c0 -9.33301 3.16699 -17 9.5 -23s14.833 -9 25.5 -9c10 0 18.167 3 24.5 9s9.5 13.667 9.5 23v250zM177 -17.0039h-51l314 731h51z" />
    <glyph glyph-name="ampersand" unicode="&#x26;" horiz-adv-x="461" 
d="M211 701c34.667 0 63.334 -5.83203 86.001 -17.499s40 -31.5 52 -59.5l-71 -35c-10.667 27.333 -32.334 41 -65.001 41c-10.667 0 -19.667 -2.33301 -27 -7s-13.333 -10.834 -18 -18.501s-8 -16.167 -10 -25.5s-3 -18.333 -3 -27c0 -17.333 3.83301 -36.666 11.5 -57.999
s18.5 -45.333 32.5 -72l129 -223c5.33301 15.333 9.33301 31.5 12 48.5s4.66699 34.5 6 52.5h72c-1.33301 -26.667 -5.33301 -56 -12 -88s-16.667 -61.667 -30 -89l72 -123h-91l-33 56c-22 -26 -45.167 -42.833 -69.5 -50.5s-49.166 -11.5 -74.499 -11.5
c-19.333 0 -37.5 4.16699 -54.5 12.5s-32 20.166 -45 35.499s-23.167 33.833 -30.5 55.5s-11 45.834 -11 72.501c0 41.333 8.83301 77.666 26.5 108.999s42.5 62.333 74.5 93c-5.33301 8 -10 16 -14 24s-7.66699 15 -11 21c-9.33301 17.333 -17.833 38.5 -25.5 63.5
s-11.5 49.167 -11.5 72.5c0 20.667 3.16699 40 9.5 58s15.166 33.667 26.499 47s25.333 23.833 42 31.5s35 11.5 55 11.5zM177 308.001c-19.333 -22 -34.4971 -43.667 -45.4971 -65s-16.5 -44.333 -16.5 -69c0 -14.667 1.83301 -28.5 5.5 -41.5s9.16699 -24.5 16.5 -34.5
s16.166 -17.833 26.499 -23.5s22.166 -8.5 35.499 -8.5c17.333 0 34.166 4.5 50.499 13.5s29.5 20.833 39.5 35.5z" />
    <glyph glyph-name="quotesingle" unicode="'" horiz-adv-x="172" 
d="M57 503v193h61v-193h-61z" />
    <glyph glyph-name="parenleft" unicode="(" horiz-adv-x="210" 
d="M169 -110c-18 26.667 -35.168 55.335 -51.501 86.002s-30.5 63.334 -42.5 98.001s-21.667 71.167 -29 109.5s-11 78.5 -11 120.5c0 42.667 3.5 83.167 10.5 121.5s16.5 74.666 28.5 108.999s26 66.666 42 96.999s33 58.833 51 85.5l38 -18
c-31.333 -55.333 -55.666 -117.5 -72.999 -186.5s-26 -137.167 -26 -204.5c0 -72.667 8.83301 -143.334 26.5 -212.001s41.5 -130 71.5 -184l-35 -22v0z" />
    <glyph glyph-name="parenright" unicode=")" horiz-adv-x="210" 
d="M36 -88c30 54 53.832 115.332 71.499 183.999s26.5 139.334 26.5 212.001c0 67.333 -8.66699 135.5 -26 204.5s-41.666 131.167 -72.999 186.5l38 18c18 -26.667 35 -55.167 51 -85.5s30 -62.666 42 -96.999s21.5 -70.666 28.5 -108.999s10.5 -78.833 10.5 -121.5
c0 -42 -3.66699 -82.167 -11 -120.5s-17 -74.833 -29 -109.5s-26.167 -67.334 -42.5 -98.001s-33.5 -59.334 -51.5 -86.001z" />
    <glyph glyph-name="asterisk" unicode="*" horiz-adv-x="351" 
d="M277 442l-50 -34l-60 100l-61 -101l-49 35l75 92l-109 29l20 57l103 -43l-9 118h60l-9 -118l102 43l21 -57l-110 -29z" />
    <glyph glyph-name="plus" unicode="+" horiz-adv-x="380" 
d="M220 264v-164h-59v164h-152v60h152v164h59v-164h152v-60h-152z" />
    <glyph glyph-name="comma" unicode="," horiz-adv-x="193" 
d="M93 -120h-44l24 112h-21v97h87v-95z" />
    <glyph glyph-name="hyphen" unicode="-" horiz-adv-x="346" 
d="M49 253v67h259v-67h-259z" />
    <glyph glyph-name="period" unicode="." horiz-adv-x="193" 
d="M52 0v91h87v-91h-87z" />
    <glyph glyph-name="slash" unicode="/" horiz-adv-x="256" 
d="M66 -42h-60l186 767h60z" />
    <glyph glyph-name="zero" unicode="0" horiz-adv-x="380" 
d="M331 127c0 -22 -3.83203 -41.333 -11.499 -58s-18 -30.667 -31 -42s-28 -19.833 -45 -25.5s-34.833 -8.5 -53.5 -8.5s-36.5 2.83301 -53.5 8.5s-32 14.167 -45 25.5s-23.333 25.333 -31 42s-11.5 36 -11.5 58v439c0 22 3.83301 41.5 11.5 58.5s18 31.167 31 42.5
s28 20 45 26s34.833 9 53.5 9c41.333 0 75.166 -11.667 101.499 -35s39.5 -57 39.5 -101v-439zM252.001 569c0 17.333 -5.83301 31.333 -17.5 42s-26.5 16 -44.5 16s-32.833 -5.33301 -44.5 -16s-17.5 -24.667 -17.5 -42v-445c0 -17.333 5.83301 -31.333 17.5 -42
s26.5 -16 44.5 -16s32.833 5.33301 44.5 16s17.5 24.667 17.5 42v445z" />
    <glyph glyph-name="one" unicode="1" horiz-adv-x="380" 
d="M201 0v613l-101 -81v84l99 80h81v-696h-79z" />
    <glyph glyph-name="two" unicode="2" horiz-adv-x="380" 
d="M191 627c-22.667 -0.666992 -38.8311 -10.1699 -48.498 -28.5029s-14.5 -46.166 -14.5 -83.499v-6l-79 14v4c0 26.667 2.66699 50.667 8 72s13.833 39.666 25.5 54.999s26.667 27.166 45 35.499s40.166 12.5 65.499 12.5c26 0 48 -3.66699 66 -11
s32.667 -17.666 44 -30.999s19.5 -29.5 24.5 -48.5s7.5 -40.167 7.5 -63.5c0 -55.333 -12.667 -108.666 -38 -159.999l-156 -315h189v-73h-279v69l181 361c9.33301 18 15.166 37 17.499 57s3.5 40 3.5 60c0 9.33301 -0.666992 18.833 -2 28.5s-4 18.334 -8 26.001
s-10.167 13.834 -18.5 18.501s-19.5 7 -33.5 7z" />
    <glyph glyph-name="three" unicode="3" horiz-adv-x="380" 
d="M329 143c0 -26.667 -4.00195 -49.5029 -12.002 -68.5029s-18.5 -34.5 -31.5 -46.5s-28 -20.833 -45 -26.5s-35.167 -8.5 -54.5 -8.5c-27.333 0 -50.166 4 -68.499 12s-33 19 -44 33s-18.5 30.833 -22.5 50.5s-5.33301 41.5 -4 65.5l79 11
c-3.33301 -30 -0.166016 -54 9.50098 -72s27.167 -27 52.5 -27c17.333 0 32.166 5.5 44.499 16.5s18.5 30.167 18.5 57.5v105c0 28 -5.5 48.167 -16.5 60.5s-29.167 18.5 -54.5 18.5h-31v69h33c24.667 0 42.334 5.66699 53.001 17s16 30.333 16 57v89
c0 8.66699 -0.833008 17.334 -2.5 26.001s-4.5 16.334 -8.5 23.001s-9.66699 12 -17 16s-17 6 -29 6c-23.333 0 -40.5 -8.83301 -51.5 -26.5s-16.5 -41.167 -16.5 -70.5l-79 11c0.666992 22.667 4.33398 43.834 11.001 63.501s16.167 36.667 28.5 51
s27.833 25.666 46.5 33.999s40.667 12.5 66 12.5c24.667 0 45.334 -3.83301 62.001 -11.5s30.167 -18 40.5 -31s17.666 -28.167 21.999 -45.5s6.5 -35.333 6.5 -54v-71c0 -13.333 -0.5 -26.166 -1.5 -38.499s-3.33301 -23.833 -7 -34.5s-9.33398 -20.5 -17.001 -29.5
s-18.5 -17.167 -32.5 -24.5v-3c13.333 -6 23.833 -12.833 31.5 -20.5s13.5 -16.667 17.5 -27s6.5 -22 7.5 -35s1.5 -27.5 1.5 -43.5z" />
    <glyph glyph-name="four" unicode="4" horiz-adv-x="380" 
d="M307 110v-110h-79v110h-205v71l146 515h78l-147 -515h128v193h79v-193h49v-71h-49z" />
    <glyph glyph-name="five" unicode="5" horiz-adv-x="380" 
d="M187 -7c-27.333 0 -49.999 4.16699 -67.999 12.5s-32.5 19.666 -43.5 33.999s-19 31.333 -24 51s-7.83301 40.834 -8.5 63.501l79 11c0 -14.667 0.666992 -28 2 -40s4.33301 -22.333 9 -31s11.334 -15.5 20.001 -20.5s20.667 -7.5 36 -7.5
c17.333 0 31.666 5.5 42.999 16.5s17.666 30.167 18.999 57.5v180c0 39.333 -19.333 59 -58 59c-15.333 0 -28.333 -3.5 -39 -10.5s-18.667 -16.5 -24 -28.5h-69v356h270v-71h-200v-210h5c10 10 22.333 17.5 37 22.5s29.667 7.5 45 7.5c39.333 0 67.5 -11 84.5 -33
s25.5 -49 25.5 -81v-188c0 -26.667 -3.66699 -49.5 -11 -68.5s-17.5 -34.5 -30.5 -46.5s-28 -20.833 -45 -26.5s-35.167 -8.5 -54.5 -8.5z" />
    <glyph glyph-name="six" unicode="6" horiz-adv-x="380" 
d="M166 388c14 10.667 31.332 16 51.999 16c22 0 40.167 -3.5 54.5 -10.5s25.833 -16.5 34.5 -28.5s14.834 -26 18.501 -42s5.5 -32.667 5.5 -50v-146c0 -22 -3.83301 -41.333 -11.5 -58s-18 -30.667 -31 -42s-28 -19.833 -45 -25.5s-34.833 -8.5 -53.5 -8.5
s-36.5 2.83301 -53.5 8.5s-32 14.167 -45 25.5s-23.333 25.333 -31 42s-11.5 36 -11.5 58v116c0 30 2 55 6 75s9 37.667 15 53l129 325h80l-116 -305zM251.999 277c0 17.333 -5.66699 30.834 -17 40.501s-26 14.5 -44 14.5c-12 0 -22 -2.16699 -30 -6.5s-14.5 -10 -19.5 -17
s-8.5 -14.833 -10.5 -23.5s-3 -17.334 -3 -26.001v-138c0 -17.333 5.83301 -30.833 17.5 -40.5s26.5 -14.5 44.5 -14.5s32.833 4.83301 44.5 14.5s17.5 23.167 17.5 40.5v156z" />
    <glyph glyph-name="seven" unicode="7" horiz-adv-x="380" 
d="M154 0h-76l175 625h-138v-83h-69v154h287v-65z" />
    <glyph glyph-name="eight" unicode="8" horiz-adv-x="380" 
d="M331 474c0 -25.333 -5 -47 -15 -65s-23 -32.667 -39 -44c16 -11.333 29 -26.166 39 -44.499s15 -40.166 15 -65.499v-128c0 -22 -3.83301 -41.333 -11.5 -58s-18 -30.667 -31 -42s-28 -19.833 -45 -25.5s-34.833 -8.5 -53.5 -8.5s-36.5 2.83301 -53.5 8.5
s-32 14.167 -45 25.5s-23.333 25.333 -31 42s-11.5 36 -11.5 58v128c0 25.333 4.83301 47.166 14.5 65.499s22.834 33.166 39.501 44.499c-16.667 11.333 -29.834 26 -39.501 44s-14.5 39.667 -14.5 65v92c0 22 3.83301 41.5 11.5 58.5s18 31.167 31 42.5s28 20 45 26
s34.833 9 53.5 9s36.5 -3 53.5 -9s32 -14.667 45 -26s23.333 -25.5 31 -42.5s11.5 -36.5 11.5 -58.5v-92zM252 273c0 17.333 -5.83301 31.666 -17.5 42.999s-26.5 17 -44.5 17s-32.833 -5.66699 -44.5 -17s-17.5 -25.666 -17.5 -42.999v-152
c0 -17.333 5.83301 -30.833 17.5 -40.5s26.5 -14.5 44.5 -14.5s32.833 4.83301 44.5 14.5s17.5 23.167 17.5 40.5v152zM252 572c0 17.333 -5.83301 31.166 -17.5 41.499s-26.5 15.5 -44.5 15.5s-32.833 -5.16699 -44.5 -15.5s-17.5 -24.166 -17.5 -41.499v-114
c0 -17.333 5.83301 -31.333 17.5 -42s26.5 -16 44.5 -16s32.833 5.33301 44.5 16s17.5 24.667 17.5 42v114z" />
    <glyph glyph-name="nine" unicode="9" horiz-adv-x="380" 
d="M128 419c0 -17.333 5.66699 -31.167 17 -41.5s26 -15.5 44 -15.5c12 0 22 2.33301 30 7s14.5 10.5 19.5 17.5s8.5 15 10.5 24s3 17.833 3 26.5v138c0 17.333 -5.83301 30.833 -17.5 40.5s-26.5 14.5 -44.5 14.5s-32.833 -4.83301 -44.5 -14.5s-17.5 -23.167 -17.5 -40.5
v-156zM214 307.999c-14 -10.667 -31.333 -16 -52 -16c-22 0 -40.167 3.5 -54.5 10.5s-25.833 16.5 -34.5 28.5s-14.834 26 -18.501 42s-5.5 32.667 -5.5 50v146c0 22 3.83301 41.333 11.5 58s18 30.667 31 42s28 19.833 45 25.5s34.833 8.5 53.5 8.5
c44.667 0 79.334 -11.333 104.001 -34s37 -56 37 -100v-116c0 -30 -2 -55 -6 -75s-9 -37.667 -15 -53l-129 -325h-80l116 305z" />
    <glyph glyph-name="colon" unicode=":" horiz-adv-x="193" 
d="M52 300v91h87v-91h-87zM52 0v91h87v-91h-87z" />
    <glyph glyph-name="semicolon" unicode=";" horiz-adv-x="193" 
d="M93 -120h-44l24 112h-21v97h87v-95zM52 300v91h87v-91h-87z" />
    <glyph glyph-name="less" unicode="&#x3c;" horiz-adv-x="380" 
d="M11 268v53l357 183v-66l-296 -144l296 -143v-66z" />
    <glyph glyph-name="equal" unicode="=" horiz-adv-x="380" 
d="M9 341v63h363v-63h-363zM9 188v63h363v-63h-363z" />
    <glyph glyph-name="greater" unicode="&#x3e;" horiz-adv-x="380" 
d="M12 85v66l296 143l-296 144v66l357 -183v-53z" />
    <glyph glyph-name="question" unicode="?" horiz-adv-x="371" 
d="M349 533c0 -17.333 -0.666992 -32.1641 -2 -44.4971s-3.66602 -23.833 -6.99902 -34.5s-7.83301 -21.5 -13.5 -32.5s-12.834 -23.833 -21.501 -38.5l-46 -79c-5.33301 -8.66699 -9.83301 -17.667 -13.5 -27s-5.5 -19.666 -5.5 -30.999v-69h-78v83c0 13.333 2 26.333 6 39
s9.66699 24.667 17 36l43 69c10.667 17.333 19 32.333 25 45s10 24.667 12 36s3 25.666 3 42.999c0 13.333 -1 26 -3 38s-5.83301 22.5 -11.5 31.5s-13.5 16.167 -23.5 21.5s-23 8 -39 8c-21.333 0 -39.333 -7.33301 -54 -22s-22 -39 -22 -73l-80 9
c0 27.333 4.16699 51.166 12.5 71.499s19.5 37.166 33.5 50.499s30.5 23.166 49.5 29.499s39.167 9.5 60.5 9.5c56 0 96.333 -14.667 121 -44s37 -71 37 -125zM161 0.00195312v80h78v-80h-78z" />
    <glyph glyph-name="at" unicode="@" horiz-adv-x="752" 
d="M486 259c0 -19.333 4.33203 -34.002 12.999 -44.002s19 -15 31 -15c14 0 26.833 2.33301 38.5 7s21.667 13.834 30 27.501s14.833 32.334 19.5 56.001s7 54.5 7 92.5c0 40.667 -5.83301 77.167 -17.5 109.5s-27.834 59.666 -48.501 81.999s-45.5 39.333 -74.5 51
s-60.5 17.5 -94.5 17.5c-46 0 -85.833 -8 -119.5 -24s-61.167 -37.833 -82.5 -65.5s-37.166 -60.334 -47.499 -98.001s-15.5 -77.834 -15.5 -120.501c0 -47.333 5.5 -90.166 16.5 -128.499s27.667 -71.333 50 -99s50.166 -49 83.499 -64s72.333 -22.5 117 -22.5
c32.667 0 61.667 2.83301 87 8.5s52.666 17.167 81.999 34.5l25 -57c-28.667 -13.333 -58.834 -24.333 -90.501 -33s-64.5 -13 -98.5 -13c-52.667 0 -99.834 8 -141.501 24s-77 39.667 -106 71s-51.167 70.333 -66.5 117s-23 100.667 -23 162
c0 54.667 7.16699 104.667 21.5 150s35.333 84.166 63 116.499s61.834 57.333 102.501 75s87.334 26.5 140.001 26.5c50 0 94 -8 132 -24s69.833 -38.167 95.5 -66.5s45 -62.166 58 -101.499s19.5 -82 19.5 -128s-4.33301 -84.5 -13 -115.5s-20.5 -56 -35.5 -75
s-32.5 -32.667 -52.5 -41s-41.667 -12.5 -65 -12.5c-5.33301 0 -12.333 1.16699 -21 3.5s-17.334 6 -26.001 11s-16.5 11.5 -23.5 19.5s-11.833 17.333 -14.5 28l-1 -1c-8 -14.667 -21.667 -27 -41 -37s-40 -15 -62 -15c-17.333 0 -31.666 3.33301 -42.999 10
s-20.5 15.334 -27.5 26.001s-12 22.834 -15 36.501s-4.5 27.5 -4.5 41.5c0 14.667 1.83301 29.5 5.5 44.5s9.83398 28.5 18.501 40.5s20 21.833 34 29.5s31.333 11.5 52 11.5h64v52c0 15.333 -4.16699 27.5 -12.5 36.5s-21.5 13.5 -39.5 13.5
c-11.333 0 -22.333 -3.16699 -33 -9.5s-17 -16.5 -19 -30.5l-62 16c6.66699 26 20.834 46.333 42.501 61s46.5 22 74.5 22c32.667 0 59.834 -8 81.501 -24s32.5 -44 32.5 -84v-182zM420.999 332.998l-47 -0.000976562c-16.667 0 -31.5 -4.83301 -44.5 -14.5
s-19.5 -27.5 -19.5 -53.5c0 -16 4.5 -29.333 13.5 -40s23.167 -16 42.5 -16c18 0 31.667 5.83301 41 17.5s14 26.834 14 45.501v61z" />
    <glyph glyph-name="A" unicode="A" horiz-adv-x="395" 
d="M307 0l-32 155h-155l-31 -155h-76l148 696h74l150 -696h-78zM195 554l-29 -162l-33 -163h128l-34 165l-28 160h-4z" />
    <glyph glyph-name="B" unicode="B" horiz-adv-x="414" 
d="M291 365c30.667 -9.33301 51.501 -28.166 62.501 -56.499s16.5 -62.833 16.5 -103.5c0 -72 -14.833 -124.167 -44.5 -156.5s-75.834 -48.5 -138.501 -48.5h-134v696h147c60 0 102.333 -16 127 -48s37 -77.333 37 -136c0 -36.667 -5.33301 -65.834 -16 -87.501
s-29.667 -40.167 -57 -55.5v-4zM294.001 213c0 38 -7.16699 67.333 -21.5 88s-41.833 31 -82.5 31h-58v-261h62c22 0 39.5 3.83301 52.5 11.5s23 18 30 31s11.667 28 14 45s3.5 35.167 3.5 54.5zM288.001 513c0 36 -7.83203 63.5 -23.499 82.5s-41.834 28.5 -78.501 28.5
h-54v-223h53c36.667 0 63 9.66699 79 29s24 47 24 83z" />
    <glyph glyph-name="C" unicode="C" horiz-adv-x="384" 
d="M204 702c54 0 93.167 -14.665 117.5 -43.998s36.5 -67.666 36.5 -114.999l-79 -14c0.666992 30.667 -4.83301 55 -16.5 73s-31.5 27 -59.5 27c-16 0 -29 -3.66699 -39 -11s-17.833 -16.5 -23.5 -27.5s-9.5 -23.167 -11.5 -36.5s-3 -26 -3 -38v-351
c0 -10 1 -20.833 3 -32.5s5.83301 -22.334 11.5 -32.001s13.334 -17.834 23.001 -24.501s22.5 -10 38.5 -10c26 0 45.167 8 57.5 24s18.833 41.333 19.5 76l81 -14c-1.33301 -50 -14.833 -89 -40.5 -117s-64.167 -42 -115.5 -42c-52.667 0 -92 14.667 -118 44
s-39 70.666 -39 123.999v344c0 24.667 2.16699 48.834 6.5 72.501s12.166 44.667 23.499 63s27.333 33.166 48 44.499s47 17 79 17z" />
    <glyph glyph-name="D" unicode="D" horiz-adv-x="423" 
d="M215 696c41.333 0 74.001 -7.16699 98.001 -21.5s40.667 -38.5 50 -72.5c7.33301 -28 11 -62.667 11 -104v-149v-145.5c0 -39.667 -4.33301 -73.167 -13 -100.5c-12.667 -39.333 -32.834 -66.333 -60.501 -81s-59.167 -22 -94.5 -22h-153v696h162zM294.001 522
c0 31.333 -6.66699 56 -20 74s-37 27 -71 27h-71v-551h71c32.667 0 56 9 70 27s21 43.667 21 77v346z" />
    <glyph glyph-name="E" unicode="E" horiz-adv-x="366" 
d="M53 0v696h298v-73h-219v-233h190v-73h-190v-245h219v-72h-298z" />
    <glyph glyph-name="F" unicode="F" horiz-adv-x="366" 
d="M53 0v696h298v-73h-219v-233h190v-73h-190v-317h-79z" />
    <glyph glyph-name="G" unicode="G" horiz-adv-x="414" 
d="M207 -7c-52.667 0 -92.001 14.6709 -118.001 44.0039s-39 70.666 -39 123.999v344c0 24.667 2.16699 48.834 6.5 72.501s12.166 44.667 23.499 63s27.333 33.166 48 44.499s47 17 79 17c54 0 92.833 -13.833 116.5 -41.5s36.167 -65.167 37.5 -112.5l-79 -19
c0.666992 30.667 -4.83301 55 -16.5 73s-31.5 27 -59.5 27c-16 0 -29 -3.66699 -39 -11s-17.833 -16.5 -23.5 -27.5s-9.5 -23.167 -11.5 -36.5s-3 -26 -3 -38v-351c0 -10 1 -20.833 3 -32.5s5.83301 -22.334 11.5 -32.001s13.334 -17.834 23.001 -24.501s22.5 -10 38.5 -10
h1c25.333 0 45.333 6.66699 60 20s22 31.666 22 54.999v166h-81v69h160v-225c0 -26 -4.16699 -48.833 -12.5 -68.5s-19.666 -36.167 -33.999 -49.5s-31.333 -23.333 -51 -30s-40.5 -10 -62.5 -10z" />
    <glyph glyph-name="H" unicode="H" horiz-adv-x="427" 
d="M294 0v321h-162v-321h-79v696h79v-306h162v306h79v-696h-79z" />
    <glyph glyph-name="I" unicode="I" horiz-adv-x="192" 
d="M56 0v696h80v-696h-80z" />
    <glyph glyph-name="J" unicode="J" horiz-adv-x="363" 
d="M297 696l0.000976562 -518.001c0 -60.667 -13.167 -106.667 -39.5 -138s-66.5 -47 -120.5 -47c-28.667 0 -54.334 5.33301 -77.001 16s-41 27.334 -55 50.001l58 47c7.33301 -10.667 17.833 -20.167 31.5 -28.5s27.5 -12.5 41.5 -12.5c29.333 0 50.333 9.5 63 28.5
s19 43.5 19 73.5v529h79z" />
    <glyph glyph-name="K" unicode="K" horiz-adv-x="414" 
d="M326 0l-126 334l-68 -132v-202h-79v696h79v-347h2l168 347h79l-135 -275l160 -421h-80z" />
    <glyph glyph-name="L" unicode="L" horiz-adv-x="340" 
d="M53 0v696h79v-624h203v-72h-282z" />
    <glyph glyph-name="M" unicode="M" horiz-adv-x="564" 
d="M427 482l-55 -144l-72 -169h-37l-72 169l-55 144h-4v-482h-79v696h80l83 -217l64 -170h3l66 175l81 212h81v-696h-79v482h-5z" />
    <glyph glyph-name="N" unicode="N" horiz-adv-x="450" 
d="M129 476v-476h-79v696h75l144 -353l48 -127l4 1v479h79v-696h-74l-144 350l-50 126h-3z" />
    <glyph glyph-name="O" unicode="O" horiz-adv-x="414" 
d="M367 187c0 -62 -12.1689 -109.832 -36.502 -143.499s-65.833 -50.5 -124.5 -50.5c-57.333 0 -98.166 15.667 -122.499 47s-36.5 72.666 -36.5 123.999v343c0 24.667 2.16699 48.667 6.5 72s12.333 44.166 24 62.499s27.834 33 48.501 44s47.667 16.5 81 16.5
c34.667 0 62.5 -4.83301 83.5 -14.5s37.167 -23.167 48.5 -40.5s18.833 -37.666 22.5 -60.999s5.5 -49 5.5 -77v-322zM287.998 522.001c0 12 -0.833984 24.334 -2.50098 37.001s-5.16699 24.167 -10.5 34.5s-13.5 19 -24.5 26s-25.5 10.5 -43.5 10.5
c-20 0 -35.333 -4.83301 -46 -14.5s-18.667 -21.167 -24 -34.5s-8.5 -27.5 -9.5 -42.5s-1.5 -27.5 -1.5 -37.5v-338c0 -10 1 -20.667 3 -32s6 -22 12 -32s14.167 -18.167 24.5 -24.5s23.833 -9.5 40.5 -9.5s30.334 3.33301 41.001 10s19 15.167 25 25.5
s10.167 22.166 12.5 35.499s3.5 27 3.5 41v345z" />
    <glyph glyph-name="P" unicode="P" horiz-adv-x="395" 
d="M195 696c35.333 0 64.333 -4.66602 87 -13.999s40.667 -22.833 54 -40.5s22.5 -39.334 27.5 -65.001s7.5 -54.834 7.5 -87.501c0 -29.333 -2.33301 -56.666 -7 -81.999s-13.667 -47.5 -27 -66.5s-31.833 -33.833 -55.5 -44.5s-54.5 -16 -92.5 -16h-57v-280h-79v696h142z
M132 354.001l53.999 -0.000976562c24 0 43.167 3.66699 57.5 11s25.333 17 33 29s12.5 26 14.5 42s3 33 3 51c0 18.667 -1.16699 36.334 -3.5 53.001s-7.16602 31.167 -14.499 43.5s-18 22 -32 29s-32.667 10.5 -56 10.5h-56v-269z" />
    <glyph glyph-name="Q" unicode="Q" horiz-adv-x="414" 
d="M367 187c0 -46 -6.33398 -83.666 -19.001 -112.999l56 -45l-39 -48l-54 43c-26 -20.667 -60.667 -31 -104 -31c-57.333 0 -98.333 15.667 -123 47s-37 72.666 -37 123.999v343c0 24.667 2.16699 48.667 6.5 72s12.333 44.166 24 62.499s27.834 33 48.501 44
s47.667 16.5 81 16.5c34.667 0 62.5 -4.83301 83.5 -14.5s37.167 -23.167 48.5 -40.5s18.833 -37.666 22.5 -60.999s5.5 -49 5.5 -77v-322zM287.999 522.001c0 12 -0.833008 24.332 -2.5 36.999s-5.16699 24.167 -10.5 34.5s-13.5 19 -24.5 26s-25.5 10.5 -43.5 10.5
c-20 0 -35.333 -4.83301 -46 -14.5s-18.667 -21.167 -24 -34.5s-8.5 -27.5 -9.5 -42.5s-1.5 -27.5 -1.5 -37.5v-338c0 -10 1 -20.667 3 -32s6 -22 12 -32s14.167 -18.167 24.5 -24.5s23.833 -9.5 40.5 -9.5c17.333 0 31.333 3.33301 42 10l-59 49l39 47l54 -44
c4 14.667 6 31.334 6 50.001v345z" />
    <glyph glyph-name="R" unicode="R" horiz-adv-x="414" 
d="M306 0l-99.001 305.002h-75v-305h-79v696h153c56.667 0 98.334 -16.333 125.001 -49s40 -82.334 40 -149.001c0 -40 -6 -75.333 -18 -106s-36 -54.334 -72 -71.001l106 -321h-81zM290.999 498.002c0 18.667 -1.33105 35.665 -3.99805 50.998s-7.83398 28.5 -15.501 39.5
s-17.834 19.5 -30.501 25.5s-29 9 -49 9h-60v-245h67c18 0 33 2.83301 45 8.5s21.5 13.834 28.5 24.501s11.833 23.334 14.5 38.001s4 31 4 49z" />
    <glyph glyph-name="S" unicode="S" horiz-adv-x="394" 
d="M360 190c0 -30 -2.83203 -57.001 -8.49902 -81.001s-15 -44.667 -28 -62s-29.833 -30.666 -50.5 -39.999s-46.334 -14 -77.001 -14c-28 0 -52.333 4 -73 12s-37.667 19.167 -51 33.5s-23.166 31.166 -29.499 50.499s-9.5 40.333 -9.5 63l79 16
c0 -13.333 1.33301 -25.833 4 -37.5s7.16699 -22.167 13.5 -31.5s15 -16.666 26 -21.999s24.5 -8 40.5 -8c20 0 35.833 3.16699 47.5 9.5s20.334 15 26.001 26s9.16699 23.833 10.5 38.5s2 30 2 46c0 20.667 -1 37.5 -3 50.5s-6.33301 24.333 -13 34
s-16.167 18.167 -28.5 25.5s-28.833 15.333 -49.5 24c-32.667 14 -58.834 28.167 -78.501 42.5s-34.834 29.333 -45.501 45s-17.667 32.334 -21 50.001s-5 37.167 -5 58.5c0 26.667 3.33301 51.167 10 73.5s16.834 41.666 30.501 57.999s30.834 29 51.501 38
s44.667 13.5 72 13.5c30 0 55.167 -4.66699 75.5 -14s36.666 -21.5 48.999 -36.5s21 -31.5 26 -49.5s7.5 -35.667 7.5 -53l-78 -20c0 31.333 -6.33301 55.5 -19 72.5s-34.334 25.5 -65.001 25.5c-17.333 0 -31.166 -3.33301 -41.499 -10s-18.5 -15.167 -24.5 -25.5
s-10 -21.833 -12 -34.5s-3 -25 -3 -37c0 -14.667 0.833008 -27.5 2.5 -38.5s6.16699 -21.333 13.5 -31s18.166 -19.167 32.499 -28.5s34.5 -19 60.5 -29c30 -12 53.833 -24.5 71.5 -37.5s31.167 -27.5 40.5 -43.5s15.333 -34 18 -54s4 -42.667 4 -68z" />
    <glyph glyph-name="T" unicode="T" horiz-adv-x="320" 
d="M200 624v-624h-80v624h-118v72h316v-72h-118z" />
    <glyph glyph-name="U" unicode="U" horiz-adv-x="420" 
d="M370 695l-0.000976562 -507.998c0 -62 -12 -109.833 -36 -143.5s-65.333 -50.5 -124 -50.5c-57.333 0 -98.333 15.667 -123 47s-37 72.666 -37 123.999v531h79v-532c0 -10 1 -20.667 3 -32s6 -22 12 -32s14.167 -18.167 24.5 -24.5s23.833 -9.5 40.5 -9.5
s30.334 3.33301 41.001 10s19 15.167 25 25.5s10.167 22.166 12.5 35.499s3.5 27 3.5 41v518h79z" />
    <glyph glyph-name="V" unicode="V" horiz-adv-x="395" 
d="M239 -1h-86l-130 697h81l52 -294l39 -242h3l40 244l53 292h81z" />
    <glyph glyph-name="W" unicode="W" horiz-adv-x="581" 
d="M456 -1h-74l-61 329l-30 180h-3l-31 -184l-60 -325h-73l-101 697h82l37 -297l22 -200h3l32 198l55 299h73l53 -295l34 -202h3l22 204l35 293h83z" />
    <glyph glyph-name="X" unicode="X" horiz-adv-x="377" 
d="M285 -1l-97 276l-96 -276h-83l139 366l-128 331h83l85 -245l86 245h83l-131 -331l142 -366h-83z" />
    <glyph glyph-name="Y" unicode="Y" horiz-adv-x="376" 
d="M190 408l90 288h83l-136 -402v-295h-78v295l-136 402h83l51 -163l39 -125h4z" />
    <glyph glyph-name="Z" unicode="Z" horiz-adv-x="321" 
d="M302 624l-201 -552h200v-72h-281v72l203 552h-193v72h272v-72z" />
    <glyph glyph-name="bracketleft" unicode="[" horiz-adv-x="210" 
d="M63 -101v798h134v-49h-66v-700h66v-49h-134z" />
    <glyph glyph-name="backslash" unicode="\" horiz-adv-x="210" 
d="M136 -7l-125 709h60l125 -709h-60z" />
    <glyph glyph-name="bracketright" unicode="]" horiz-adv-x="210" 
d="M14 -102v50h66v700h-66v49h133v-799h-133z" />
    <glyph glyph-name="asciicircum" unicode="^" horiz-adv-x="380" 
d="M165 693h53l153 -357h-64l-116 284l-115 -284h-64z" />
    <glyph glyph-name="underscore" unicode="_" horiz-adv-x="500" 
d="M0 -131v61h500v-61h-500z" />
    <glyph glyph-name="grave" unicode="`" horiz-adv-x="357" 
d="M166 556l-96 160l71 25l68 -168z" />
    <glyph glyph-name="a" unicode="a" horiz-adv-x="361" 
d="M239 43c-13.333 -18 -28.5 -30.668 -45.5 -38.001s-36.167 -11 -57.5 -11c-20.667 0 -38 4.16699 -52 12.5s-25.167 19.333 -33.5 33s-14.333 29 -18 46s-5.5 34.5 -5.5 52.5c0 18.667 2 37.334 6 56.001s11 35.667 21 51s23.667 27.833 41 37.5s39.666 14.5 66.999 14.5
h78v66c0 19.333 -4.5 34.666 -13.5 45.999s-26.167 17 -51.5 17c-13.333 0 -26.333 -4 -39 -12s-20.667 -21 -24 -39l-75 21c7.33301 32.667 23.333 58.334 48 77.001s56 28 94 28c44.667 0 79.334 -10.167 104.001 -30.5s37 -55.833 37 -106.5v-364h-80v43h-1zM240 227.999
l-57.999 -0.000976562c-20.667 0 -38.834 -6.16699 -54.501 -18.5s-23.5 -34.5 -23.5 -66.5c0 -23.333 5 -41.166 15 -53.499s25.667 -18.5 47 -18.5c24.667 0 43.167 7 55.5 21s18.5 33.333 18.5 58v78z" />
    <glyph glyph-name="b" unicode="b" horiz-adv-x="368" 
d="M212 -6c-26 0 -45 3.83105 -57 11.498s-23.333 18.834 -34 33.501l-2 -1v-38h-79v726h79v-279h2c10 18 24.667 31.167 44 39.5s36.666 12.5 51.999 12.5c27.333 0 48.833 -5.16699 64.5 -15.5s27.5 -24.5 35.5 -42.5s13.167 -39.167 15.5 -63.5s3.5 -50.5 3.5 -78.5
c0 -28.667 -0.166992 -58.5 -0.5 -89.5s-2.16602 -62.5 -5.49902 -94.5c-3.33301 -27.333 -9.5 -49 -18.5 -65s-19.5 -28.167 -31.5 -36.5s-24.167 -13.666 -36.5 -15.999s-22.833 -3.5 -31.5 -3.5zM185 70.998c16.667 0 29.667 3.16602 39 9.49902s16.5 16.5 21.5 30.5
s8.16699 31.833 9.5 53.5s2 47.834 2 78.501c0 32 -0.5 59.167 -1.5 81.5s-3.66699 40.833 -8 55.5s-11.333 25.334 -21 32.001s-23.5 10 -41.5 10c-18.667 0 -34.5 -7 -47.5 -21s-19.5 -30.667 -19.5 -50v-202c0 -22.667 5.66699 -41.334 17 -56.001s28 -22 50 -22z" />
    <glyph glyph-name="c" unicode="c" horiz-adv-x="339" 
d="M173 -7c-20.667 0 -38.501 2.66406 -53.501 7.99707s-27.833 12.333 -38.5 21s-19.167 18.834 -25.5 30.501s-11.166 23.5 -14.499 35.5c-2 8 -3.66699 18 -5 30s-2.16602 25.167 -2.49902 39.5l-1 43.5c-0.333008 14.667 -0.5 28.334 -0.5 41.001
c0 16.667 0.333008 33.834 1 51.501s1.5 34.5 2.5 50.5s2.5 30.5 4.5 43.5s4.66699 23.5 8 31.5c9.33301 25.333 24.666 45.333 45.999 60s50.666 22 87.999 22c49.333 0 84.5 -13.167 105.5 -39.5s31.5 -61.833 31.5 -106.5l-82 -11c0 30 -5.16699 51.667 -15.5 65
s-24.5 20 -42.5 20c-13.333 0 -24.833 -3 -34.5 -9s-17.5 -16.667 -23.5 -32c-4 -10 -6.66699 -29.667 -8 -59s-2.33301 -64 -3 -104c0 -22 0.333008 -43.5 1 -64.5s2.66699 -37.167 6 -48.5c4.66699 -14.667 11.834 -26.167 21.501 -34.5s23.167 -12.5 40.5 -12.5
c20.667 0 35.5 7.33301 44.5 22s13.5 34.667 13.5 60l81 -14c-1.33301 -45.333 -13.5 -80 -36.5 -104s-59.167 -36 -108.5 -36z" />
    <glyph glyph-name="d" unicode="d" horiz-adv-x="369" 
d="M153 -6c-9.33301 0 -20.1631 1.16895 -32.4961 3.50195s-24.333 7.66602 -36 15.999s-22.334 20.5 -32.001 36.5s-15.834 37.667 -18.501 65c-2 20 -3.16699 41 -3.5 63s-0.5 42.667 -0.5 62c0 36 0.833008 69.833 2.5 101.5s6.66699 59.167 15 82.5
s21.166 41.833 38.499 55.5s41.666 20.5 72.999 20.5c19.333 0 36 -3.5 50 -10.5s25.667 -17.167 35 -30.5h2v267h79v-726h-79v38l-2 1c-10.667 -14.667 -22 -25.834 -34 -33.501s-31 -11.5 -57 -11.5zM180.003 71.002c22 0 38.667 7.33301 50 22s17 33.334 17 56.001v196
c0 23.333 -5.33301 42 -16 56s-27.667 21 -51 21c-14.667 0 -26.5 -2.83301 -35.5 -8.5s-16 -15.5 -21 -29.5s-8.5 -32.5 -10.5 -55.5s-3 -51.5 -3 -85.5c0 -30.667 0.5 -56.834 1.5 -78.501s3.83301 -39.5 8.5 -53.5s11.667 -24.167 21 -30.5s22.333 -9.5 39 -9.5z" />
    <glyph glyph-name="e" unicode="e" horiz-adv-x="357" 
d="M180 66c19.333 0 33.834 6.5 43.501 19.5s15.167 31.167 16.5 54.5l81 -15c-2.66699 -42.667 -15.834 -75.334 -39.501 -98.001s-59.5 -34 -107.5 -34c-21.333 0 -39.666 2.83301 -54.999 8.5s-28.333 13 -39 22s-19.167 19.167 -25.5 30.5s-10.833 22.666 -13.5 33.999
c-2 8 -3.66699 18 -5 30s-2.33301 25.167 -3 39.5s-1.16699 28.833 -1.5 43.5s-0.5 28.334 -0.5 41.001c0 16.667 0.166992 33.5 0.5 50.5s1.16602 33.167 2.49902 48.5s3 29.5 5 42.5s4.66699 23.833 8 32.5c9.33301 26 24.833 46.667 46.5 62s51.167 23 88.5 23
c49.333 0 85 -13.667 107 -41s33 -65 33 -113v-122h-212c0 -22 0.5 -43.667 1.5 -65s3.16699 -37.666 6.5 -48.999c9.33301 -30 30 -45 62 -45zM242.001 289l-0.000976562 41.998c0 12.667 -0.833008 24.834 -2.5 36.501s-4.83398 21.834 -9.50098 30.501
s-11.167 15.5 -19.5 20.5s-19.166 7.5 -32.499 7.5c-12 0 -23 -2.83301 -33 -8.5s-18 -16.167 -24 -31.5c-3.33301 -9.33301 -5.66602 -22 -6.99902 -38s-2.33301 -35.667 -3 -59h131z" />
    <glyph glyph-name="f" unicode="f" horiz-adv-x="246" 
d="M141 427l-0.000976562 -427h-80v427h-50v66h50v121c0 37.333 10 65.333 30 84s47 28 81 28h46v-74h-32c-15.333 0 -26.666 -4.5 -33.999 -13.5s-11 -20.5 -11 -34.5v-111h77v-66h-77z" />
    <glyph glyph-name="g" unicode="g" horiz-adv-x="370" 
d="M247 47c-10 -18 -24.668 -31.1689 -44.001 -39.502s-36.666 -12.5 -51.999 -12.5c-27.333 0 -49 5.83301 -65 17.5s-28 27.334 -36 47.001s-13.167 42.167 -15.5 67.5s-3.5 52 -3.5 80v83.5c0 27 1.66699 56.5 5 88.5c2.66699 27.333 8.83398 49 18.501 65
s20.5 28.167 32.5 36.5s24.167 13.666 36.5 15.999s23.166 3.5 32.499 3.5c26 0 45 -3.83301 57 -11.5s23.333 -18.834 34 -33.501l2 1v38h79v-531c0 -20 -2 -39.667 -6 -59s-11.333 -36.666 -22 -51.999s-25.5 -27.666 -44.5 -36.999s-43.833 -14 -74.5 -14
c-44 0 -77.667 10.833 -101 32.5s-35.666 52.167 -36.999 91.5l79 15c0.666992 -20 5.5 -36 14.5 -48s25.167 -18 48.5 -18c11.333 0 21.166 2.33301 29.499 7s15 10.834 20 18.501s8.66699 16.167 11 25.5s3.5 19 3.5 29v93h-2zM182.999 422.998
c-16.667 0 -29.667 -3.16602 -39 -9.49902s-16.5 -16.5 -21.5 -30.5s-8.16699 -31.833 -9.5 -53.5s-2 -47.834 -2 -78.501c0 -32 0.5 -59.167 1.5 -81.5s3.66699 -40.833 8 -55.5s11.333 -25.334 21 -32.001s23.5 -10 41.5 -10c18.667 0 34.5 7 47.5 21s19.5 30.667 19.5 50
v202c0 22.667 -5.66699 41.334 -17 56.001s-28 22 -50 22z" />
    <glyph glyph-name="h" unicode="h" horiz-adv-x="369" 
d="M117 445l3 0.000976562c23.333 36 57 54 101 54c36.667 0 64.167 -11.833 82.5 -35.5s27.5 -54.5 27.5 -92.5v-371h-80v350c0 21.333 -5.66699 38.166 -17 50.499s-28 18.5 -50 18.5c-21.333 0 -38 -6.33301 -50 -19s-18 -30.667 -18 -54v-346h-78v726h79v-281z" />
    <glyph glyph-name="i" unicode="i" horiz-adv-x="170" 
d="M44 616v80h80v-80h-80zM44 0v494h80v-494h-80z" />
    <glyph glyph-name="j" unicode="j" horiz-adv-x="176" 
d="M48 617v80h80v-80h-80zM128 -69c0 -17.333 -1.83203 -33.833 -5.49902 -49.5s-9.83398 -29.5 -18.501 -41.5s-20.5 -21.5 -35.5 -28.5s-33.833 -10.5 -56.5 -10.5h-30v75h14c22.667 0 37 5 43 15s9 28.667 9 56v547h80v-563z" />
    <glyph glyph-name="k" unicode="k" horiz-adv-x="374" 
d="M123 257l138 237h88l-114 -191l135 -303h-85l-101 234l-63 -114v-120h-79v726h79v-469h2z" />
    <glyph glyph-name="l" unicode="l" horiz-adv-x="210" 
d="M49 726h79.999v-596c0 -22.667 2.83301 -39.167 8.5 -49.5s18.5 -15.5 38.5 -15.5h12v-72h-16c-21.333 0 -39.666 1.83301 -54.999 5.5s-28 10 -38 19s-17.5 21.5 -22.5 37.5s-7.5 36.333 -7.5 61v610z" />
    <glyph glyph-name="m" unicode="m" horiz-adv-x="586" 
d="M538 0l-78.999 0.00292969v350c0 21.333 -5.33301 38.166 -16 50.499s-25.667 18.5 -45 18.5c-18 0 -33.5 -6.33301 -46.5 -19s-19.5 -29.667 -19.5 -51v-349h-79v350c0 21.333 -5.33301 38.166 -16 50.499s-25.667 18.5 -45 18.5s-35.166 -7 -47.499 -21
s-18.5 -32.667 -18.5 -56v-342h-78v494h79v-49h3c11.333 17.333 24.166 30.666 38.499 39.999s32.166 14 53.499 14c23.333 0 42.833 -4.83301 58.5 -14.5s27.834 -23.167 36.501 -40.5c15.333 16.667 31.666 30 48.999 40s38 15 62 15c36.667 0 64.167 -11.833 82.5 -35.5
s27.5 -54.5 27.5 -92.5v-371z" />
    <glyph glyph-name="n" unicode="n" horiz-adv-x="366" 
d="M114 445l2.99902 0.000976562c23.333 36 57 54 101 54c36.667 0 64.167 -11.833 82.5 -35.5s27.5 -54.5 27.5 -92.5v-371h-80v350c0 21.333 -5 38.166 -15 50.499s-26 18.5 -48 18.5c-21.333 0 -38.666 -7 -51.999 -21s-20 -32.667 -20 -56v-342h-78v494h79v-49z" />
    <glyph glyph-name="o" unicode="o" horiz-adv-x="362" 
d="M186 501c28 0 50.8311 -3.66895 68.498 -11.002s31.834 -17.5 42.501 -30.5s18.334 -28.333 23.001 -46s7.66699 -36.834 9 -57.501c1.33301 -19.333 2.33301 -40 3 -62s1 -41.667 1 -59c0 -38 -2 -76 -6 -114c-3.33301 -26.667 -10 -48.334 -20 -65.001
s-22.167 -29.667 -36.5 -39s-29.833 -15.666 -46.5 -18.999s-33 -5 -49 -5c-20.667 0 -38.5 2.66699 -53.5 8s-27.833 12.333 -38.5 21s-19.334 18.834 -26.001 30.501s-11.667 23.5 -15 35.5c-2 8 -3.66699 18 -5 30s-2.16602 25.167 -2.49902 39.5l-1 43.5
c-0.333008 14.667 -0.5 28.334 -0.5 41.001c0 16.667 0.333008 33.834 1 51.501s1.66699 34.5 3 50.5s3 30.5 5 43.5s4.66699 23.5 8 31.5c9.33301 25.333 25 45.333 47 60s51.667 22 89 22zM183.998 428.998c-13.333 0 -25.499 -2.99902 -36.499 -8.99902
s-19.5 -16.667 -25.5 -32c-4 -9.33301 -6.66699 -28.833 -8 -58.5s-2.33301 -64.5 -3 -104.5c0 -22 0.333008 -43.5 1 -64.5s2.66699 -37.167 6 -48.5c9.33301 -30.667 31.333 -46 66 -46c14 0 26.333 4.16699 37 12.5s18.667 19.166 24 32.499
c1.33301 3.33301 2.66602 9.5 3.99902 18.5s2.5 19.667 3.5 32s1.66699 25.5 2 39.5s0.5 28 0.5 42s-0.166992 27.833 -0.5 41.5l-1 39.5c-0.333008 12.667 -1 24 -2 34s-2.5 18 -4.5 24c-9.33301 31.333 -30.333 47 -63 47z" />
    <glyph glyph-name="p" unicode="p" horiz-adv-x="364" 
d="M205 501c8.66699 0 19.3311 -1.16895 31.998 -3.50195s24.834 -7.66602 36.501 -15.999s22.167 -20.5 31.5 -36.5s15.666 -37.667 18.999 -65c2 -20 3.16699 -41 3.5 -63s0.5 -42.667 0.5 -62c0 -36 -0.833008 -69.833 -2.5 -101.5s-6.66699 -59.167 -15 -82.5
s-21.166 -41.833 -38.499 -55.5s-41.666 -20.5 -72.999 -20.5c-19.333 0 -36 3.5 -50 10.5s-25.667 17.167 -35 30.5h-2v-228h-79v687h79v-38l2 -1c10.667 14.667 22 25.834 34 33.501s31 11.5 57 11.5zM177.997 423.998c-22 0 -38.667 -7.33301 -50 -22
s-17 -33.334 -17 -56.001v-196c0 -23.333 5.33301 -42 16 -56s27.667 -21 51 -21c14.667 0 26.5 2.83301 35.5 8.5s16 15.5 21 29.5s8.5 32.5 10.5 55.5s3 51.5 3 85.5c0 30.667 -0.5 56.834 -1.5 78.501s-3.83301 39.5 -8.5 53.5s-11.667 24.167 -21 30.5
s-22.333 9.5 -39 9.5z" />
    <glyph glyph-name="q" unicode="q" horiz-adv-x="368" 
d="M249 -194l-0.000976562 241.001h-2c-10 -18 -24.667 -31.167 -44 -39.5s-36.666 -12.5 -51.999 -12.5c-27.333 0 -49 5.83301 -65 17.5s-28 27.334 -36 47.001s-13.167 42.167 -15.5 67.5s-3.5 52 -3.5 80v83.5c0 27 1.66699 56.5 5 88.5
c2.66699 27.333 8.83398 49 18.501 65s20.5 28.167 32.5 36.5s24.167 13.666 36.5 15.999s23.166 3.5 32.499 3.5c26 0 45 -3.83301 57 -11.5s23.333 -18.834 34 -33.501l2 1v38h79v-688h-79zM182.999 423.001c-16.667 0 -29.667 -3.16602 -39 -9.49902
s-16.5 -16.5 -21.5 -30.5s-8.16699 -31.833 -9.5 -53.5s-2 -47.834 -2 -78.501c0 -32 0.5 -59.167 1.5 -81.5s3.66699 -40.833 8 -55.5s11.333 -25.334 21 -32.001s23.5 -10 41.5 -10c18.667 0 34.5 7 47.5 21s19.5 30.667 19.5 50v202c0 22.667 -5.66699 41.334 -17 56.001
s-28 22 -50 22z" />
    <glyph glyph-name="r" unicode="r" horiz-adv-x="257" 
d="M131 438c12.667 25.333 27.333 42.168 44 50.501s37.667 12.5 63 12.5h9v-95c-5.33301 0.666992 -10.166 1.16699 -14.499 1.5s-8.83301 0.5 -13.5 0.5c-28.667 0 -50.834 -6.83301 -66.501 -20.5s-23.5 -37.834 -23.5 -72.501v-315h-79v494h79v-56h2z" />
    <glyph glyph-name="s" unicode="s" horiz-adv-x="339" 
d="M111 140c-0.666992 -22.667 3.99805 -40.667 13.998 -54s24.667 -20 44 -20c24.667 0 41.667 5.66699 51 17s14 29.333 14 54c0 11.333 -1 21.166 -3 29.499s-5.66699 15.666 -11 21.999s-12.666 12.166 -21.999 17.499s-21.666 11 -36.999 17
c-25.333 9.33301 -46.166 19.333 -62.499 30s-29 22 -38 34s-15.167 24.667 -18.5 38s-5 27.333 -5 42c0 39.333 11.5 71.5 34.5 96.5s57.5 37.5 103.5 37.5c49.333 0 84.5 -12.167 105.5 -36.5s31.5 -57.5 31.5 -99.5l-82 -11c1.33301 26 -3.33398 44.833 -14.001 56.5
s-24.667 17.5 -42 17.5c-12 0 -22 -1.83301 -30 -5.5s-14.167 -8.5 -18.5 -14.5s-7.33301 -12.667 -9 -20s-2.5 -14.333 -2.5 -21c0 -8 1 -15.5 3 -22.5s6 -13.667 12 -20s14.333 -12.5 25 -18.5s25 -12 43 -18c24.667 -8.66699 44.5 -18.167 59.5 -28.5
s26.5 -21.666 34.5 -33.999s13.167 -25.666 15.5 -39.999s3.5 -30.166 3.5 -47.499c0 -44 -10.833 -79.167 -32.5 -105.5s-56.5 -39.5 -104.5 -39.5s-83.5 11.5 -106.5 34.5s-35.167 56.167 -36.5 99.5z" />
    <glyph glyph-name="t" unicode="t" horiz-adv-x="231" 
d="M142 494l64.001 -0.00195312v-61h-64v-298c0 -25.333 4.16699 -41.666 12.5 -48.999s20.166 -11 35.499 -11h15v-75h-40c-21.333 0 -38.666 3.33301 -51.999 10s-23.833 15.334 -31.5 26.001s-12.834 22.5 -15.501 35.5s-4 25.833 -4 38.5v323h-52v61h54v121h78v-121z
" />
    <glyph glyph-name="u" unicode="u" horiz-adv-x="369" 
d="M250 50h-3c-23.333 -36 -57 -54 -101 -54c-36.667 0 -64.167 11.833 -82.5 35.5s-27.5 54.5 -27.5 92.5v371h80v-350c0 -48.667 21.333 -73 64 -73c19.333 0 36 7 50 21s21 32.667 21 56v346h78v-494h-79v49z" />
    <glyph glyph-name="v" unicode="v" horiz-adv-x="337" 
d="M214 0h-91l-118 494h84l43 -204l36 -173h3l37 177l41 200h83z" />
    <glyph glyph-name="w" unicode="w" horiz-adv-x="550" 
d="M429 0h-81l-34 150l-38 187h-4l-36 -180l-35 -157h-80l-111 494h83l35 -179l35 -190h3l34 192l36 177h81l33 -172l36 -200h3l34 196l34 176h83z" />
    <glyph glyph-name="x" unicode="x" horiz-adv-x="332" 
d="M239 0l-71 171l-75 -171h-87l121 252l-117 242h89l69 -163l65 163h92l-114 -241l116 -253h-88z" />
    <glyph glyph-name="y" unicode="y" horiz-adv-x="336" 
d="M191 -83c-8 -33.333 -20.667 -60.166 -38 -80.499s-43.666 -30.5 -78.999 -30.5h-30v68h20c18.667 0 32.167 6.16699 40.5 18.5s16.166 35.166 23.499 68.499l8 35l-131 498h84l42 -189l40 -171h3l37 173l41 187h81z" />
    <glyph glyph-name="z" unicode="z" horiz-adv-x="306" 
d="M283 424l-174 -349h174v-75h-260v75l174 349h-161v69h247v-69z" />
    <glyph glyph-name="braceleft" unicode="{" horiz-adv-x="230" 
d="M170 -103c-24.667 0 -45.334 9.66797 -62.001 29.001s-25 45.333 -25 78v140c0 35.333 -4.33301 64.666 -13 87.999s-25.667 36.666 -51 39.999v51c12.667 2 23 6.83301 31 14.5s14.5 17.334 19.5 29.001s8.5 25 10.5 40s3 30.5 3 46.5v137
c0 33.333 8.33301 59.666 25 78.999s37.334 29 62.001 29h44v-54h-19c-8.66699 0 -15.667 -2.66699 -21 -8s-9.66602 -12.166 -12.999 -20.499s-5.66602 -17.666 -6.99902 -27.999s-2 -20.5 -2 -30.5v-126c0 -21.333 -2.16699 -39.833 -6.5 -55.5
s-9.83301 -28.834 -16.5 -39.501s-13.5 -18.834 -20.5 -24.501s-12.833 -9.5 -17.5 -11.5v-3c4.66699 -2 10.5 -5.83301 17.5 -11.5s13.833 -13.834 20.5 -24.501s12.167 -23.667 16.5 -39s6.5 -33.333 6.5 -54v-131c0 -10 0.666992 -20.167 2 -30.5
s3.66602 -19.666 6.99902 -27.999s7.66602 -15.166 12.999 -20.499s12.333 -8 21 -8h19v-53h-44z" />
    <glyph glyph-name="bar" unicode="|" horiz-adv-x="210" 
d="M75 -162v878h63v-878h-63z" />
    <glyph glyph-name="braceright" unicode="}" horiz-adv-x="230" 
d="M20 -103v52.999h19c8.66699 0 15.667 2.66699 21 8s9.66602 12.166 12.999 20.499s5.66602 17.666 6.99902 27.999s2 20.5 2 30.5v131c0 20.667 2.16699 38.667 6.5 54s9.83301 28.333 16.5 39s13.334 18.834 20.001 24.501s12.667 9.5 18 11.5v3
c-5.33301 2 -11.333 5.83301 -18 11.5s-13.334 13.834 -20.001 24.501s-12.167 23.834 -16.5 39.501s-6.5 34.167 -6.5 55.5v126c0 10 -0.666992 20.167 -2 30.5s-3.66602 19.666 -6.99902 27.999s-7.66602 15.166 -12.999 20.499s-12.333 8 -21 8h-19v54h44
c24.667 0 45.334 -9.66699 62.001 -29s25 -45.666 25 -78.999v-137c0 -16 1 -31.5 3 -46.5s5.5 -28.333 10.5 -40s11.5 -21.334 19.5 -29.001s18.333 -12.5 31 -14.5v-51c-25.333 -3.33301 -42.333 -16.666 -51 -39.999s-13 -52.666 -13 -87.999v-140
c0 -32.667 -8.33301 -58.667 -25 -78s-37.334 -29 -62.001 -29h-44z" />
    <glyph glyph-name="asciitilde" unicode="~" horiz-adv-x="380" 
d="M112 299c16 0 30.666 -2.33008 43.999 -6.99707s26.166 -9.83398 38.499 -15.501s24.333 -10.834 36 -15.501s23.834 -7 36.501 -7s22.167 3 28.5 9s15.5 16 27.5 30l45 -27c-12 -22 -26.167 -41 -42.5 -57s-36.166 -24 -59.499 -24c-12.667 0 -25.167 2.5 -37.5 7.5
s-25 10.5 -38 16.5s-26 11.5 -39 16.5s-26.5 7.5 -40.5 7.5c-12.667 0 -22.667 -2.83301 -30 -8.5s-17.333 -15.834 -30 -30.501l-41 29c11.333 20 25.333 37.667 42 53s36.667 23 60 23z" />
    <glyph glyph-name="exclamdown" unicode="&#xa1;" horiz-adv-x="228" 
d="M81 323h66l7 -519h-80zM154 501v-80h-80v80h80z" />
    <glyph glyph-name="cent" unicode="&#xa2;" horiz-adv-x="380" 
d="M170 -117l-0.000976562 110.998c-35.333 3.33301 -61.833 14 -79.5 32s-29.5 38.667 -35.5 62c-2 8 -3.66699 18 -5 30s-2.16602 25.167 -2.49902 39.5l-1 43.5c-0.333008 14.667 -0.5 28.334 -0.5 41.001c0 16.667 0.333008 33.834 1 51.501s1.5 34.5 2.5 50.5
s2.5 30.5 4.5 43.5s4.66699 23.5 8 31.5c8 22 20.667 40 38 54s40.666 22.667 69.999 26v102h35v-100c46 -2 78.833 -16 98.5 -42s29.5 -60.667 29.5 -104l-82 -11c0 26 -4 45.667 -12 59s-19.333 21.666 -34 24.999v-362c16 2.66699 27.667 11 35 25s11 32.667 11 56
l81 -14c-1.33301 -42.667 -12.166 -75.667 -32.499 -99s-51.833 -36.666 -94.5 -39.999v-111h-35zM130.999 111.998c3.33301 -11.333 8.00098 -20.668 14.001 -28.001s14.333 -12.666 25 -15.999v359c-14.667 -4.66699 -26.334 -17.667 -35.001 -39
c-7.33301 -16.667 -11 -66 -11 -148c0 -30 0.333008 -56 1 -78s2.66699 -38.667 6 -50z" />
    <glyph glyph-name="sterling" unicode="&#xa3;" horiz-adv-x="380" 
d="M192 702c48 0 86.499 -13.332 115.499 -39.999s42.833 -65 41.5 -115l-79 -19c0.666992 30.667 -5.16602 55.167 -17.499 73.5s-32.166 27.5 -59.499 27.5c-20.667 0 -37.5 -7.16699 -50.5 -21.5s-19.5 -32.833 -19.5 -55.5c0 -12 1.66699 -24.167 5 -36.5
s7.16602 -25.666 11.499 -39.999s8.83301 -30.333 13.5 -48s8.66699 -37.834 12 -60.501h95v-65h-90v-17c0 -44 -4.83301 -82.333 -14.5 -115s-22.167 -65.667 -37.5 -99h219v-71h-307v71l24.5 49c7.66699 16 14.167 32.333 19.5 49s9.5 34 12.5 52s4.5 38 4.5 60
c0 3.33301 -0.166992 6.83301 -0.5 10.5s-0.5 7.16699 -0.5 10.5h-58v65h53c-3.33301 20.667 -7.33301 38.5 -12 53.5s-9.5 28.833 -14.5 41.5s-9.16699 25.5 -12.5 38.5s-5 28.167 -5 45.5c0 47.333 13.5 85.166 40.5 113.499s63.833 42.5 110.5 42.5z" />
    <glyph glyph-name="currency" unicode="&#xa4;" horiz-adv-x="492" 
d="M245 422c-30 0 -54.333 -10.498 -73 -31.498s-28 -46.167 -28 -75.5c0 -13.333 2.83301 -25.833 8.5 -37.5s13.334 -21.834 23.001 -30.501s20.5 -15.667 32.5 -21s24.333 -8 37 -8c14 0 27.167 2.66699 39.5 8s23.166 12.666 32.499 21.999s16.833 20 22.5 32
s8.5 25 8.5 39c0 29.333 -9.83301 53.833 -29.5 73.5s-44.167 29.5 -73.5 29.5zM51 467.002l23.499 23.999l23.5 24l54 -56c30 20 61.333 30 94 30c17.333 0 33.5 -2.5 48.5 -7.5s30.167 -12.5 45.5 -22.5l54 57l13.5 -13.5l10.5 -10.5l10.5 -11
c3.66699 -4 8.16699 -8.66699 13.5 -14l-56 -54c20 -30 30 -61.333 30 -94c0 -31.333 -10 -62 -30 -92c8.66699 -8 18 -17.167 28 -27.5s19.333 -19.166 28 -26.499c-5.33301 -5.33301 -9.83301 -10 -13.5 -14l-10.5 -11l-10.5 -11c-3.66699 -4 -8.16699 -8.33301 -13.5 -13
l-54 56c-28 -19.333 -59.333 -29 -94 -29c-33.333 0 -64.666 9.66699 -93.999 29l-55 -56l-47 49l56 54c-19.333 28.667 -29 59.334 -29 92.001c0 33.333 9.66699 64.666 29 93.999z" />
    <glyph glyph-name="yen" unicode="&#xa5;" horiz-adv-x="380" 
d="M238 333h103v-49h-115v-61h115v-50h-115v-174h-72v174h-113v50h113v61h-113v49h101l-118 363h77l87 -299h3l88 299h77z" />
    <glyph glyph-name="brokenbar" unicode="&#xa6;" horiz-adv-x="210" 
d="M75 294v422h63v-422h-63zM138 257v-419h-63v419h63z" />
    <glyph glyph-name="section" unicode="&#xa7;" horiz-adv-x="423" 
d="M386 293c0 -25.333 -5.6709 -47.8301 -17.0039 -67.4971s-27.333 -36.167 -48 -49.5c13.333 -16 23.666 -32.667 30.999 -50s11 -35.666 11 -54.999c0 -44.667 -15.167 -80 -45.5 -106s-71.5 -39 -123.5 -39c-28 0 -55.167 5.66699 -81.5 17s-48.5 25.666 -66.5 42.999
l44 49c19.333 -17.333 36.833 -29.166 52.5 -35.499s33.5 -9.5 53.5 -9.5c30 0 52.5 7.33301 67.5 22s22.5 33 22.5 55c0 21.333 -9 41.5 -27 60.5s-45.667 38.833 -83 59.5c-22 12 -41.167 23.5 -57.5 34.5s-29.666 22.5 -39.999 34.5s-18.166 25.167 -23.499 39.5
s-8 31.166 -8 50.499c0 23.333 6.33301 45.166 19 65.499s29.334 36.833 50.001 49.5c-15.333 14.667 -26.833 29.834 -34.5 45.501s-11.5 34.167 -11.5 55.5c0 20 3.83301 38.667 11.5 56s18.167 32.166 31.5 44.499s29.333 22 48 29s39 10.5 61 10.5
c31.333 0 59.5 -5.33301 84.5 -16s47.167 -25 66.5 -43l-49 -50c-19.333 17.333 -37.166 29 -53.499 35s-32.5 9 -48.5 9c-23.333 0 -41.666 -6.83301 -54.999 -20.5s-20 -29.834 -20 -48.501c0 -22 8.16699 -40.5 24.5 -55.5s38.5 -30.833 66.5 -47.5l57 -35.5
c18 -11.667 33.667 -24.334 47 -38.001s24 -28.5 32 -44.5s12 -34 12 -54zM310.996 289.003c0 12 -2.49902 22.998 -7.49902 32.998s-13 19.833 -24 29.5s-25.333 19.5 -43 29.5s-39.167 21 -64.5 33c-15.333 -3.33301 -27.333 -10.666 -36 -21.999s-13 -24.666 -13 -39.999
c0 -13.333 4.83301 -26.166 14.5 -38.499s21.667 -24 36 -35s29.833 -21.167 46.5 -30.5l46 -25c15.333 5.33301 26.666 14.166 33.999 26.499s11 25.5 11 39.5z" />
    <glyph glyph-name="dieresis" unicode="&#xa8;" horiz-adv-x="362" 
d="M225 589v80h68v-80h-68zM71 589v80h69v-80h-69z" />
    <glyph glyph-name="copyright" unicode="&#xa9;" horiz-adv-x="703" 
d="M349 -8c-50 0 -93.833 8.83301 -131.5 26.5s-69.167 42.167 -94.5 73.5s-44.5 68.166 -57.5 110.499s-19.5 88.5 -19.5 138.5s6.5 96.5 19.5 139.5s32.167 80.167 57.5 111.5s57 55.833 95 73.5s81.667 26.5 131 26.5c48.667 0 91.667 -8.83301 129 -26.5
s68.833 -42.167 94.5 -73.5s45.167 -68.5 58.5 -111.5s20 -89.5 20 -139.5s-6.66699 -96.167 -20 -138.5s-32.833 -79.166 -58.5 -110.499s-57.167 -55.833 -94.5 -73.5s-80.333 -26.5 -129 -26.5zM349 642c-42 0 -78.335 -7.83301 -109.002 -23.5
s-56.167 -37.167 -76.5 -64.5s-35.5 -59.333 -45.5 -96s-15 -75.667 -15 -117s5.33301 -80 16 -116s26.5 -67.5 47.5 -94.5s46.833 -48.333 77.5 -64s65.667 -23.5 105 -23.5c40.667 0 76.334 7.83301 107.001 23.5s56.334 37 77.001 64s36 58.5 46 94.5s15 74.667 15 116
s-5.33301 80.333 -16 117s-26.167 68.667 -46.5 96s-45.833 48.833 -76.5 64.5s-66 23.5 -106 23.5zM352.998 542c15.333 0 29.999 -2.33301 43.999 -7s26.167 -11.667 36.5 -21s18.333 -20.666 24 -33.999s8.16699 -29 7.5 -47l-55 -13
c0.666992 21.333 -4.16602 38.333 -14.499 51s-25.166 19 -44.499 19c-16.667 0 -30.167 -5.5 -40.5 -16.5s-15.5 -23.5 -15.5 -37.5v-209c0 -14.667 5.33301 -27 16 -37s24 -15 40 -15c19.333 0 33.666 5.5 42.999 16.5s14.666 28.5 15.999 52.5l55 -10
c0 -39.333 -10.833 -67.833 -32.5 -85.5s-48.167 -26.5 -79.5 -26.5c-15.333 0 -30 2.33301 -44 7s-26.167 11.667 -36.5 21s-18.5 21 -24.5 35s-9 30.333 -9 49v197c0 35.333 10.833 62.666 32.5 81.999s48.834 29 81.501 29z" />
    <glyph glyph-name="ordfeminine" unicode="&#xaa;" horiz-adv-x="249" 
d="M20 534c5.33301 23.333 17 42.001 35 56.001s40.667 21 68 21c32 0 57 -6.83301 75 -20.5s27 -38.167 27 -73.5v-238h-66v22c-9.33301 -9.33301 -19.333 -16 -30 -20s-22.667 -6 -36 -6c-15.333 0 -28 2.83301 -38 8.5s-18 13.167 -24 22.5s-10.333 19.833 -13 31.5
s-4 23.5 -4 35.5s1.33301 24.333 4 37s7.66699 24.167 15 34.5s17.333 18.666 30 24.999s28.667 9.5 48 9.5h48v38c0 11.333 -2.5 20 -7.5 26s-15.167 9 -30.5 9c-8 0 -16 -2.66699 -24 -8s-13.333 -14.333 -16 -27zM159 424.001h-33.001
c-13.333 0 -24.666 -3.5 -33.999 -10.5s-14 -19.5 -14 -37.5c0 -27.333 12.333 -41 37 -41c15.333 0 26.5 4.16699 33.5 12.5s10.5 19.5 10.5 33.5v43z" />
    <glyph glyph-name="guillemotleft" unicode="&#xab;" horiz-adv-x="434" 
d="M313 46l-107 186l107 186h78l-105 -186l105 -186h-78zM151 46l-107 186l107 186h78l-106 -186l106 -186h-78z" />
    <glyph glyph-name="logicalnot" unicode="&#xac;" horiz-adv-x="380" 
d="M370 100h-59v164h-302v60h362z" />
    <glyph glyph-name="sfthyphen" unicode="&#xad;" horiz-adv-x="346" 
d="M49 253v67h259v-67h-259z" />
    <glyph glyph-name="registered" unicode="&#xae;" horiz-adv-x="486" 
d="M243 271c-31.333 0 -59 5.5 -83 16.5s-44 26.333 -60 46s-28.167 42.834 -36.5 69.501s-12.5 55.667 -12.5 87c0 32 4.16699 61.5 12.5 88.5s20.5 50.333 36.5 70s36 35 60 46s51.667 16.5 83 16.5c30.667 0 57.834 -5.5 81.501 -16.5s43.5 -26.333 59.5 -46
s28.167 -43 36.5 -70s12.5 -56.5 12.5 -88.5c0 -31.333 -4.16699 -60.333 -12.5 -87s-20.5 -49.834 -36.5 -69.501s-35.833 -35 -59.5 -46s-50.834 -16.5 -81.501 -16.5zM243 676c-26 0 -48.3359 -4.83008 -67.0029 -14.4971s-34.334 -22.834 -47.001 -39.501
s-22 -36.167 -28 -58.5s-9 -46.166 -9 -71.499c0 -26.667 3.33301 -51.167 10 -73.5s16.334 -41.5 29.001 -57.5s28.334 -28.5 47.001 -37.5s40.334 -13.5 65.001 -13.5c26 0 48.333 4.66699 67 14s34 22.166 46 38.499s20.833 35.666 26.5 57.999s8.5 46.166 8.5 71.499
s-3.16699 49.166 -9.5 71.499s-15.666 41.833 -27.999 58.5s-27.833 29.834 -46.5 39.501s-40 14.5 -64 14.5zM275.997 354.003l-37 107.998h-24v-108h-43v267h70c48.667 0 73 -27 73 -81c0 -15.333 -2.5 -29.166 -7.5 -41.499s-14.167 -22.166 -27.5 -29.499
c6.66699 -19.333 13.667 -38.5 21 -57.5l22 -57.5h-47zM271.997 540.001c0 13.333 -2.50098 23.833 -7.50098 31.5s-14.5 11.5 -28.5 11.5h-21v-84h24c12.667 0 21.334 3.83301 26.001 11.5s7 17.5 7 29.5z" />
    <glyph glyph-name="macron" unicode="&#xaf;" horiz-adv-x="361" 
d="M71 588v67h239v-67h-239z" />
    <glyph glyph-name="degree" unicode="&#xb0;" horiz-adv-x="281" 
d="M245 600c0 -14 -2.66699 -27.167 -8 -39.5s-12.5 -23.166 -21.5 -32.499s-19.667 -16.666 -32 -21.999s-25.5 -8 -39.5 -8s-27.167 2.66699 -39.5 8s-23 12.666 -32 21.999s-16.167 20.166 -21.5 32.499s-8 25.5 -8 39.5s2.66699 27.167 8 39.5s12.5 23.166 21.5 32.499
s19.667 16.666 32 21.999s25.5 8 39.5 8s27.167 -2.66699 39.5 -8s23 -12.666 32 -21.999s16.167 -20.166 21.5 -32.499s8 -25.5 8 -39.5zM144 657c-15.333 0 -28.5 -5.5 -39.5 -16.5s-16.5 -24.5 -16.5 -40.5s5.5 -29.5 16.5 -40.5s24.167 -16.5 39.5 -16.5
s28.5 5.5 39.5 16.5s16.5 24.5 16.5 40.5s-5.5 29.5 -16.5 40.5s-24.167 16.5 -39.5 16.5z" />
    <glyph glyph-name="plusminus" unicode="&#xb1;" horiz-adv-x="380" 
d="M9 -1v60h363v-60h-363zM220 264v-164h-59v164h-152v60h152v164h59v-164h152v-60h-152z" />
    <glyph glyph-name="twosuperior" unicode="&#xb2;" horiz-adv-x="247" 
d="M126 733c-25.333 0 -38.002 -23.665 -38.002 -70.998l-62 10c-0.666992 35.333 6.83301 63.5 22.5 84.5s41.834 31.5 78.501 31.5c34 0 58.667 -8.5 74 -25.5s23 -39.833 23 -68.5c0 -16.667 -2.16699 -33.167 -6.5 -49.5s-11.166 -32.5 -20.499 -48.5l-48 -85l-49 -85
h121v-57h-192v46l116 206c6.66699 11.333 11 23.166 13 35.499s3 24.166 3 35.499c0 10.667 -2 20.167 -6 28.5s-13.667 12.5 -29 12.5z" />
    <glyph glyph-name="threesuperior" unicode="&#xb3;" horiz-adv-x="247" 
d="M221 458c0 -33.333 -8.83398 -57.165 -26.501 -71.498s-40.167 -21.5 -67.5 -21.5c-19.333 0 -35.5 2.66699 -48.5 8s-23.333 12.666 -31 21.999s-13 20.333 -16 33s-3.83301 26.667 -2.5 42l63 8c-2 -18.667 -0.166992 -33.334 5.5 -44.001s15.834 -16 30.501 -16
c10 0 18 3.16699 24 9.5s9 16.166 9 29.499v58c0 28 -14.667 42 -44 42h-26v51h27c28.667 0 43 12.667 43 38v50c0 9.33301 -2.33301 17.833 -7 25.5s-13.667 11.5 -27 11.5c-14.667 0 -25 -5.33301 -31 -16s-9 -25 -9 -43l-63 9c1.33301 30 10.5 54.833 27.5 74.5
s43.167 29.5 78.5 29.5c18 0 32.833 -2.33301 44.5 -7s21 -11 28 -19s11.833 -17.333 14.5 -28s4 -22 4 -34v-38c0 -15.333 -1 -29.166 -3 -41.499s-11.667 -23.5 -29 -33.5c15.333 -7.33301 24.5 -16.833 27.5 -28.5s4.5 -27.167 4.5 -46.5v-53z" />
    <glyph glyph-name="acute" unicode="&#xb4;" horiz-adv-x="357" 
d="M136 573l68 168l71 -25l-96 -160z" />
    <glyph glyph-name="mu" unicode="&#xb5;" horiz-adv-x="386" 
d="M261 49h-3c-8 -16.667 -20.333 -29.334 -37 -38.001s-33.667 -13 -51 -13c-16 0 -30.667 3.66699 -44 11v-202h-79v687h80v-350c0 -21.333 5.66699 -38.166 17 -50.499s28 -18.5 50 -18.5c21.333 0 38 6.33301 50 19s18 30.667 18 54v345h78v-493h-79v49z" />
    <glyph glyph-name="mu" unicode="&#x3bc;" horiz-adv-x="386" 
d="M261 49h-3c-8 -16.667 -20.333 -29.334 -37 -38.001s-33.667 -13 -51 -13c-16 0 -30.667 3.66699 -44 11v-202h-79v687h80v-350c0 -21.333 5.66699 -38.166 17 -50.499s28 -18.5 50 -18.5c21.333 0 38 6.33301 50 19s18 30.667 18 54v345h78v-493h-79v49z" />
    <glyph glyph-name="paragraph" unicode="&#xb6;" horiz-adv-x="399" 
d="M131 324h-11c-34 0 -60.5 17 -79.5 51s-28.5 78.333 -28.5 133c0 25.333 2.16699 49.833 6.5 73.5s11.333 44.667 21 63s22.5 33 38.5 44s35.667 16.5 59 16.5h238v-81h-45v-706h-68v706h-62v-706h-69v406z" />
    <glyph glyph-name="periodcentered" unicode="&#xb7;" horiz-adv-x="193" 
d="M52 221v91h87v-91h-87z" />
    <glyph glyph-name="cedilla" unicode="&#xb8;" horiz-adv-x="431" 
d="M201 17l-18.9971 -72.002c15.333 -1.33301 28 -4.5 38 -9.5s17.833 -11.167 23.5 -18.5s9.66699 -15.166 12 -23.499s3.5 -16.166 3.5 -23.499c0 -8 -1.5 -16.333 -4.5 -25s-7.66699 -16.667 -14 -24s-14.833 -13.333 -25.5 -18s-23.334 -7 -38.001 -7
c-5.33301 0 -16.333 0.666992 -33 2s-32.334 5.66602 -47.001 12.999l13 36c11.333 -5.33301 21.666 -8.66602 30.999 -9.99902s18 -2 26 -2c10 0 18.833 2.83301 26.5 8.5s11.5 14.167 11.5 25.5c0 12.667 -3.83301 22.5 -11.5 29.5s-21.167 9.83301 -40.5 8.5l-16 14
l27 98z" />
    <glyph glyph-name="onesuperior" unicode="&#xb9;" horiz-adv-x="210" 
d="M104 369v353l-32.5 -24l-32.5 -24v63l66 48h60v-416h-61z" />
    <glyph glyph-name="ordmasculine" unicode="&#xba;" horiz-adv-x="249" 
d="M128 611c29.333 0 51.334 -5.49902 66.001 -16.499s24.667 -24.167 30 -39.5c2 -6 3.66699 -14 5 -24s2.33301 -20.833 3 -32.5s1.16699 -23.334 1.5 -35.001s0.5 -22.5 0.5 -32.5c0 -12.667 -0.333008 -24.334 -1 -35.001s-1.66699 -22 -3 -34
c-2 -18 -6.5 -32.667 -13.5 -44s-15.333 -20.333 -25 -27s-20.334 -11.167 -32.001 -13.5s-23.167 -3.5 -34.5 -3.5c-16 0 -30 2 -42 6s-22 9.16699 -30 15.5s-14.333 13.333 -19 21s-8 15.167 -10 22.5c-2.66699 10 -4.33398 25 -5.00098 45s-1 38.333 -1 55
c0 22 1 44.167 3 66.5s5 38.5 9 48.5c7.33301 18.667 18.833 32.834 34.5 42.501s36.834 14.5 63.501 14.5zM127.001 553.001c-8 0 -15.332 -1.49805 -21.999 -4.49805s-11.667 -8.83301 -15 -17.5c-2 -6.66699 -3.66699 -19.334 -5 -38.001s-2 -40.334 -2 -65.001v-40.5
c0 -13 1.33301 -23.167 4 -30.5c4 -17.333 17.333 -26 40 -26c10.667 0 19 2.5 25 7.5s9.66699 9.83301 11 14.5c3.33301 7.33301 5.5 19.166 6.5 35.499s1.5 33.5 1.5 51.5c0 17.333 -0.333008 34.333 -1 51s-2.33398 29.334 -5.00098 38.001c-5.33301 16 -18 24 -38 24z
" />
    <glyph glyph-name="guillemotright" unicode="&#xbb;" horiz-adv-x="434" 
d="M45 46l105 186l-105 186h78l107 -186l-107 -186h-78zM207 46l106 186l-106 186h78l107 -186l-107 -186h-78z" />
    <glyph glyph-name="onequarter" unicode="&#xbc;" horiz-adv-x="610" 
d="M111 279v353l-32.5 -24l-32.5 -24v63l66 48h60v-416h-61zM160 -17h-51l314 731h51zM531 62v-62h-61v62h-132v51l94 303h62l-93 -300h69v113h61v-113h33v-54h-33z" />
    <glyph glyph-name="onehalf" unicode="&#xbd;" horiz-adv-x="610" 
d="M115 279v353l-32.5 -24l-32.5 -24v63l66 48h60v-416h-61zM165 -17h-51l314 731h51zM462 364c-25.333 0 -38.002 -23.665 -38.002 -70.998l-62 10c-0.666992 35.333 6.83301 63.5 22.5 84.5s41.834 31.5 78.501 31.5c34 0 58.667 -8.5 74 -25.5s23 -39.833 23 -68.5
c0 -16.667 -2.16699 -33.167 -6.5 -49.5s-11.166 -32.5 -20.499 -48.5l-48 -85l-49 -85h121v-57h-192v46l116 206c6.66699 11.333 11 23.166 13 35.499s3 24.166 3 35.499c0 10.667 -2 20.167 -6 28.5s-13.667 12.5 -29 12.5z" />
    <glyph glyph-name="threequarters" unicode="&#xbe;" horiz-adv-x="610" 
d="M224 368c0 -33.333 -8.83398 -57.165 -26.501 -71.498s-40.167 -21.5 -67.5 -21.5c-19.333 0 -35.5 2.66699 -48.5 8s-23.333 12.666 -31 21.999s-13 20.333 -16 33s-3.83301 26.667 -2.5 42l63 8c-2 -18.667 -0.166992 -33.334 5.5 -44.001s15.834 -16 30.501 -16
c10 0 18 3.16699 24 9.5s9 16.166 9 29.499v58c0 28 -14.667 42 -44 42h-26v51h27c28.667 0 43 12.667 43 38v50c0 9.33301 -2.33301 17.833 -7 25.5s-13.667 11.5 -27 11.5c-14.667 0 -25 -5.33301 -31 -16s-9 -25 -9 -43l-63 9c1.33301 30 10.5 54.833 27.5 74.5
s43.167 29.5 78.5 29.5c18 0 32.833 -2.33301 44.5 -7s21 -11 28 -19s11.833 -17.333 14.5 -28s4 -22 4 -34v-38c0 -15.333 -1 -29.166 -3 -41.499s-11.667 -23.5 -29 -33.5c15.333 -7.33301 24.5 -16.833 27.5 -28.5s4.5 -27.167 4.5 -46.5v-53zM176.999 -16.999h-51
l314 731h51zM548.999 62.001v-62h-61v62h-132v51l94 303h62l-93 -300h69v113h61v-113h33v-54h-33z" />
    <glyph glyph-name="questiondown" unicode="&#xbf;" horiz-adv-x="371" 
d="M29 -34c0 17.333 0.667969 32.1641 2.00098 44.4971s3.66602 23.833 6.99902 34.5s7.83301 21.5 13.5 32.5s12.834 23.833 21.501 38.5l46 79c5.33301 8.66699 9.66602 17.667 12.999 27s5.33301 19.666 6 30.999v69h78v-83c0 -13.333 -2 -26.333 -6 -39
s-9.66699 -24.667 -17 -36l-43 -69.5c-10.667 -17 -19 -31.833 -25 -44.5s-10 -24.667 -12 -36s-3 -25.666 -3 -42.999c0 -13.333 1 -26 3 -38s5.83301 -22.5 11.5 -31.5s13.5 -16.167 23.5 -21.5s23 -8 39 -8c21.333 0 39.333 7.33301 54 22s22 39 22 73l80 -9
c0 -27.333 -4.16699 -51.166 -12.5 -71.499s-19.5 -37.166 -33.5 -50.499s-30.5 -23.166 -49.5 -29.499s-39.167 -9.5 -60.5 -9.5c-56 0 -96.333 14.667 -121 44s-37 71 -37 125zM217.001 498.998v-80h-78v80h78z" />
    <glyph glyph-name="Agrave" unicode="&#xc0;" horiz-adv-x="395" 
d="M307 0l-32 155h-155l-31 -155h-76l148 696h74l150 -696h-78zM195 554l-29 -162l-33 -163h128l-34 165l-28 160h-4zM203 719l-162 92l49 57l142 -113z" />
    <glyph glyph-name="Aacute" unicode="&#xc1;" horiz-adv-x="395" 
d="M307 0l-32 155h-155l-31 -155h-76l148 696h74l150 -696h-78zM195 554l-29 -162l-33 -163h128l-34 165l-28 160h-4zM162 753l142 113l49 -57l-162 -92z" />
    <glyph glyph-name="Acircumflex" unicode="&#xc2;" horiz-adv-x="395" 
d="M307 0l-32 155h-155l-31 -155h-76l148 696h74l150 -696h-78zM195 554l-29 -162l-33 -163h128l-34 165l-28 160h-4zM197 801l-116 -74l-34 28l130 119h47l123 -117l-34 -30z" />
    <glyph glyph-name="Atilde" unicode="&#xc3;" horiz-adv-x="395" 
d="M307 0l-32 155h-155l-31 -155h-76l148 696h74l150 -696h-78zM195 554l-29 -162l-33 -163h128l-34 165l-28 160h-4zM342 823c-12.667 -23.333 -26.998 -41.667 -42.998 -55s-31.333 -20 -46 -20c-10 0 -19.833 2 -29.5 6s-19 8.16699 -28 12.5l-25.5 12.5
c-8 4 -16 6 -24 6c-18.667 0 -36.334 -12 -53.001 -36l-40 25c4 8.66699 9.16699 17.334 15.5 26.001s13.166 16.667 20.499 24s15.333 13.333 24 18s17.667 7 27 7c10 0 19.333 -2 28 -6s17.5 -8.33301 26.5 -13s18.167 -9 27.5 -13s19 -6 29 -6
c9.33301 0 17.833 3.16699 25.5 9.5s16.5 16.166 26.5 29.499z" />
    <glyph glyph-name="Adieresis" unicode="&#xc4;" horiz-adv-x="395" 
d="M307 0l-32 155h-155l-31 -155h-76l148 696h74l150 -696h-78zM195 554l-29 -162l-33 -163h128l-34 165l-28 160h-4zM240 752v80h68v-80h-68zM86 752v80h69v-80h-69z" />
    <glyph glyph-name="Aring" unicode="&#xc5;" horiz-adv-x="395" 
d="M307 0l-32 155h-155l-31 -155h-76l148 696h74l150 -696h-78zM195 554l-29 -162l-33 -163h128l-34 165l-28 160h-4zM198 710c-12.667 0 -24.5 2.33105 -35.5 6.99805s-20.667 11 -29 19s-14.833 17.5 -19.5 28.5s-7 22.833 -7 35.5s2.33301 24.5 7 35.5
s11.167 20.5 19.5 28.5s18 14.333 29 19s22.833 7 35.5 7c25.333 0 46.666 -8.66699 63.999 -26s26 -38.666 26 -63.999s-8.66699 -46.666 -26 -63.999s-38.666 -26 -63.999 -26zM198 845.998c-13.333 0 -24.666 -4.5 -33.999 -13.5s-14 -20.167 -14 -33.5
s4.66699 -24.666 14 -33.999s20.666 -14 33.999 -14s24.5 4.66699 33.5 14s13.5 20.666 13.5 33.999s-4.5 24.5 -13.5 33.5s-20.167 13.5 -33.5 13.5z" />
    <glyph glyph-name="AE" unicode="&#xc6;" horiz-adv-x="624" 
d="M300 182h-154l-62 -182h-80l250 696h344v-73h-219v-233h190v-73h-190v-244h219v-73h-298v182zM172 256h128v367h-3z" />
    <glyph glyph-name="Ccedilla" unicode="&#xc7;" horiz-adv-x="384" 
d="M204 702c54 0 93.1699 -14.668 117.503 -44.001s36.5 -67.666 36.5 -114.999l-79 -14c0.666992 30.667 -4.83301 55 -16.5 73s-31.5 27 -59.5 27c-16 0 -29 -3.66699 -39 -11s-17.833 -16.5 -23.5 -27.5s-9.5 -23.167 -11.5 -36.5s-3 -26 -3 -38v-351
c0 -10 1 -20.833 3 -32.5s5.83301 -22.334 11.5 -32.001s13.334 -17.834 23.001 -24.501s22.5 -10 38.5 -10c26 0 45.167 8 57.5 24s18.833 41.333 19.5 76l81 -14c-1.33301 -46 -12.833 -82.667 -34.5 -110s-54.167 -43 -97.5 -47l-13 -50c15.333 -1.33301 28 -4.5 38 -9.5
s17.833 -11.167 23.5 -18.5s9.66699 -15.166 12 -23.499s3.5 -16.166 3.5 -23.499c0 -8 -1.5 -16.333 -4.5 -25s-7.66699 -16.667 -14 -24s-14.833 -13.333 -25.5 -18s-23.334 -7 -38.001 -7c-5.33301 0 -16.333 0.666992 -33 2s-32.334 5.66602 -47.001 12.999l13 36
c11.333 -5.33301 21.666 -8.66602 30.999 -9.99902s18 -2 26 -2c10 0 18.833 2.83301 26.5 8.5s11.5 14.167 11.5 25.5c0 12.667 -3.83301 22.5 -11.5 29.5s-21.167 9.83301 -40.5 8.5l-16 14l20 73c-48 2.66699 -83.833 18.5 -107.5 47.5s-35.5 68.833 -35.5 119.5v344
c0 24.667 2.16699 48.834 6.5 72.501s12.166 44.667 23.499 63s27.333 33.166 48 44.499s47 17 79 17z" />
    <glyph glyph-name="Egrave" unicode="&#xc8;" horiz-adv-x="366" 
d="M53 0v696h298v-73h-219v-233h190v-73h-190v-245h219v-72h-298zM219 719l-162 92l49 57l142 -113z" />
    <glyph glyph-name="Eacute" unicode="&#xc9;" horiz-adv-x="366" 
d="M53 0v696h298v-73h-219v-233h190v-73h-190v-245h219v-72h-298zM134 753l142 113l49 -57l-162 -92z" />
    <glyph glyph-name="Ecircumflex" unicode="&#xca;" horiz-adv-x="366" 
d="M53 0v696h298v-73h-219v-233h190v-73h-190v-245h219v-72h-298zM199 801l-116 -74l-34 28l130 119h47l123 -117l-34 -30z" />
    <glyph glyph-name="Edieresis" unicode="&#xcb;" horiz-adv-x="366" 
d="M53 0v696h298v-73h-219v-233h190v-73h-190v-245h219v-72h-298zM245 752v80h68v-80h-68zM91 752v80h69v-80h-69z" />
    <glyph glyph-name="Igrave" unicode="&#xcc;" horiz-adv-x="192" 
d="M56 0v696h80v-696h-80zM113 719l-162 92l49 57l142 -113z" />
    <glyph glyph-name="Iacute" unicode="&#xcd;" horiz-adv-x="192" 
d="M56 0v696h80v-696h-80zM53 753l142 113l49 -57l-162 -92z" />
    <glyph glyph-name="Icircumflex" unicode="&#xce;" horiz-adv-x="192" 
d="M56 0v696h80v-696h-80zM96 801l-116 -74l-34 28l130 119h47l123 -117l-34 -30z" />
    <glyph glyph-name="Idieresis" unicode="&#xcf;" horiz-adv-x="192" 
d="M56 0v696h80v-696h-80zM139 752v80h68v-80h-68zM-15 752v80h69v-80h-69z" />
    <glyph glyph-name="Eth" unicode="&#xd0;" horiz-adv-x="423" 
d="M6 391h47.001v305h162c41.333 0 74 -7.16699 98 -21.5s40.667 -38.5 50 -72.5c7.33301 -28 11 -62.667 11 -104v-149v-145.5c0 -39.667 -4.33301 -73.167 -13 -100.5c-12.667 -39.333 -32.834 -66.333 -60.501 -81s-59.167 -22 -94.5 -22h-153v331h-47v60zM294.001 522
c0 31.333 -6.66699 56 -20 74s-37 27 -71 27h-71v-232h69v-60h-69v-259h71c32.667 0 56 9 70 27s21 43.667 21 77v346z" />
    <glyph glyph-name="Ntilde" unicode="&#xd1;" horiz-adv-x="450" 
d="M129 476v-476h-79v696h75l144 -353l48 -127l4 1v479h79v-696h-74l-144 350l-50 126h-3zM371 814c-12.667 -23.333 -26.998 -41.667 -42.998 -55s-31.333 -20 -46 -20c-10 0 -19.833 2 -29.5 6s-19 8.16699 -28 12.5l-25.5 12.5c-8 4 -16 6 -24 6
c-18.667 0 -36.334 -12 -53.001 -36l-40 25c4 8.66699 9.16699 17.334 15.5 26.001s13.166 16.667 20.499 24s15.333 13.333 24 18s17.667 7 27 7c10 0 19.333 -2 28 -6s17.5 -8.33301 26.5 -13s18.167 -9 27.5 -13s19 -6 29 -6c9.33301 0 17.833 3.16699 25.5 9.5
s16.5 16.166 26.5 29.499z" />
    <glyph glyph-name="Ograve" unicode="&#xd2;" horiz-adv-x="414" 
d="M367 187c0 -62 -12.1689 -109.832 -36.502 -143.499s-65.833 -50.5 -124.5 -50.5c-57.333 0 -98.166 15.667 -122.499 47s-36.5 72.666 -36.5 123.999v343c0 24.667 2.16699 48.667 6.5 72s12.333 44.166 24 62.499s27.834 33 48.501 44s47.667 16.5 81 16.5
c34.667 0 62.5 -4.83301 83.5 -14.5s37.167 -23.167 48.5 -40.5s18.833 -37.666 22.5 -60.999s5.5 -49 5.5 -77v-322zM287.998 522.001c0 12 -0.833984 24.334 -2.50098 37.001s-5.16699 24.167 -10.5 34.5s-13.5 19 -24.5 26s-25.5 10.5 -43.5 10.5
c-20 0 -35.333 -4.83301 -46 -14.5s-18.667 -21.167 -24 -34.5s-8.5 -27.5 -9.5 -42.5s-1.5 -27.5 -1.5 -37.5v-338c0 -10 1 -20.667 3 -32s6 -22 12 -32s14.167 -18.167 24.5 -24.5s23.833 -9.5 40.5 -9.5s30.334 3.33301 41.001 10s19 15.167 25 25.5
s10.167 22.166 12.5 35.499s3.5 27 3.5 41v345zM240.997 719.002l-162 92l49 57l142 -113z" />
    <glyph glyph-name="Oacute" unicode="&#xd3;" horiz-adv-x="414" 
d="M367 187c0 -62 -12.1689 -109.832 -36.502 -143.499s-65.833 -50.5 -124.5 -50.5c-57.333 0 -98.166 15.667 -122.499 47s-36.5 72.666 -36.5 123.999v343c0 24.667 2.16699 48.667 6.5 72s12.333 44.166 24 62.499s27.834 33 48.501 44s47.667 16.5 81 16.5
c34.667 0 62.5 -4.83301 83.5 -14.5s37.167 -23.167 48.5 -40.5s18.833 -37.666 22.5 -60.999s5.5 -49 5.5 -77v-322zM287.998 522.001c0 12 -0.833984 24.334 -2.50098 37.001s-5.16699 24.167 -10.5 34.5s-13.5 19 -24.5 26s-25.5 10.5 -43.5 10.5
c-20 0 -35.333 -4.83301 -46 -14.5s-18.667 -21.167 -24 -34.5s-8.5 -27.5 -9.5 -42.5s-1.5 -27.5 -1.5 -37.5v-338c0 -10 1 -20.667 3 -32s6 -22 12 -32s14.167 -18.167 24.5 -24.5s23.833 -9.5 40.5 -9.5s30.334 3.33301 41.001 10s19 15.167 25 25.5
s10.167 22.166 12.5 35.499s3.5 27 3.5 41v345zM161.997 753.002l142 113l49 -57l-162 -92z" />
    <glyph glyph-name="Ocircumflex" unicode="&#xd4;" horiz-adv-x="414" 
d="M367 187c0 -62 -12.1689 -109.832 -36.502 -143.499s-65.833 -50.5 -124.5 -50.5c-57.333 0 -98.166 15.667 -122.499 47s-36.5 72.666 -36.5 123.999v343c0 24.667 2.16699 48.667 6.5 72s12.333 44.166 24 62.499s27.834 33 48.501 44s47.667 16.5 81 16.5
c34.667 0 62.5 -4.83301 83.5 -14.5s37.167 -23.167 48.5 -40.5s18.833 -37.666 22.5 -60.999s5.5 -49 5.5 -77v-322zM287.998 522.001c0 12 -0.833984 24.334 -2.50098 37.001s-5.16699 24.167 -10.5 34.5s-13.5 19 -24.5 26s-25.5 10.5 -43.5 10.5
c-20 0 -35.333 -4.83301 -46 -14.5s-18.667 -21.167 -24 -34.5s-8.5 -27.5 -9.5 -42.5s-1.5 -27.5 -1.5 -37.5v-338c0 -10 1 -20.667 3 -32s6 -22 12 -32s14.167 -18.167 24.5 -24.5s23.833 -9.5 40.5 -9.5s30.334 3.33301 41.001 10s19 15.167 25 25.5
s10.167 22.166 12.5 35.499s3.5 27 3.5 41v345zM207.997 801.002l-116 -74l-34 28l130 119h47l123 -117l-34 -30z" />
    <glyph glyph-name="Otilde" unicode="&#xd5;" horiz-adv-x="414" 
d="M367 187c0 -62 -12.1689 -109.832 -36.502 -143.499s-65.833 -50.5 -124.5 -50.5c-57.333 0 -98.166 15.667 -122.499 47s-36.5 72.666 -36.5 123.999v343c0 24.667 2.16699 48.667 6.5 72s12.333 44.166 24 62.499s27.834 33 48.501 44s47.667 16.5 81 16.5
c34.667 0 62.5 -4.83301 83.5 -14.5s37.167 -23.167 48.5 -40.5s18.833 -37.666 22.5 -60.999s5.5 -49 5.5 -77v-322zM287.998 522.001c0 12 -0.833984 24.334 -2.50098 37.001s-5.16699 24.167 -10.5 34.5s-13.5 19 -24.5 26s-25.5 10.5 -43.5 10.5
c-20 0 -35.333 -4.83301 -46 -14.5s-18.667 -21.167 -24 -34.5s-8.5 -27.5 -9.5 -42.5s-1.5 -27.5 -1.5 -37.5v-338c0 -10 1 -20.667 3 -32s6 -22 12 -32s14.167 -18.167 24.5 -24.5s23.833 -9.5 40.5 -9.5s30.334 3.33301 41.001 10s19 15.167 25 25.5
s10.167 22.166 12.5 35.499s3.5 27 3.5 41v345zM352.997 823.002c-12.667 -23.333 -26.998 -41.667 -42.998 -55s-31.333 -20 -46 -20c-10 0 -19.833 2 -29.5 6s-19 8.16699 -28 12.5l-25.5 12.5c-8 4 -16 6 -24 6c-18.667 0 -36.334 -12 -53.001 -36l-40 25
c4 8.66699 9.16699 17.334 15.5 26.001s13.166 16.667 20.499 24s15.333 13.333 24 18s17.667 7 27 7c10 0 19.333 -2 28 -6s17.5 -8.33301 26.5 -13s18.167 -9 27.5 -13s19 -6 29 -6c9.33301 0 17.833 3.16699 25.5 9.5s16.5 16.166 26.5 29.499z" />
    <glyph glyph-name="Odieresis" unicode="&#xd6;" horiz-adv-x="414" 
d="M367 187c0 -62 -12.1689 -109.832 -36.502 -143.499s-65.833 -50.5 -124.5 -50.5c-57.333 0 -98.166 15.667 -122.499 47s-36.5 72.666 -36.5 123.999v343c0 24.667 2.16699 48.667 6.5 72s12.333 44.166 24 62.499s27.834 33 48.501 44s47.667 16.5 81 16.5
c34.667 0 62.5 -4.83301 83.5 -14.5s37.167 -23.167 48.5 -40.5s18.833 -37.666 22.5 -60.999s5.5 -49 5.5 -77v-322zM287.998 522.001c0 12 -0.833984 24.334 -2.50098 37.001s-5.16699 24.167 -10.5 34.5s-13.5 19 -24.5 26s-25.5 10.5 -43.5 10.5
c-20 0 -35.333 -4.83301 -46 -14.5s-18.667 -21.167 -24 -34.5s-8.5 -27.5 -9.5 -42.5s-1.5 -27.5 -1.5 -37.5v-338c0 -10 1 -20.667 3 -32s6 -22 12 -32s14.167 -18.167 24.5 -24.5s23.833 -9.5 40.5 -9.5s30.334 3.33301 41.001 10s19 15.167 25 25.5
s10.167 22.166 12.5 35.499s3.5 27 3.5 41v345zM249.997 752.002v80h68v-80h-68zM95.9971 752.002v80h69v-80h-69z" />
    <glyph glyph-name="multiply" unicode="&#xd7;" horiz-adv-x="380" 
d="M190 252l-137 -137l-42 42l138 137l-129 129l42 42l129 -129l137 138l42 -42l-137 -137l128 -129l-42 -42z" />
    <glyph glyph-name="Oslash" unicode="&#xd8;" horiz-adv-x="414" 
d="M367 187c0 -62 -12.168 -109.834 -36.501 -143.501s-65.833 -50.5 -124.5 -50.5c-49.333 0 -87 12.333 -113 37l-17 -39l-40 22l27 61c-10.667 25.333 -16 55.333 -16 90v343c0 24.667 2.16699 48.667 6.5 72s12.333 44.166 24 62.499s27.834 33 48.501 44
s47.667 16.5 81 16.5c27.333 0 50.333 -3 69 -9s34 -14.667 46 -26l16 37l43 -21l-28 -64c5.33301 -15.333 9 -32.166 11 -50.499s3 -38.166 3 -59.499v-322zM125.999 217.999l156 357c-4.66699 15.333 -12.5 28.333 -23.5 39s-28.167 16 -51.5 16
c-20 0 -35.333 -4.83301 -46 -14.5s-18.667 -21.167 -24 -34.5s-8.5 -27.5 -9.5 -42.5s-1.5 -27.5 -1.5 -37.5v-283zM287.999 471.999l-156.001 -352.998c4.66699 -14.667 12.667 -27.334 24 -38.001s28 -16 50 -16c16.667 0 30.334 3.33301 41.001 10s19 15.167 25 25.5
s10.167 22.166 12.5 35.499s3.5 27 3.5 41v295z" />
    <glyph glyph-name="Ugrave" unicode="&#xd9;" horiz-adv-x="420" 
d="M370 695l-0.000976562 -507.998c0 -62 -12 -109.833 -36 -143.5s-65.333 -50.5 -124 -50.5c-57.333 0 -98.333 15.667 -123 47s-37 72.666 -37 123.999v531h79v-532c0 -10 1 -20.667 3 -32s6 -22 12 -32s14.167 -18.167 24.5 -24.5s23.833 -9.5 40.5 -9.5
s30.334 3.33301 41.001 10s19 15.167 25 25.5s10.167 22.166 12.5 35.499s3.5 27 3.5 41v518h79zM230.999 719.002l-162 92l49 57l142 -113z" />
    <glyph glyph-name="Uacute" unicode="&#xda;" horiz-adv-x="420" 
d="M370 695l-0.000976562 -507.998c0 -62 -12 -109.833 -36 -143.5s-65.333 -50.5 -124 -50.5c-57.333 0 -98.333 15.667 -123 47s-37 72.666 -37 123.999v531h79v-532c0 -10 1 -20.667 3 -32s6 -22 12 -32s14.167 -18.167 24.5 -24.5s23.833 -9.5 40.5 -9.5
s30.334 3.33301 41.001 10s19 15.167 25 25.5s10.167 22.166 12.5 35.499s3.5 27 3.5 41v518h79zM169.999 753.002l142 113l49 -57l-162 -92z" />
    <glyph glyph-name="Ucircumflex" unicode="&#xdb;" horiz-adv-x="420" 
d="M370 695l-0.000976562 -507.998c0 -62 -12 -109.833 -36 -143.5s-65.333 -50.5 -124 -50.5c-57.333 0 -98.333 15.667 -123 47s-37 72.666 -37 123.999v531h79v-532c0 -10 1 -20.667 3 -32s6 -22 12 -32s14.167 -18.167 24.5 -24.5s23.833 -9.5 40.5 -9.5
s30.334 3.33301 41.001 10s19 15.167 25 25.5s10.167 22.166 12.5 35.499s3.5 27 3.5 41v518h79zM209.999 801.002l-116 -74l-34 28l130 119h47l123 -117l-34 -30z" />
    <glyph glyph-name="Udieresis" unicode="&#xdc;" horiz-adv-x="420" 
d="M370 695l-0.000976562 -507.998c0 -62 -12 -109.833 -36 -143.5s-65.333 -50.5 -124 -50.5c-57.333 0 -98.333 15.667 -123 47s-37 72.666 -37 123.999v531h79v-532c0 -10 1 -20.667 3 -32s6 -22 12 -32s14.167 -18.167 24.5 -24.5s23.833 -9.5 40.5 -9.5
s30.334 3.33301 41.001 10s19 15.167 25 25.5s10.167 22.166 12.5 35.499s3.5 27 3.5 41v518h79zM255.999 752.002v80h68v-80h-68zM101.999 752.002v80h69v-80h-69z" />
    <glyph glyph-name="Yacute" unicode="&#xdd;" horiz-adv-x="376" 
d="M190 408l90 288h83l-136 -402v-295h-78v295l-136 402h83l51 -163l39 -125h4zM153 753l142 113l49 -57l-162 -92z" />
    <glyph glyph-name="Thorn" unicode="&#xde;" horiz-adv-x="395" 
d="M52 696l78 0.000976562v-135h65c35.333 0 64.333 -4.66699 87 -14s40.667 -22.833 54 -40.5s22.5 -39.334 27.5 -65.001s7.5 -54.834 7.5 -87.501c0 -29.333 -2.33301 -56.666 -7 -81.999s-13.667 -47.5 -27 -66.5s-31.833 -33.833 -55.5 -44.5s-54.5 -16 -92.5 -16h-57
v-145h-79zM132 219.001l53.999 0.000976562c24 0 43.167 3.66699 57.5 11s25.333 17 33 29s12.5 26 14.5 42s3 33 3 51c0 18.667 -1.16699 36.167 -3.5 52.5s-7.16602 30.666 -14.499 42.999s-18 22 -32 29s-32.667 10.5 -56 10.5h-56v-268z" />
    <glyph glyph-name="germandbls" unicode="&#xdf;" horiz-adv-x="375" 
d="M270 428c20.667 -7.33301 36.3311 -19.5029 46.998 -36.5029s16 -35.5 16 -55.5v-198c0 -17.333 -1.83301 -34.5 -5.5 -51.5s-9.5 -32.5 -17.5 -46.5s-18.833 -25.333 -32.5 -34s-30.5 -13 -50.5 -13h-42v64h4c24.667 0 41.5 5.83301 50.5 17.5s13.5 28.834 13.5 51.501
v198c0 21.333 -5.16699 37.666 -15.5 48.999s-23.5 17 -39.5 17h-13v69h8c18.667 0 31.834 6.5 39.501 19.5s11.5 28.833 11.5 47.5v60c0 21.333 -6 37.5 -18 48.5s-26.667 16.5 -44 16.5c-19.333 0 -34.833 -6.33301 -46.5 -19s-17.5 -28 -17.5 -46v-586h-78v581
c0 44 13.333 79.167 40 105.5s61 39.5 103 39.5c40.667 0 74.334 -11.167 101.001 -33.5s40 -56.166 40 -101.499v-59c0 -23.333 -4 -43.666 -12 -60.999s-22 -30.666 -42 -39.999v-3z" />
    <glyph glyph-name="agrave" unicode="&#xe0;" horiz-adv-x="361" 
d="M239 43c-13.333 -18 -28.5 -30.668 -45.5 -38.001s-36.167 -11 -57.5 -11c-20.667 0 -38 4.16699 -52 12.5s-25.167 19.333 -33.5 33s-14.333 29 -18 46s-5.5 34.5 -5.5 52.5c0 18.667 2 37.334 6 56.001s11 35.667 21 51s23.667 27.833 41 37.5s39.666 14.5 66.999 14.5
h78v66c0 19.333 -4.5 34.666 -13.5 45.999s-26.167 17 -51.5 17c-13.333 0 -26.333 -4 -39 -12s-20.667 -21 -24 -39l-75 21c7.33301 32.667 23.333 58.334 48 77.001s56 28 94 28c44.667 0 79.334 -10.167 104.001 -30.5s37 -55.833 37 -106.5v-364h-80v43h-1zM240 227.999
l-57.999 -0.000976562c-20.667 0 -38.834 -6.16699 -54.501 -18.5s-23.5 -34.5 -23.5 -66.5c0 -23.333 5 -41.166 15 -53.499s25.667 -18.5 47 -18.5c24.667 0 43.167 7 55.5 21s18.5 33.333 18.5 58v78zM166.001 555.998l-96 160l71 25l68 -168z" />
    <glyph glyph-name="aacute" unicode="&#xe1;" horiz-adv-x="361" 
d="M239 43c-13.333 -18 -28.5 -30.668 -45.5 -38.001s-36.167 -11 -57.5 -11c-20.667 0 -38 4.16699 -52 12.5s-25.167 19.333 -33.5 33s-14.333 29 -18 46s-5.5 34.5 -5.5 52.5c0 18.667 2 37.334 6 56.001s11 35.667 21 51s23.667 27.833 41 37.5s39.666 14.5 66.999 14.5
h78v66c0 19.333 -4.5 34.666 -13.5 45.999s-26.167 17 -51.5 17c-13.333 0 -26.333 -4 -39 -12s-20.667 -21 -24 -39l-75 21c7.33301 32.667 23.333 58.334 48 77.001s56 28 94 28c44.667 0 79.334 -10.167 104.001 -30.5s37 -55.833 37 -106.5v-364h-80v43h-1zM240 227.999
l-57.999 -0.000976562c-20.667 0 -38.834 -6.16699 -54.501 -18.5s-23.5 -34.5 -23.5 -66.5c0 -23.333 5 -41.166 15 -53.499s25.667 -18.5 47 -18.5c24.667 0 43.167 7 55.5 21s18.5 33.333 18.5 58v78zM136.001 572.998l68 168l71 -25l-96 -160z" />
    <glyph glyph-name="acircumflex" unicode="&#xe2;" horiz-adv-x="361" 
d="M239 43c-13.333 -18 -28.5 -30.668 -45.5 -38.001s-36.167 -11 -57.5 -11c-20.667 0 -38 4.16699 -52 12.5s-25.167 19.333 -33.5 33s-14.333 29 -18 46s-5.5 34.5 -5.5 52.5c0 18.667 2 37.334 6 56.001s11 35.667 21 51s23.667 27.833 41 37.5s39.666 14.5 66.999 14.5
h78v66c0 19.333 -4.5 34.666 -13.5 45.999s-26.167 17 -51.5 17c-13.333 0 -26.333 -4 -39 -12s-20.667 -21 -24 -39l-75 21c7.33301 32.667 23.333 58.334 48 77.001s56 28 94 28c44.667 0 79.334 -10.167 104.001 -30.5s37 -55.833 37 -106.5v-364h-80v43h-1zM240 227.999
l-57.999 -0.000976562c-20.667 0 -38.834 -6.16699 -54.501 -18.5s-23.5 -34.5 -23.5 -66.5c0 -23.333 5 -41.166 15 -53.499s25.667 -18.5 47 -18.5c24.667 0 43.167 7 55.5 21s18.5 33.333 18.5 58v78zM180.001 645.998l-116 -94l-34 28l130 139h47l123 -137l-34 -30z" />
    <glyph glyph-name="atilde" unicode="&#xe3;" horiz-adv-x="361" 
d="M239 43c-13.333 -18 -28.5 -30.668 -45.5 -38.001s-36.167 -11 -57.5 -11c-20.667 0 -38 4.16699 -52 12.5s-25.167 19.333 -33.5 33s-14.333 29 -18 46s-5.5 34.5 -5.5 52.5c0 18.667 2 37.334 6 56.001s11 35.667 21 51s23.667 27.833 41 37.5s39.666 14.5 66.999 14.5
h78v66c0 19.333 -4.5 34.666 -13.5 45.999s-26.167 17 -51.5 17c-13.333 0 -26.333 -4 -39 -12s-20.667 -21 -24 -39l-75 21c7.33301 32.667 23.333 58.334 48 77.001s56 28 94 28c44.667 0 79.334 -10.167 104.001 -30.5s37 -55.833 37 -106.5v-364h-80v43h-1zM240 227.999
l-57.999 -0.000976562c-20.667 0 -38.834 -6.16699 -54.501 -18.5s-23.5 -34.5 -23.5 -66.5c0 -23.333 5 -41.166 15 -53.499s25.667 -18.5 47 -18.5c24.667 0 43.167 7 55.5 21s18.5 33.333 18.5 58v78zM325.001 652.998c-12.667 -23.333 -26.998 -41.667 -42.998 -55
s-31.333 -20 -46 -20c-10 0 -19.833 2 -29.5 6s-19 8.16699 -28 12.5l-25.5 12.5c-8 4 -16 6 -24 6c-18.667 0 -36.334 -12 -53.001 -36l-40 25c4 8.66699 9.16699 17.334 15.5 26.001s13.166 16.667 20.499 24s15.333 13.333 24 18s17.667 7 27 7c10 0 19.333 -2 28 -6
s17.5 -8.33301 26.5 -13s18.167 -9 27.5 -13s19 -6 29 -6c9.33301 0 17.833 3.16699 25.5 9.5s16.5 16.166 26.5 29.499z" />
    <glyph glyph-name="adieresis" unicode="&#xe4;" horiz-adv-x="361" 
d="M239 43c-13.333 -18 -28.5 -30.668 -45.5 -38.001s-36.167 -11 -57.5 -11c-20.667 0 -38 4.16699 -52 12.5s-25.167 19.333 -33.5 33s-14.333 29 -18 46s-5.5 34.5 -5.5 52.5c0 18.667 2 37.334 6 56.001s11 35.667 21 51s23.667 27.833 41 37.5s39.666 14.5 66.999 14.5
h78v66c0 19.333 -4.5 34.666 -13.5 45.999s-26.167 17 -51.5 17c-13.333 0 -26.333 -4 -39 -12s-20.667 -21 -24 -39l-75 21c7.33301 32.667 23.333 58.334 48 77.001s56 28 94 28c44.667 0 79.334 -10.167 104.001 -30.5s37 -55.833 37 -106.5v-364h-80v43h-1zM240 227.999
l-57.999 -0.000976562c-20.667 0 -38.834 -6.16699 -54.501 -18.5s-23.5 -34.5 -23.5 -66.5c0 -23.333 5 -41.166 15 -53.499s25.667 -18.5 47 -18.5c24.667 0 43.167 7 55.5 21s18.5 33.333 18.5 58v78zM225.001 588.998v80h68v-80h-68zM71.001 588.998v80h69v-80h-69z" />
    <glyph glyph-name="aring" unicode="&#xe5;" horiz-adv-x="361" 
d="M239 43c-13.333 -18 -28.5 -30.668 -45.5 -38.001s-36.167 -11 -57.5 -11c-20.667 0 -38 4.16699 -52 12.5s-25.167 19.333 -33.5 33s-14.333 29 -18 46s-5.5 34.5 -5.5 52.5c0 18.667 2 37.334 6 56.001s11 35.667 21 51s23.667 27.833 41 37.5s39.666 14.5 66.999 14.5
h78v66c0 19.333 -4.5 34.666 -13.5 45.999s-26.167 17 -51.5 17c-13.333 0 -26.333 -4 -39 -12s-20.667 -21 -24 -39l-75 21c7.33301 32.667 23.333 58.334 48 77.001s56 28 94 28c44.667 0 79.334 -10.167 104.001 -30.5s37 -55.833 37 -106.5v-364h-80v43h-1zM240 227.999
l-57.999 -0.000976562c-20.667 0 -38.834 -6.16699 -54.501 -18.5s-23.5 -34.5 -23.5 -66.5c0 -23.333 5 -41.166 15 -53.499s25.667 -18.5 47 -18.5c24.667 0 43.167 7 55.5 21s18.5 33.333 18.5 58v78zM192.001 541.998c-12.667 0 -24.5 2.33105 -35.5 6.99805
s-20.667 11 -29 19s-14.833 17.5 -19.5 28.5s-7 22.833 -7 35.5s2.33301 24.5 7 35.5s11.167 20.5 19.5 28.5s18 14.333 29 19s22.833 7 35.5 7c25.333 0 46.666 -8.66699 63.999 -26s26 -38.666 26 -63.999s-8.66699 -46.666 -26 -63.999s-38.666 -26 -63.999 -26z
M192.001 677.996c-13.333 0 -24.666 -4.5 -33.999 -13.5s-14 -20.167 -14 -33.5s4.66699 -24.666 14 -33.999s20.666 -14 33.999 -14s24.5 4.66699 33.5 14s13.5 20.666 13.5 33.999s-4.5 24.5 -13.5 33.5s-20.167 13.5 -33.5 13.5z" />
    <glyph glyph-name="ae" unicode="&#xe6;" horiz-adv-x="557" 
d="M383 -7c-32 0 -57.332 5.83203 -75.999 17.499s-33 25.834 -43 42.501c-18.667 -24 -38.167 -39.833 -58.5 -47.5s-38.166 -11.5 -53.499 -11.5c-26 0 -47.333 4.16699 -64 12.5s-29.834 19.333 -39.501 33s-16.334 29 -20.001 46s-5.5 34.5 -5.5 52.5
c0 18.667 2.33301 37.167 7 55.5s12.334 35 23.001 50s24.5 27.167 41.5 36.5s38.167 14 63.5 14h78v69c0 19.333 -5.33301 34.666 -16 45.999s-27 17 -49 17c-13.333 0 -26.333 -4 -39 -12s-20.667 -21 -24 -39l-75 21c7.33301 32.667 24.333 58.334 51 77.001s57 28 91 28
c30 0 53 -4.16699 69 -12.5s28 -18.5 36 -30.5c12 13.333 27.167 23.833 45.5 31.5s40.166 11.5 65.499 11.5c49.333 0 85 -13.667 107 -41s33 -65 33 -113v-118h-212c0 -22 0.5 -44.333 1.5 -67s3.16699 -39.667 6.5 -51c9.33301 -30 30 -45 62 -45
c20.667 0 35.667 6.66699 45 20s15 29 17 47l79 -18c-3.33301 -17.333 -8 -33.5 -14 -48.5s-14.833 -28 -26.5 -39s-26.167 -19.5 -43.5 -25.5s-38.333 -9 -63 -9zM236.001 229.999l-57.998 0.000976562c-20.667 0 -38.834 -6.5 -54.501 -19.5s-23.5 -35.5 -23.5 -67.5
c0 -20.667 5.66699 -37.834 17 -51.501s28.666 -20.5 51.999 -20.5c21.333 0 37.833 7.33301 49.5 22s17.5 33.667 17.5 57v80zM451.003 293l-0.000976562 37.998c0 12.667 -0.833008 24.834 -2.5 36.501s-4.83398 21.834 -9.50098 30.501s-11.167 15.5 -19.5 20.5
s-19.166 7.5 -32.499 7.5c-12 0 -23 -2.83301 -33 -8.5s-18 -16.167 -24 -31.5c-3.33301 -9.33301 -5.66602 -21.333 -6.99902 -36s-2.33301 -33.667 -3 -57h131z" />
    <glyph glyph-name="ccedilla" unicode="&#xe7;" horiz-adv-x="334" 
d="M318 133c-1.33301 -42 -11.6641 -74.8369 -30.9971 -98.5039s-50 -37.167 -92 -40.5l-13 -49c15.333 -1.33301 28 -4.5 38 -9.5s17.833 -11.167 23.5 -18.5s9.66699 -15.166 12 -23.499s3.5 -16.166 3.5 -23.499c0 -8 -1.5 -16.333 -4.5 -25s-7.66699 -16.667 -14 -24
s-14.833 -13.333 -25.5 -18s-23.334 -7 -38.001 -7c-5.33301 0 -16.333 0.666992 -33 2s-32.334 5.66602 -47.001 12.999l13 36c11.333 -5.33301 21.666 -8.66602 30.999 -9.99902s18 -2 26 -2c10 0 18.833 2.83301 26.5 8.5s11.5 14.167 11.5 25.5
c0 12.667 -3.83301 22.5 -11.5 29.5s-21.167 9.83301 -40.5 8.5l-16 14l20 73c-36 3.33301 -62.833 14 -80.5 32s-29.5 38.667 -35.5 62c-2 8 -3.66699 18 -5 30s-2.16602 25.167 -2.49902 39.5l-1 43.5c-0.333008 14.667 -0.5 28.334 -0.5 41.001
c0 16.667 0.333008 33.834 1 51.501s1.5 34.5 2.5 50.5s2.5 30.5 4.5 43.5s4.66699 23.5 8 31.5c9.33301 25.333 24.666 45.333 45.999 60s50.666 22 87.999 22c49.333 0 84.5 -13.167 105.5 -39.5s31.5 -61.833 31.5 -106.5l-82 -11c0 30 -5.16699 51.667 -15.5 65
s-24.5 20 -42.5 20c-13.333 0 -24.833 -3 -34.5 -9s-17.5 -16.667 -23.5 -32c-4 -10 -6.66699 -29.667 -8 -59s-2.33301 -64 -3 -104c0 -22 0.333008 -43.5 1 -64.5s2.66699 -37.167 6 -48.5c4.66699 -14.667 11.834 -26.167 21.501 -34.5s23.167 -12.5 40.5 -12.5
c20.667 0 35.5 7.33301 44.5 22s13.5 34.667 13.5 60l81 -14v0z" />
    <glyph glyph-name="egrave" unicode="&#xe8;" horiz-adv-x="357" 
d="M180 66c19.333 0 33.834 6.5 43.501 19.5s15.167 31.167 16.5 54.5l81 -15c-2.66699 -42.667 -15.834 -75.334 -39.501 -98.001s-59.5 -34 -107.5 -34c-21.333 0 -39.666 2.83301 -54.999 8.5s-28.333 13 -39 22s-19.167 19.167 -25.5 30.5s-10.833 22.666 -13.5 33.999
c-2 8 -3.66699 18 -5 30s-2.33301 25.167 -3 39.5s-1.16699 28.833 -1.5 43.5s-0.5 28.334 -0.5 41.001c0 16.667 0.166992 33.5 0.5 50.5s1.16602 33.167 2.49902 48.5s3 29.5 5 42.5s4.66699 23.833 8 32.5c9.33301 26 24.833 46.667 46.5 62s51.167 23 88.5 23
c49.333 0 85 -13.667 107 -41s33 -65 33 -113v-122h-212c0 -22 0.5 -43.667 1.5 -65s3.16699 -37.666 6.5 -48.999c9.33301 -30 30 -45 62 -45zM242.001 289l-0.000976562 41.998c0 12.667 -0.833008 24.834 -2.5 36.501s-4.83398 21.834 -9.50098 30.501
s-11.167 15.5 -19.5 20.5s-19.166 7.5 -32.499 7.5c-12 0 -23 -2.83301 -33 -8.5s-18 -16.167 -24 -31.5c-3.33301 -9.33301 -5.66602 -22 -6.99902 -38s-2.33301 -35.667 -3 -59h131zM176 555.998l-96 160l71 25l68 -168z" />
    <glyph glyph-name="eacute" unicode="&#xe9;" horiz-adv-x="357" 
d="M180 66c19.333 0 33.834 6.5 43.501 19.5s15.167 31.167 16.5 54.5l81 -15c-2.66699 -42.667 -15.834 -75.334 -39.501 -98.001s-59.5 -34 -107.5 -34c-21.333 0 -39.666 2.83301 -54.999 8.5s-28.333 13 -39 22s-19.167 19.167 -25.5 30.5s-10.833 22.666 -13.5 33.999
c-2 8 -3.66699 18 -5 30s-2.33301 25.167 -3 39.5s-1.16699 28.833 -1.5 43.5s-0.5 28.334 -0.5 41.001c0 16.667 0.166992 33.5 0.5 50.5s1.16602 33.167 2.49902 48.5s3 29.5 5 42.5s4.66699 23.833 8 32.5c9.33301 26 24.833 46.667 46.5 62s51.167 23 88.5 23
c49.333 0 85 -13.667 107 -41s33 -65 33 -113v-122h-212c0 -22 0.5 -43.667 1.5 -65s3.16699 -37.666 6.5 -48.999c9.33301 -30 30 -45 62 -45zM242.001 289l-0.000976562 41.998c0 12.667 -0.833008 24.834 -2.5 36.501s-4.83398 21.834 -9.50098 30.501
s-11.167 15.5 -19.5 20.5s-19.166 7.5 -32.499 7.5c-12 0 -23 -2.83301 -33 -8.5s-18 -16.167 -24 -31.5c-3.33301 -9.33301 -5.66602 -22 -6.99902 -38s-2.33301 -35.667 -3 -59h131zM146 572.998l68 168l71 -25l-96 -160z" />
    <glyph glyph-name="ecircumflex" unicode="&#xea;" horiz-adv-x="357" 
d="M180 66c19.333 0 33.834 6.5 43.501 19.5s15.167 31.167 16.5 54.5l81 -15c-2.66699 -42.667 -15.834 -75.334 -39.501 -98.001s-59.5 -34 -107.5 -34c-21.333 0 -39.666 2.83301 -54.999 8.5s-28.333 13 -39 22s-19.167 19.167 -25.5 30.5s-10.833 22.666 -13.5 33.999
c-2 8 -3.66699 18 -5 30s-2.33301 25.167 -3 39.5s-1.16699 28.833 -1.5 43.5s-0.5 28.334 -0.5 41.001c0 16.667 0.166992 33.5 0.5 50.5s1.16602 33.167 2.49902 48.5s3 29.5 5 42.5s4.66699 23.833 8 32.5c9.33301 26 24.833 46.667 46.5 62s51.167 23 88.5 23
c49.333 0 85 -13.667 107 -41s33 -65 33 -113v-122h-212c0 -22 0.5 -43.667 1.5 -65s3.16699 -37.666 6.5 -48.999c9.33301 -30 30 -45 62 -45zM242.001 289l-0.000976562 41.998c0 12.667 -0.833008 24.834 -2.5 36.501s-4.83398 21.834 -9.50098 30.501
s-11.167 15.5 -19.5 20.5s-19.166 7.5 -32.499 7.5c-12 0 -23 -2.83301 -33 -8.5s-18 -16.167 -24 -31.5c-3.33301 -9.33301 -5.66602 -22 -6.99902 -38s-2.33301 -35.667 -3 -59h131zM180 645.998l-116 -94l-34 28l130 139h47l123 -137l-34 -30z" />
    <glyph glyph-name="edieresis" unicode="&#xeb;" horiz-adv-x="357" 
d="M180 66c19.333 0 33.834 6.5 43.501 19.5s15.167 31.167 16.5 54.5l81 -15c-2.66699 -42.667 -15.834 -75.334 -39.501 -98.001s-59.5 -34 -107.5 -34c-21.333 0 -39.666 2.83301 -54.999 8.5s-28.333 13 -39 22s-19.167 19.167 -25.5 30.5s-10.833 22.666 -13.5 33.999
c-2 8 -3.66699 18 -5 30s-2.33301 25.167 -3 39.5s-1.16699 28.833 -1.5 43.5s-0.5 28.334 -0.5 41.001c0 16.667 0.166992 33.5 0.5 50.5s1.16602 33.167 2.49902 48.5s3 29.5 5 42.5s4.66699 23.833 8 32.5c9.33301 26 24.833 46.667 46.5 62s51.167 23 88.5 23
c49.333 0 85 -13.667 107 -41s33 -65 33 -113v-122h-212c0 -22 0.5 -43.667 1.5 -65s3.16699 -37.666 6.5 -48.999c9.33301 -30 30 -45 62 -45zM242.001 289l-0.000976562 41.998c0 12.667 -0.833008 24.834 -2.5 36.501s-4.83398 21.834 -9.50098 30.501
s-11.167 15.5 -19.5 20.5s-19.166 7.5 -32.499 7.5c-12 0 -23 -2.83301 -33 -8.5s-18 -16.167 -24 -31.5c-3.33301 -9.33301 -5.66602 -22 -6.99902 -38s-2.33301 -35.667 -3 -59h131zM220 588.998v80h68v-80h-68zM66 588.998v80h69v-80h-69z" />
    <glyph glyph-name="igrave" unicode="&#xec;" horiz-adv-x="200" 
d="M58 0v494h80v-494h-80zM82 556l-96 160l71 25l68 -168z" />
    <glyph glyph-name="iacute" unicode="&#xed;" horiz-adv-x="200" 
d="M62 0v494h80v-494h-80zM74 573l68 168l71 -25l-96 -160z" />
    <glyph glyph-name="icircumflex" unicode="&#xee;" horiz-adv-x="250" 
d="M84 0v494h80v-494h-80zM125 646l-116 -94l-34 28l130 139h47l123 -137l-34 -30z" />
    <glyph glyph-name="idieresis" unicode="&#xef;" horiz-adv-x="202" 
d="M63 0v494h80v-494h-80zM144 589v80h68v-80h-68zM-10 589v80h69v-80h-69z" />
    <glyph glyph-name="eth" unicode="&#xf0;" horiz-adv-x="371" 
d="M332 255c0 -18.667 -0.333984 -40.835 -1.00098 -66.502s-2 -48.167 -4 -67.5c-3.33301 -26.667 -10 -48.334 -20 -65.001s-22.167 -29.667 -36.5 -39s-29.833 -15.666 -46.5 -18.999s-33 -5 -49 -5c-20.667 0 -38.5 2.66699 -53.5 8s-27.833 12.333 -38.5 21
s-19.334 18.834 -26.001 30.501s-11.667 23.5 -15 35.5c-2 8 -3.66699 17.833 -5 29.5s-2.16602 24.5 -2.49902 38.5l-1 42.5c-0.333008 14.333 -0.5 27.833 -0.5 40.5c0 34 1.5 65.333 4.5 94s7.5 51 13.5 67c8 22 22 41 42 57s47 24 81 24c15.333 0 30.333 -2.5 45 -7.5
s27.667 -13.167 39 -24.5h2c0 23.333 -0.666992 44.5 -2 63.5s-5.66602 38.167 -12.999 57.5l-63 -47l-26 36l68 49c-6 10 -13.833 18.5 -23.5 25.5s-20.167 12.833 -31.5 17.5s-22.833 8.33398 -34.5 11.001s-22.5 4.66699 -32.5 6l11 62
c36 -2.66699 66.167 -8.83398 90.5 -18.501s42.5 -20.167 54.5 -31.5c11.333 -10 20 -19 26 -27l61 44l26 -33l-64 -48c4.66699 -10 8.66699 -21.667 12 -35s6 -29.166 8 -47.499s3.33301 -39.5 4 -63.5s1 -51.667 1 -83v-132zM184.999 409.999
c-13.333 0 -25.5 -2.99902 -36.5 -8.99902s-19.5 -16.667 -25.5 -32c-2.66699 -6 -4.66699 -12.5 -6 -19.5s-2.5 -15.5 -3.5 -25.5s-1.66699 -21.833 -2 -35.5s-0.5 -30.5 -0.5 -50.5v-35.5c0 -12.333 0.333008 -24.5 1 -36.5s1.33398 -22.833 2.00098 -32.5
s2 -17.5 4 -23.5c9.33301 -30.667 31.333 -46 66 -46c14 0 26.333 4.16699 37 12.5s18.667 19.166 24 32.499c1.33301 3.33301 2.66602 9.33301 3.99902 18s2.5 19 3.5 31s1.66699 24.833 2 38.5s0.5 27.5 0.5 41.5c0 28 -0.333008 52.833 -1 74.5s-2.66699 38.5 -6 50.5
c-9.33301 31.333 -30.333 47 -63 47z" />
    <glyph glyph-name="ntilde" unicode="&#xf1;" horiz-adv-x="366" 
d="M114 445l2.99902 0.000976562c23.333 36 57 54 101 54c36.667 0 64.167 -11.833 82.5 -35.5s27.5 -54.5 27.5 -92.5v-371h-80v350c0 21.333 -5 38.166 -15 50.499s-26 18.5 -48 18.5c-21.333 0 -38.666 -7 -51.999 -21s-20 -32.667 -20 -56v-342h-78v494h79v-49z
M316.999 653.001c-12.667 -23.333 -26.998 -41.667 -42.998 -55s-31.333 -20 -46 -20c-10 0 -19.833 2 -29.5 6s-19 8.16699 -28 12.5l-25.5 12.5c-8 4 -16 6 -24 6c-18.667 0 -36.334 -12 -53.001 -36l-40 25c4 8.66699 9.16699 17.334 15.5 26.001
s13.166 16.667 20.499 24s15.333 13.333 24 18s17.667 7 27 7c10 0 19.333 -2 28 -6s17.5 -8.33301 26.5 -13s18.167 -9 27.5 -13s19 -6 29 -6c9.33301 0 17.833 3.16699 25.5 9.5s16.5 16.166 26.5 29.499z" />
    <glyph glyph-name="ograve" unicode="&#xf2;" horiz-adv-x="362" 
d="M186 501c28 0 50.8311 -3.66895 68.498 -11.002s31.834 -17.5 42.501 -30.5s18.334 -28.333 23.001 -46s7.66699 -36.834 9 -57.501c1.33301 -19.333 2.33301 -40 3 -62s1 -41.667 1 -59c0 -38 -2 -76 -6 -114c-3.33301 -26.667 -10 -48.334 -20 -65.001
s-22.167 -29.667 -36.5 -39s-29.833 -15.666 -46.5 -18.999s-33 -5 -49 -5c-20.667 0 -38.5 2.66699 -53.5 8s-27.833 12.333 -38.5 21s-19.334 18.834 -26.001 30.501s-11.667 23.5 -15 35.5c-2 8 -3.66699 18 -5 30s-2.16602 25.167 -2.49902 39.5l-1 43.5
c-0.333008 14.667 -0.5 28.334 -0.5 41.001c0 16.667 0.333008 33.834 1 51.501s1.66699 34.5 3 50.5s3 30.5 5 43.5s4.66699 23.5 8 31.5c9.33301 25.333 25 45.333 47 60s51.667 22 89 22zM183.998 428.998c-13.333 0 -25.499 -2.99902 -36.499 -8.99902
s-19.5 -16.667 -25.5 -32c-4 -9.33301 -6.66699 -28.833 -8 -58.5s-2.33301 -64.5 -3 -104.5c0 -22 0.333008 -43.5 1 -64.5s2.66699 -37.167 6 -48.5c9.33301 -30.667 31.333 -46 66 -46c14 0 26.333 4.16699 37 12.5s18.667 19.166 24 32.499
c1.33301 3.33301 2.66602 9.5 3.99902 18.5s2.5 19.667 3.5 32s1.66699 25.5 2 39.5s0.5 28 0.5 42s-0.166992 27.833 -0.5 41.5l-1 39.5c-0.333008 12.667 -1 24 -2 34s-2.5 18 -4.5 24c-9.33301 31.333 -30.333 47 -63 47zM161.999 555.999l-96 160l71 25l68 -168z" />
    <glyph glyph-name="oacute" unicode="&#xf3;" horiz-adv-x="362" 
d="M186 501c28 0 50.8311 -3.66895 68.498 -11.002s31.834 -17.5 42.501 -30.5s18.334 -28.333 23.001 -46s7.66699 -36.834 9 -57.501c1.33301 -19.333 2.33301 -40 3 -62s1 -41.667 1 -59c0 -38 -2 -76 -6 -114c-3.33301 -26.667 -10 -48.334 -20 -65.001
s-22.167 -29.667 -36.5 -39s-29.833 -15.666 -46.5 -18.999s-33 -5 -49 -5c-20.667 0 -38.5 2.66699 -53.5 8s-27.833 12.333 -38.5 21s-19.334 18.834 -26.001 30.501s-11.667 23.5 -15 35.5c-2 8 -3.66699 18 -5 30s-2.16602 25.167 -2.49902 39.5l-1 43.5
c-0.333008 14.667 -0.5 28.334 -0.5 41.001c0 16.667 0.333008 33.834 1 51.501s1.66699 34.5 3 50.5s3 30.5 5 43.5s4.66699 23.5 8 31.5c9.33301 25.333 25 45.333 47 60s51.667 22 89 22zM183.998 428.998c-13.333 0 -25.499 -2.99902 -36.499 -8.99902
s-19.5 -16.667 -25.5 -32c-4 -9.33301 -6.66699 -28.833 -8 -58.5s-2.33301 -64.5 -3 -104.5c0 -22 0.333008 -43.5 1 -64.5s2.66699 -37.167 6 -48.5c9.33301 -30.667 31.333 -46 66 -46c14 0 26.333 4.16699 37 12.5s18.667 19.166 24 32.499
c1.33301 3.33301 2.66602 9.5 3.99902 18.5s2.5 19.667 3.5 32s1.66699 25.5 2 39.5s0.5 28 0.5 42s-0.166992 27.833 -0.5 41.5l-1 39.5c-0.333008 12.667 -1 24 -2 34s-2.5 18 -4.5 24c-9.33301 31.333 -30.333 47 -63 47zM135.999 572.999l68 168l71 -25l-96 -160z" />
    <glyph glyph-name="ocircumflex" unicode="&#xf4;" horiz-adv-x="362" 
d="M186 501c28 0 50.8311 -3.66895 68.498 -11.002s31.834 -17.5 42.501 -30.5s18.334 -28.333 23.001 -46s7.66699 -36.834 9 -57.501c1.33301 -19.333 2.33301 -40 3 -62s1 -41.667 1 -59c0 -38 -2 -76 -6 -114c-3.33301 -26.667 -10 -48.334 -20 -65.001
s-22.167 -29.667 -36.5 -39s-29.833 -15.666 -46.5 -18.999s-33 -5 -49 -5c-20.667 0 -38.5 2.66699 -53.5 8s-27.833 12.333 -38.5 21s-19.334 18.834 -26.001 30.501s-11.667 23.5 -15 35.5c-2 8 -3.66699 18 -5 30s-2.16602 25.167 -2.49902 39.5l-1 43.5
c-0.333008 14.667 -0.5 28.334 -0.5 41.001c0 16.667 0.333008 33.834 1 51.501s1.66699 34.5 3 50.5s3 30.5 5 43.5s4.66699 23.5 8 31.5c9.33301 25.333 25 45.333 47 60s51.667 22 89 22zM183.998 428.998c-13.333 0 -25.499 -2.99902 -36.499 -8.99902
s-19.5 -16.667 -25.5 -32c-4 -9.33301 -6.66699 -28.833 -8 -58.5s-2.33301 -64.5 -3 -104.5c0 -22 0.333008 -43.5 1 -64.5s2.66699 -37.167 6 -48.5c9.33301 -30.667 31.333 -46 66 -46c14 0 26.333 4.16699 37 12.5s18.667 19.166 24 32.499
c1.33301 3.33301 2.66602 9.5 3.99902 18.5s2.5 19.667 3.5 32s1.66699 25.5 2 39.5s0.5 28 0.5 42s-0.166992 27.833 -0.5 41.5l-1 39.5c-0.333008 12.667 -1 24 -2 34s-2.5 18 -4.5 24c-9.33301 31.333 -30.333 47 -63 47zM181.999 645.999l-116 -94l-34 28l130 139h47
l123 -137l-34 -30z" />
    <glyph glyph-name="otilde" unicode="&#xf5;" horiz-adv-x="362" 
d="M186 501c28 0 50.8311 -3.66895 68.498 -11.002s31.834 -17.5 42.501 -30.5s18.334 -28.333 23.001 -46s7.66699 -36.834 9 -57.501c1.33301 -19.333 2.33301 -40 3 -62s1 -41.667 1 -59c0 -38 -2 -76 -6 -114c-3.33301 -26.667 -10 -48.334 -20 -65.001
s-22.167 -29.667 -36.5 -39s-29.833 -15.666 -46.5 -18.999s-33 -5 -49 -5c-20.667 0 -38.5 2.66699 -53.5 8s-27.833 12.333 -38.5 21s-19.334 18.834 -26.001 30.501s-11.667 23.5 -15 35.5c-2 8 -3.66699 18 -5 30s-2.16602 25.167 -2.49902 39.5l-1 43.5
c-0.333008 14.667 -0.5 28.334 -0.5 41.001c0 16.667 0.333008 33.834 1 51.501s1.66699 34.5 3 50.5s3 30.5 5 43.5s4.66699 23.5 8 31.5c9.33301 25.333 25 45.333 47 60s51.667 22 89 22zM183.998 428.998c-13.333 0 -25.499 -2.99902 -36.499 -8.99902
s-19.5 -16.667 -25.5 -32c-4 -9.33301 -6.66699 -28.833 -8 -58.5s-2.33301 -64.5 -3 -104.5c0 -22 0.333008 -43.5 1 -64.5s2.66699 -37.167 6 -48.5c9.33301 -30.667 31.333 -46 66 -46c14 0 26.333 4.16699 37 12.5s18.667 19.166 24 32.499
c1.33301 3.33301 2.66602 9.5 3.99902 18.5s2.5 19.667 3.5 32s1.66699 25.5 2 39.5s0.5 28 0.5 42s-0.166992 27.833 -0.5 41.5l-1 39.5c-0.333008 12.667 -1 24 -2 34s-2.5 18 -4.5 24c-9.33301 31.333 -30.333 47 -63 47zM326.999 652.999
c-12.667 -23.333 -26.998 -41.667 -42.998 -55s-31.333 -20 -46 -20c-10 0 -19.833 2 -29.5 6s-19 8.16699 -28 12.5l-25.5 12.5c-8 4 -16 6 -24 6c-18.667 0 -36.334 -12 -53.001 -36l-40 25c4 8.66699 9.16699 17.334 15.5 26.001s13.166 16.667 20.499 24
s15.333 13.333 24 18s17.667 7 27 7c10 0 19.333 -2 28 -6s17.5 -8.33301 26.5 -13s18.167 -9 27.5 -13s19 -6 29 -6c9.33301 0 17.833 3.16699 25.5 9.5s16.5 16.166 26.5 29.499z" />
    <glyph glyph-name="odieresis" unicode="&#xf6;" horiz-adv-x="362" 
d="M186 501c28 0 50.8311 -3.66895 68.498 -11.002s31.834 -17.5 42.501 -30.5s18.334 -28.333 23.001 -46s7.66699 -36.834 9 -57.501c1.33301 -19.333 2.33301 -40 3 -62s1 -41.667 1 -59c0 -38 -2 -76 -6 -114c-3.33301 -26.667 -10 -48.334 -20 -65.001
s-22.167 -29.667 -36.5 -39s-29.833 -15.666 -46.5 -18.999s-33 -5 -49 -5c-20.667 0 -38.5 2.66699 -53.5 8s-27.833 12.333 -38.5 21s-19.334 18.834 -26.001 30.501s-11.667 23.5 -15 35.5c-2 8 -3.66699 18 -5 30s-2.16602 25.167 -2.49902 39.5l-1 43.5
c-0.333008 14.667 -0.5 28.334 -0.5 41.001c0 16.667 0.333008 33.834 1 51.501s1.66699 34.5 3 50.5s3 30.5 5 43.5s4.66699 23.5 8 31.5c9.33301 25.333 25 45.333 47 60s51.667 22 89 22zM183.998 428.998c-13.333 0 -25.499 -2.99902 -36.499 -8.99902
s-19.5 -16.667 -25.5 -32c-4 -9.33301 -6.66699 -28.833 -8 -58.5s-2.33301 -64.5 -3 -104.5c0 -22 0.333008 -43.5 1 -64.5s2.66699 -37.167 6 -48.5c9.33301 -30.667 31.333 -46 66 -46c14 0 26.333 4.16699 37 12.5s18.667 19.166 24 32.499
c1.33301 3.33301 2.66602 9.5 3.99902 18.5s2.5 19.667 3.5 32s1.66699 25.5 2 39.5s0.5 28 0.5 42s-0.166992 27.833 -0.5 41.5l-1 39.5c-0.333008 12.667 -1 24 -2 34s-2.5 18 -4.5 24c-9.33301 31.333 -30.333 47 -63 47zM229.999 588.999v80h68v-80h-68zM75.999 588.999
v80h69v-80h-69z" />
    <glyph glyph-name="divide" unicode="&#xf7;" horiz-adv-x="380" 
d="M243 453c0 -14.667 -5.16699 -27.167 -15.5 -37.5s-22.5 -15.5 -36.5 -15.5c-14.667 0 -27.167 5.16699 -37.5 15.5s-15.5 22.833 -15.5 37.5s5.16699 27.167 15.5 37.5s22.833 15.5 37.5 15.5c14 0 26.167 -5.16699 36.5 -15.5s15.5 -22.833 15.5 -37.5zM9 264v61h362
v-61h-362zM191 187c14 0 26.167 -5.16699 36.5 -15.5s15.5 -22.833 15.5 -37.5s-5.16699 -27.167 -15.5 -37.5s-22.5 -15.5 -36.5 -15.5c-14.667 0 -27.167 5.16699 -37.5 15.5s-15.5 22.833 -15.5 37.5s5.16699 27.167 15.5 37.5s22.833 15.5 37.5 15.5z" />
    <glyph glyph-name="oslash" unicode="&#xf8;" horiz-adv-x="362" 
d="M186 501c21.333 0 39.667 -2.33496 55 -7.00195s28.333 -11 39 -19l14 27l34 -18l-21 -40c6.66699 -12 11.667 -25.5 15 -40.5s5.66602 -30.833 6.99902 -47.5c1.33301 -19.333 2.33301 -40 3 -62s1 -41.667 1 -59c0 -38 -2 -76 -6 -114
c-3.33301 -26.667 -10 -48.334 -20 -65.001s-22.167 -29.667 -36.5 -39s-29.833 -15.666 -46.5 -18.999s-33 -5 -49 -5c-20.667 0 -38.5 2.5 -53.5 7.5s-27.833 12.167 -38.5 21.5l-17 -32l-31 18l22 43c-6.66699 10.667 -11.667 23 -15 37c-2 8 -3.66699 18 -5 30
s-2.16602 25.167 -2.49902 39.5l-1 43.5c-0.333008 14.667 -0.5 28.334 -0.5 41.001c0 16.667 0.333008 33.834 1 51.501s1.66699 34.5 3 50.5s3 30.5 5 43.5s4.66699 23.5 8 31.5c9.33301 25.333 25 45.333 47 60s51.667 22 89 22zM255.001 242.998
c0 17.333 -0.166016 34.501 -0.499023 51.501s-1.16602 32.833 -2.49902 47.5l-129 -244c11.333 -21.333 31.666 -32 60.999 -32c14 0 26.333 4.16699 37 12.5s18.667 19.166 24 32.499c1.33301 3.33301 2.66602 9.5 3.99902 18.5s2.5 19.667 3.5 32s1.66699 25.5 2 39.5
s0.5 28 0.5 42zM184.002 428.999c-13.333 0 -25.5 -3 -36.5 -9s-19.5 -16.667 -25.5 -32c-4 -9.33301 -6.66699 -28.833 -8 -58.5s-2.33301 -64.5 -3 -104.5v-36c0 -12 0.333008 -23.333 1 -34l128 244c-12 20 -30.667 30 -56 30z" />
    <glyph glyph-name="ugrave" unicode="&#xf9;" horiz-adv-x="369" 
d="M250 50h-3c-23.333 -36 -57 -54 -101 -54c-36.667 0 -64.167 11.833 -82.5 35.5s-27.5 54.5 -27.5 92.5v371h80v-350c0 -48.667 21.333 -73 64 -73c19.333 0 36 7 50 21s21 32.667 21 56v346h78v-494h-79v49zM166 556l-96 160l71 25l68 -168z" />
    <glyph glyph-name="uacute" unicode="&#xfa;" horiz-adv-x="369" 
d="M250 50h-3c-23.333 -36 -57 -54 -101 -54c-36.667 0 -64.167 11.833 -82.5 35.5s-27.5 54.5 -27.5 92.5v371h80v-350c0 -48.667 21.333 -73 64 -73c19.333 0 36 7 50 21s21 32.667 21 56v346h78v-494h-79v49zM172 573l68 168l71 -25l-96 -160z" />
    <glyph glyph-name="ucircumflex" unicode="&#xfb;" horiz-adv-x="369" 
d="M250 50h-3c-23.333 -36 -57 -54 -101 -54c-36.667 0 -64.167 11.833 -82.5 35.5s-27.5 54.5 -27.5 92.5v371h80v-350c0 -48.667 21.333 -73 64 -73c19.333 0 36 7 50 21s21 32.667 21 56v346h78v-494h-79v49zM180 646l-116 -94l-34 28l130 139h47l123 -137l-34 -30z" />
    <glyph glyph-name="udieresis" unicode="&#xfc;" horiz-adv-x="369" 
d="M250 50h-3c-23.333 -36 -57 -54 -101 -54c-36.667 0 -64.167 11.833 -82.5 35.5s-27.5 54.5 -27.5 92.5v371h80v-350c0 -48.667 21.333 -73 64 -73c19.333 0 36 7 50 21s21 32.667 21 56v346h78v-494h-79v49zM225 589v80h68v-80h-68zM71 589v80h69v-80h-69z" />
    <glyph glyph-name="yacute" unicode="&#xfd;" horiz-adv-x="336" 
d="M191 -83c-8 -33.333 -20.667 -60.166 -38 -80.499s-43.666 -30.5 -78.999 -30.5h-30v68h20c18.667 0 32.167 6.16699 40.5 18.5s16.166 35.166 23.499 68.499l8 35l-131 498h84l42 -189l40 -171h3l37 173l41 187h81zM138 573l68 168l71 -25l-96 -160z" />
    <glyph glyph-name="thorn" unicode="&#xfe;" horiz-adv-x="364" 
d="M205 501c8.66699 0 19.3311 -1.16895 31.998 -3.50195s24.834 -7.66602 36.501 -15.999s22.167 -20.5 31.5 -36.5s15.666 -37.667 18.999 -65c2 -20 3.16699 -41 3.5 -63s0.5 -42.667 0.5 -62c0 -36 -0.833008 -69.833 -2.5 -101.5s-6.66699 -59.167 -15 -82.5
s-21.166 -41.833 -38.499 -55.5s-41.666 -20.5 -72.999 -20.5c-19.333 0 -36 3.5 -50 10.5s-25.667 17.167 -35 30.5h-2v-228h-79v887h79v-238l2 -1c10.667 14.667 22 25.834 34 33.501s31 11.5 57 11.5zM177.997 423.998c-22 0 -38.667 -7.33301 -50 -22
s-17 -33.334 -17 -56.001v-196c0 -23.333 5.33301 -42 16 -56s27.667 -21 51 -21c14.667 0 26.5 2.83301 35.5 8.5s16 15.5 21 29.5s8.5 32.5 10.5 55.5s3 51.5 3 85.5c0 30.667 -0.5 56.834 -1.5 78.501s-3.83301 39.5 -8.5 53.5s-11.667 24.167 -21 30.5
s-22.333 9.5 -39 9.5z" />
    <glyph glyph-name="ydieresis" unicode="&#xff;" horiz-adv-x="336" 
d="M191 -83c-8 -33.333 -20.667 -60.166 -38 -80.499s-43.666 -30.5 -78.999 -30.5h-30v68h20c18.667 0 32.167 6.16699 40.5 18.5s16.166 35.166 23.499 68.499l8 35l-131 498h84l42 -189l40 -171h3l37 173l41 187h81zM208 589v80h68v-80h-68zM54 589v80h69v-80h-69z" />
    <glyph glyph-name="Amacron" unicode="&#x100;" horiz-adv-x="395" 
d="M307 0l-32 155h-155l-31 -155h-76l148 696h74l150 -696h-78zM195 554l-29 -162l-33 -163h128l-34 165l-28 160h-4zM78 752v67h239v-67h-239z" />
    <glyph glyph-name="amacron" unicode="&#x101;" horiz-adv-x="361" 
d="M239 43c-13.333 -18 -28.5 -30.668 -45.5 -38.001s-36.167 -11 -57.5 -11c-20.667 0 -38 4.16699 -52 12.5s-25.167 19.333 -33.5 33s-14.333 29 -18 46s-5.5 34.5 -5.5 52.5c0 18.667 2 37.334 6 56.001s11 35.667 21 51s23.667 27.833 41 37.5s39.666 14.5 66.999 14.5
h78v66c0 19.333 -4.5 34.666 -13.5 45.999s-26.167 17 -51.5 17c-13.333 0 -26.333 -4 -39 -12s-20.667 -21 -24 -39l-75 21c7.33301 32.667 23.333 58.334 48 77.001s56 28 94 28c44.667 0 79.334 -10.167 104.001 -30.5s37 -55.833 37 -106.5v-364h-80v43h-1zM240 227.999
l-57.999 -0.000976562c-20.667 0 -38.834 -6.16699 -54.501 -18.5s-23.5 -34.5 -23.5 -66.5c0 -23.333 5 -41.166 15 -53.499s25.667 -18.5 47 -18.5c24.667 0 43.167 7 55.5 21s18.5 33.333 18.5 58v78zM71.001 587.998v67h239v-67h-239z" />
    <glyph glyph-name="Abreve" unicode="&#x102;" horiz-adv-x="395" 
d="M307 0l-32 155h-155l-31 -155h-76l148 696h74l150 -696h-78zM195 554l-29 -162l-33 -163h128l-34 165l-28 160h-4zM131 875c0.666992 -6.66699 2.66699 -13.667 6 -21s7.83301 -14.166 13.5 -20.499s12.5 -11.5 20.5 -15.5s17 -6 27 -6c10.667 0 20.167 2 28.5 6
s15.5 9.16699 21.5 15.5s10.5 13.166 13.5 20.499s4.5 14.333 4.5 21h63c-1.33301 -12.667 -4.66602 -26.167 -9.99902 -40.5s-13.333 -27.5 -24 -39.5s-24 -22 -40 -30s-35 -12 -57 -12c-24.667 0 -45.334 4 -62.001 12s-30.167 18 -40.5 30s-17.833 25.167 -22.5 39.5
s-7 27.833 -7 40.5h65z" />
    <glyph glyph-name="abreve" unicode="&#x103;" horiz-adv-x="361" 
d="M239 43c-13.333 -18 -28.5 -30.668 -45.5 -38.001s-36.167 -11 -57.5 -11c-20.667 0 -38 4.16699 -52 12.5s-25.167 19.333 -33.5 33s-14.333 29 -18 46s-5.5 34.5 -5.5 52.5c0 18.667 2 37.334 6 56.001s11 35.667 21 51s23.667 27.833 41 37.5s39.666 14.5 66.999 14.5
h78v66c0 19.333 -4.5 34.666 -13.5 45.999s-26.167 17 -51.5 17c-13.333 0 -26.333 -4 -39 -12s-20.667 -21 -24 -39l-75 21c7.33301 32.667 23.333 58.334 48 77.001s56 28 94 28c44.667 0 79.334 -10.167 104.001 -30.5s37 -55.833 37 -106.5v-364h-80v43h-1zM240 227.999
l-57.999 -0.000976562c-20.667 0 -38.834 -6.16699 -54.501 -18.5s-23.5 -34.5 -23.5 -66.5c0 -23.333 5 -41.166 15 -53.499s25.667 -18.5 47 -18.5c24.667 0 43.167 7 55.5 21s18.5 33.333 18.5 58v78zM112.001 689.998c0.666992 -6.66699 2.66699 -13.667 6 -21
s7.83301 -14.166 13.5 -20.499s12.5 -11.5 20.5 -15.5s17 -6 27 -6c10.667 0 20.167 2 28.5 6s15.5 9.16699 21.5 15.5s10.5 13.166 13.5 20.499s4.5 14.333 4.5 21h63c-1.33301 -12.667 -4.66602 -26.167 -9.99902 -40.5s-13.333 -27.5 -24 -39.5s-24 -22 -40 -30
s-35 -12 -57 -12c-24.667 0 -45.334 4 -62.001 12s-30.167 18 -40.5 30s-17.833 25.167 -22.5 39.5s-7 27.833 -7 40.5h65z" />
    <glyph glyph-name="Aogonek" unicode="&#x104;" horiz-adv-x="395" 
d="M274 -92c0 13.333 2.33008 27.3301 6.99707 41.9971s13.334 31.334 26.001 50.001l-32 155h-155l-31 -155h-76l148 696h74l150 -696h-27c-9.33301 -15.333 -16.5 -29.166 -21.5 -41.499s-7.5 -24.166 -7.5 -35.499c0 -17.333 3.83301 -29 11.5 -35s17.834 -9 30.501 -9
c7.33301 0 15 1 23 3s17 5.66699 27 11l17 -48c-11.333 -7.33301 -24.166 -13.333 -38.499 -18s-28.166 -7 -41.499 -7c-24.667 0 -44.834 7.66699 -60.501 23s-23.5 37 -23.5 65zM194.997 553.997l-29 -162l-33 -163h128l-34 165l-28 160h-4z" />
    <glyph glyph-name="aogonek" unicode="&#x105;" horiz-adv-x="361" 
d="M205 -92c0 13.333 2.49805 27.4971 7.49805 42.4971s13.833 32.167 26.5 51.5h1v41h-1c-13.333 -18 -28.5 -30.667 -45.5 -38s-36.167 -11 -57.5 -11c-20.667 0 -38 4.16699 -52 12.5s-25.167 19.333 -33.5 33s-14.333 29 -18 46s-5.5 34.5 -5.5 52.5
c0 18.667 2 37.334 6 56.001s11 35.667 21 51s23.667 27.833 41 37.5s39.666 14.5 66.999 14.5h78v66c0 19.333 -4.5 34.666 -13.5 45.999s-26.167 17 -51.5 17c-13.333 0 -26.333 -4 -39 -12s-20.667 -21 -24 -39l-75 21c7.33301 32.667 23.333 58.334 48 77.001
s56 28 94 28c44.667 0 79.334 -10.167 104.001 -30.5s37 -55.833 37 -106.5v-364h-31c-9.33301 -15.333 -16.5 -29.166 -21.5 -41.499s-7.5 -24.166 -7.5 -35.499c0 -17.333 3.83301 -29 11.5 -35s17.834 -9 30.501 -9c7.33301 0 15 1 23 3s17 5.66699 27 11l17 -48
c-11.333 -7.33301 -24.166 -13.333 -38.499 -18s-28.166 -7 -41.499 -7c-24.667 0 -44.834 7.66699 -60.501 23s-23.5 37 -23.5 65zM239.998 227.997l-57.999 -0.000976562c-20.667 0 -38.834 -6.16699 -54.501 -18.5s-23.5 -34.5 -23.5 -66.5
c0 -23.333 5 -41.166 15 -53.499s25.667 -18.5 47 -18.5c24.667 0 43.167 7 55.5 21s18.5 33.333 18.5 58v78z" />
    <glyph glyph-name="Cacute" unicode="&#x106;" horiz-adv-x="384" 
d="M204 702c54 0 93.167 -14.665 117.5 -43.998s36.5 -67.666 36.5 -114.999l-79 -14c0.666992 30.667 -4.83301 55 -16.5 73s-31.5 27 -59.5 27c-16 0 -29 -3.66699 -39 -11s-17.833 -16.5 -23.5 -27.5s-9.5 -23.167 -11.5 -36.5s-3 -26 -3 -38v-351
c0 -10 1 -20.833 3 -32.5s5.83301 -22.334 11.5 -32.001s13.334 -17.834 23.001 -24.501s22.5 -10 38.5 -10c26 0 45.167 8 57.5 24s18.833 41.333 19.5 76l81 -14c-1.33301 -50 -14.833 -89 -40.5 -117s-64.167 -42 -115.5 -42c-52.667 0 -92 14.667 -118 44
s-39 70.666 -39 123.999v344c0 24.667 2.16699 48.834 6.5 72.501s12.166 44.667 23.499 63s27.333 33.166 48 44.499s47 17 79 17zM162 753.002l142 113l49 -57l-162 -92z" />
    <glyph glyph-name="cacute" unicode="&#x107;" horiz-adv-x="334" 
d="M173 -7c-20.667 0 -38.501 2.66406 -53.501 7.99707s-27.833 12.333 -38.5 21s-19.167 18.834 -25.5 30.501s-11.166 23.5 -14.499 35.5c-2 8 -3.66699 18 -5 30s-2.16602 25.167 -2.49902 39.5l-1 43.5c-0.333008 14.667 -0.5 28.334 -0.5 41.001
c0 16.667 0.333008 33.834 1 51.501s1.5 34.5 2.5 50.5s2.5 30.5 4.5 43.5s4.66699 23.5 8 31.5c9.33301 25.333 24.666 45.333 45.999 60s50.666 22 87.999 22c49.333 0 84.5 -13.167 105.5 -39.5s31.5 -61.833 31.5 -106.5l-82 -11c0 30 -5.16699 51.667 -15.5 65
s-24.5 20 -42.5 20c-13.333 0 -24.833 -3 -34.5 -9s-17.5 -16.667 -23.5 -32c-4 -10 -6.66699 -29.667 -8 -59s-2.33301 -64 -3 -104c0 -22 0.333008 -43.5 1 -64.5s2.66699 -37.167 6 -48.5c4.66699 -14.667 11.834 -26.167 21.501 -34.5s23.167 -12.5 40.5 -12.5
c20.667 0 35.5 7.33301 44.5 22s13.5 34.667 13.5 60l81 -14c-1.33301 -45.333 -13.5 -80 -36.5 -104s-59.167 -36 -108.5 -36zM135.999 572.997l68 168l71 -25l-96 -160z" />
    <glyph glyph-name="Ccircumflex" unicode="&#x108;" horiz-adv-x="384" 
d="M204 702c54 0 93.167 -14.665 117.5 -43.998s36.5 -67.666 36.5 -114.999l-79 -14c0.666992 30.667 -4.83301 55 -16.5 73s-31.5 27 -59.5 27c-16 0 -29 -3.66699 -39 -11s-17.833 -16.5 -23.5 -27.5s-9.5 -23.167 -11.5 -36.5s-3 -26 -3 -38v-351
c0 -10 1 -20.833 3 -32.5s5.83301 -22.334 11.5 -32.001s13.334 -17.834 23.001 -24.501s22.5 -10 38.5 -10c26 0 45.167 8 57.5 24s18.833 41.333 19.5 76l81 -14c-1.33301 -50 -14.833 -89 -40.5 -117s-64.167 -42 -115.5 -42c-52.667 0 -92 14.667 -118 44
s-39 70.666 -39 123.999v344c0 24.667 2.16699 48.834 6.5 72.501s12.166 44.667 23.499 63s27.333 33.166 48 44.499s47 17 79 17zM207 801.002l-116 -74l-34 28l130 119h47l123 -117l-34 -30z" />
    <glyph glyph-name="ccircumflex" unicode="&#x109;" horiz-adv-x="334" 
d="M173 -7c-20.667 0 -38.501 2.66406 -53.501 7.99707s-27.833 12.333 -38.5 21s-19.167 18.834 -25.5 30.501s-11.166 23.5 -14.499 35.5c-2 8 -3.66699 18 -5 30s-2.16602 25.167 -2.49902 39.5l-1 43.5c-0.333008 14.667 -0.5 28.334 -0.5 41.001
c0 16.667 0.333008 33.834 1 51.501s1.5 34.5 2.5 50.5s2.5 30.5 4.5 43.5s4.66699 23.5 8 31.5c9.33301 25.333 24.666 45.333 45.999 60s50.666 22 87.999 22c49.333 0 84.5 -13.167 105.5 -39.5s31.5 -61.833 31.5 -106.5l-82 -11c0 30 -5.16699 51.667 -15.5 65
s-24.5 20 -42.5 20c-13.333 0 -24.833 -3 -34.5 -9s-17.5 -16.667 -23.5 -32c-4 -10 -6.66699 -29.667 -8 -59s-2.33301 -64 -3 -104c0 -22 0.333008 -43.5 1 -64.5s2.66699 -37.167 6 -48.5c4.66699 -14.667 11.834 -26.167 21.501 -34.5s23.167 -12.5 40.5 -12.5
c20.667 0 35.5 7.33301 44.5 22s13.5 34.667 13.5 60l81 -14c-1.33301 -45.333 -13.5 -80 -36.5 -104s-59.167 -36 -108.5 -36zM179.999 645.997l-116 -94l-34 28l130 139h47l123 -137l-34 -30z" />
    <glyph glyph-name="Cdotaccent" unicode="&#x10a;" horiz-adv-x="384" 
d="M204 702c54 0 93.167 -14.665 117.5 -43.998s36.5 -67.666 36.5 -114.999l-79 -14c0.666992 30.667 -4.83301 55 -16.5 73s-31.5 27 -59.5 27c-16 0 -29 -3.66699 -39 -11s-17.833 -16.5 -23.5 -27.5s-9.5 -23.167 -11.5 -36.5s-3 -26 -3 -38v-351
c0 -10 1 -20.833 3 -32.5s5.83301 -22.334 11.5 -32.001s13.334 -17.834 23.001 -24.501s22.5 -10 38.5 -10c26 0 45.167 8 57.5 24s18.833 41.333 19.5 76l81 -14c-1.33301 -50 -14.833 -89 -40.5 -117s-64.167 -42 -115.5 -42c-52.667 0 -92 14.667 -118 44
s-39 70.666 -39 123.999v344c0 24.667 2.16699 48.834 6.5 72.501s12.166 44.667 23.499 63s27.333 33.166 48 44.499s47 17 79 17zM173 752.002v80h68v-80h-68z" />
    <glyph glyph-name="cdotaccent" unicode="&#x10b;" horiz-adv-x="334" 
d="M173 -7c-20.667 0 -38.501 2.66406 -53.501 7.99707s-27.833 12.333 -38.5 21s-19.167 18.834 -25.5 30.501s-11.166 23.5 -14.499 35.5c-2 8 -3.66699 18 -5 30s-2.16602 25.167 -2.49902 39.5l-1 43.5c-0.333008 14.667 -0.5 28.334 -0.5 41.001
c0 16.667 0.333008 33.834 1 51.501s1.5 34.5 2.5 50.5s2.5 30.5 4.5 43.5s4.66699 23.5 8 31.5c9.33301 25.333 24.666 45.333 45.999 60s50.666 22 87.999 22c49.333 0 84.5 -13.167 105.5 -39.5s31.5 -61.833 31.5 -106.5l-82 -11c0 30 -5.16699 51.667 -15.5 65
s-24.5 20 -42.5 20c-13.333 0 -24.833 -3 -34.5 -9s-17.5 -16.667 -23.5 -32c-4 -10 -6.66699 -29.667 -8 -59s-2.33301 -64 -3 -104c0 -22 0.333008 -43.5 1 -64.5s2.66699 -37.167 6 -48.5c4.66699 -14.667 11.834 -26.167 21.501 -34.5s23.167 -12.5 40.5 -12.5
c20.667 0 35.5 7.33301 44.5 22s13.5 34.667 13.5 60l81 -14c-1.33301 -45.333 -13.5 -80 -36.5 -104s-59.167 -36 -108.5 -36zM147.999 601.997v80h68v-80h-68z" />
    <glyph glyph-name="Ccaron" unicode="&#x10c;" horiz-adv-x="384" 
d="M204 702c54 0 93.167 -14.665 117.5 -43.998s36.5 -67.666 36.5 -114.999l-79 -14c0.666992 30.667 -4.83301 55 -16.5 73s-31.5 27 -59.5 27c-16 0 -29 -3.66699 -39 -11s-17.833 -16.5 -23.5 -27.5s-9.5 -23.167 -11.5 -36.5s-3 -26 -3 -38v-351
c0 -10 1 -20.833 3 -32.5s5.83301 -22.334 11.5 -32.001s13.334 -17.834 23.001 -24.501s22.5 -10 38.5 -10c26 0 45.167 8 57.5 24s18.833 41.333 19.5 76l81 -14c-1.33301 -50 -14.833 -89 -40.5 -117s-64.167 -42 -115.5 -42c-52.667 0 -92 14.667 -118 44
s-39 70.666 -39 123.999v344c0 24.667 2.16699 48.834 6.5 72.501s12.166 44.667 23.499 63s27.333 33.166 48 44.499s47 17 79 17zM323 875.002l34 -30l-123 -117h-47l-130 119l34 28l116 -74z" />
    <glyph glyph-name="ccaron" unicode="&#x10d;" horiz-adv-x="334" 
d="M173 -7c-20.667 0 -38.501 2.66406 -53.501 7.99707s-27.833 12.333 -38.5 21s-19.167 18.834 -25.5 30.501s-11.166 23.5 -14.499 35.5c-2 8 -3.66699 18 -5 30s-2.16602 25.167 -2.49902 39.5l-1 43.5c-0.333008 14.667 -0.5 28.334 -0.5 41.001
c0 16.667 0.333008 33.834 1 51.501s1.5 34.5 2.5 50.5s2.5 30.5 4.5 43.5s4.66699 23.5 8 31.5c9.33301 25.333 24.666 45.333 45.999 60s50.666 22 87.999 22c49.333 0 84.5 -13.167 105.5 -39.5s31.5 -61.833 31.5 -106.5l-82 -11c0 30 -5.16699 51.667 -15.5 65
s-24.5 20 -42.5 20c-13.333 0 -24.833 -3 -34.5 -9s-17.5 -16.667 -23.5 -32c-4 -10 -6.66699 -29.667 -8 -59s-2.33301 -64 -3 -104c0 -22 0.333008 -43.5 1 -64.5s2.66699 -37.167 6 -48.5c4.66699 -14.667 11.834 -26.167 21.501 -34.5s23.167 -12.5 40.5 -12.5
c20.667 0 35.5 7.33301 44.5 22s13.5 34.667 13.5 60l81 -14c-1.33301 -45.333 -13.5 -80 -36.5 -104s-59.167 -36 -108.5 -36zM297.999 719.997l34 -30l-123 -137h-47l-130 139l34 28l116 -94z" />
    <glyph glyph-name="Dcaron" unicode="&#x10e;" horiz-adv-x="423" 
d="M215 696c41.333 0 74.001 -7.16699 98.001 -21.5s40.667 -38.5 50 -72.5c7.33301 -28 11 -62.667 11 -104v-149v-145.5c0 -39.667 -4.33301 -73.167 -13 -100.5c-12.667 -39.333 -32.834 -66.333 -60.501 -81s-59.167 -22 -94.5 -22h-153v696h162zM294.001 522
c0 31.333 -6.66699 56 -20 74s-37 27 -71 27h-71v-551h71c32.667 0 56 9 70 27s21 43.667 21 77v346zM313.001 875l34 -30l-123 -117h-47l-130 119l34 28l116 -74z" />
    <glyph glyph-name="dcaron" unicode="&#x10f;" horiz-adv-x="476" 
d="M417 540h-44l24 89h-21v97h86v-95zM153 -6c-9.33301 0 -20.1631 1.16895 -32.4961 3.50195s-24.333 7.66602 -36 15.999s-22.334 20.5 -32.001 36.5s-15.834 37.667 -18.501 65c-2 20 -3.16699 41 -3.5 63s-0.5 42.667 -0.5 62c0 36 0.833008 69.833 2.5 101.5
s6.66699 59.167 15 82.5s21.166 41.833 38.499 55.5s41.666 20.5 72.999 20.5c19.333 0 36 -3.5 50 -10.5s25.667 -17.167 35 -30.5h2v267h79v-726h-79v38l-2 1c-10.667 -14.667 -22 -25.834 -34 -33.501s-31 -11.5 -57 -11.5zM180.003 71.002c22 0 38.667 7.33301 50 22
s17 33.334 17 56.001v196c0 23.333 -5.33301 42 -16 56s-27.667 21 -51 21c-14.667 0 -26.5 -2.83301 -35.5 -8.5s-16 -15.5 -21 -29.5s-8.5 -32.5 -10.5 -55.5s-3 -51.5 -3 -85.5c0 -30.667 0.5 -56.834 1.5 -78.501s3.83301 -39.5 8.5 -53.5s11.667 -24.167 21 -30.5
s22.333 -9.5 39 -9.5z" />
    <glyph glyph-name="Dcroat" unicode="&#x110;" horiz-adv-x="423" 
d="M6 391h47.001v305h162c41.333 0 74 -7.16699 98 -21.5s40.667 -38.5 50 -72.5c7.33301 -28 11 -62.667 11 -104v-149v-145.5c0 -39.667 -4.33301 -73.167 -13 -100.5c-12.667 -39.333 -32.834 -66.333 -60.501 -81s-59.167 -22 -94.5 -22h-153v331h-47v60zM294.001 522
c0 31.333 -6.66699 56 -20 74s-37 27 -71 27h-71v-232h69v-60h-69v-259h71c32.667 0 56 9 70 27s21 43.667 21 77v346z" />
    <glyph glyph-name="dcroat" unicode="&#x111;" horiz-adv-x="369" 
d="M175 641l71.0029 0.00195312v85h79v-85h45v-60h-45v-581h-79v38l-2 1c-10.667 -14.667 -22 -25.834 -34 -33.501s-31 -11.5 -57 -11.5c-9.33301 0 -20.166 1.16699 -32.499 3.5s-24.333 7.66602 -36 15.999s-22.334 20.5 -32.001 36.5s-15.834 37.667 -18.501 65
c-2 20 -3.16699 41 -3.5 63s-0.5 42.667 -0.5 62c0 36 0.833008 69.833 2.5 101.5s6.66699 59.167 15 82.5s21.166 41.833 38.499 55.5s41.666 20.5 72.999 20.5c19.333 0 36 -3.5 50 -10.5s25.667 -17.167 35 -30.5h2v122h-71v60zM180.003 71.002
c22 0 38.667 7.33301 50 22s17 33.334 17 56.001v196c0 23.333 -5.33301 42 -16 56s-27.667 21 -51 21c-14.667 0 -26.5 -2.83301 -35.5 -8.5s-16 -15.5 -21 -29.5s-8.5 -32.5 -10.5 -55.5s-3 -51.5 -3 -85.5c0 -30.667 0.5 -56.834 1.5 -78.501s3.83301 -39.5 8.5 -53.5
s11.667 -24.167 21 -30.5s22.333 -9.5 39 -9.5z" />
    <glyph glyph-name="Emacron" unicode="&#x112;" horiz-adv-x="366" 
d="M53 0v696h298v-73h-219v-233h190v-73h-190v-245h219v-72h-298zM78 752v67h239v-67h-239z" />
    <glyph glyph-name="emacron" unicode="&#x113;" horiz-adv-x="357" 
d="M180 66c19.333 0 33.834 6.5 43.501 19.5s15.167 31.167 16.5 54.5l81 -15c-2.66699 -42.667 -15.834 -75.334 -39.501 -98.001s-59.5 -34 -107.5 -34c-21.333 0 -39.666 2.83301 -54.999 8.5s-28.333 13 -39 22s-19.167 19.167 -25.5 30.5s-10.833 22.666 -13.5 33.999
c-2 8 -3.66699 18 -5 30s-2.33301 25.167 -3 39.5s-1.16699 28.833 -1.5 43.5s-0.5 28.334 -0.5 41.001c0 16.667 0.166992 33.5 0.5 50.5s1.16602 33.167 2.49902 48.5s3 29.5 5 42.5s4.66699 23.833 8 32.5c9.33301 26 24.833 46.667 46.5 62s51.167 23 88.5 23
c49.333 0 85 -13.667 107 -41s33 -65 33 -113v-122h-212c0 -22 0.5 -43.667 1.5 -65s3.16699 -37.666 6.5 -48.999c9.33301 -30 30 -45 62 -45zM242.001 289l-0.000976562 41.998c0 12.667 -0.833008 24.834 -2.5 36.501s-4.83398 21.834 -9.50098 30.501
s-11.167 15.5 -19.5 20.5s-19.166 7.5 -32.499 7.5c-12 0 -23 -2.83301 -33 -8.5s-18 -16.167 -24 -31.5c-3.33301 -9.33301 -5.66602 -22 -6.99902 -38s-2.33301 -35.667 -3 -59h131zM71 587.998v67h239v-67h-239z" />
    <glyph glyph-name="Ebreve" unicode="&#x114;" horiz-adv-x="366" 
d="M53 0v696h298v-73h-219v-233h190v-73h-190v-245h219v-72h-298zM135 875c0.666992 -6.66699 2.66699 -13.667 6 -21s7.83301 -14.166 13.5 -20.499s12.5 -11.5 20.5 -15.5s17 -6 27 -6c10.667 0 20.167 2 28.5 6s15.5 9.16699 21.5 15.5s10.5 13.166 13.5 20.499
s4.5 14.333 4.5 21h63c-1.33301 -12.667 -4.66602 -26.167 -9.99902 -40.5s-13.333 -27.5 -24 -39.5s-24 -22 -40 -30s-35 -12 -57 -12c-24.667 0 -45.334 4 -62.001 12s-30.167 18 -40.5 30s-17.833 25.167 -22.5 39.5s-7 27.833 -7 40.5h65z" />
    <glyph glyph-name="ebreve" unicode="&#x115;" horiz-adv-x="357" 
d="M180 66c19.333 0 33.834 6.5 43.501 19.5s15.167 31.167 16.5 54.5l81 -15c-2.66699 -42.667 -15.834 -75.334 -39.501 -98.001s-59.5 -34 -107.5 -34c-21.333 0 -39.666 2.83301 -54.999 8.5s-28.333 13 -39 22s-19.167 19.167 -25.5 30.5s-10.833 22.666 -13.5 33.999
c-2 8 -3.66699 18 -5 30s-2.33301 25.167 -3 39.5s-1.16699 28.833 -1.5 43.5s-0.5 28.334 -0.5 41.001c0 16.667 0.166992 33.5 0.5 50.5s1.16602 33.167 2.49902 48.5s3 29.5 5 42.5s4.66699 23.833 8 32.5c9.33301 26 24.833 46.667 46.5 62s51.167 23 88.5 23
c49.333 0 85 -13.667 107 -41s33 -65 33 -113v-122h-212c0 -22 0.5 -43.667 1.5 -65s3.16699 -37.666 6.5 -48.999c9.33301 -30 30 -45 62 -45zM242.001 289l-0.000976562 41.998c0 12.667 -0.833008 24.834 -2.5 36.501s-4.83398 21.834 -9.50098 30.501
s-11.167 15.5 -19.5 20.5s-19.166 7.5 -32.499 7.5c-12 0 -23 -2.83301 -33 -8.5s-18 -16.167 -24 -31.5c-3.33301 -9.33301 -5.66602 -22 -6.99902 -38s-2.33301 -35.667 -3 -59h131zM112 689.998c0.666992 -6.66699 2.66699 -13.667 6 -21s7.83301 -14.166 13.5 -20.499
s12.5 -11.5 20.5 -15.5s17 -6 27 -6c10.667 0 20.167 2 28.5 6s15.5 9.16699 21.5 15.5s10.5 13.166 13.5 20.499s4.5 14.333 4.5 21h63c-1.33301 -12.667 -4.66602 -26.167 -9.99902 -40.5s-13.333 -27.5 -24 -39.5s-24 -22 -40 -30s-35 -12 -57 -12
c-24.667 0 -45.334 4 -62.001 12s-30.167 18 -40.5 30s-17.833 25.167 -22.5 39.5s-7 27.833 -7 40.5h65z" />
    <glyph glyph-name="Edotaccent" unicode="&#x116;" horiz-adv-x="366" 
d="M53 0v696h298v-73h-219v-233h190v-73h-190v-245h219v-72h-298zM174 772v80h68v-80h-68z" />
    <glyph glyph-name="edotaccent" unicode="&#x117;" horiz-adv-x="357" 
d="M180 66c19.333 0 33.834 6.5 43.501 19.5s15.167 31.167 16.5 54.5l81 -15c-2.66699 -42.667 -15.834 -75.334 -39.501 -98.001s-59.5 -34 -107.5 -34c-21.333 0 -39.666 2.83301 -54.999 8.5s-28.333 13 -39 22s-19.167 19.167 -25.5 30.5s-10.833 22.666 -13.5 33.999
c-2 8 -3.66699 18 -5 30s-2.33301 25.167 -3 39.5s-1.16699 28.833 -1.5 43.5s-0.5 28.334 -0.5 41.001c0 16.667 0.166992 33.5 0.5 50.5s1.16602 33.167 2.49902 48.5s3 29.5 5 42.5s4.66699 23.833 8 32.5c9.33301 26 24.833 46.667 46.5 62s51.167 23 88.5 23
c49.333 0 85 -13.667 107 -41s33 -65 33 -113v-122h-212c0 -22 0.5 -43.667 1.5 -65s3.16699 -37.666 6.5 -48.999c9.33301 -30 30 -45 62 -45zM242.001 289l-0.000976562 41.998c0 12.667 -0.833008 24.834 -2.5 36.501s-4.83398 21.834 -9.50098 30.501
s-11.167 15.5 -19.5 20.5s-19.166 7.5 -32.499 7.5c-12 0 -23 -2.83301 -33 -8.5s-18 -16.167 -24 -31.5c-3.33301 -9.33301 -5.66602 -22 -6.99902 -38s-2.33301 -35.667 -3 -59h131zM147 601.998v80h68v-80h-68z" />
    <glyph glyph-name="Eogonek" unicode="&#x118;" horiz-adv-x="366" 
d="M267 -92c0 13.333 2.33105 27.166 6.99805 41.499s13 31.166 25 50.499h-246v696h298v-73h-219v-233h190v-73h-190v-245h219v-72c-9.33301 -15.333 -16.5 -29.166 -21.5 -41.499s-7.5 -24.166 -7.5 -35.499c0 -17.333 3.83301 -29 11.5 -35s17.834 -9 30.501 -9
c7.33301 0 15 1 23 3s17 5.66699 27 11l17 -48c-11.333 -7.33301 -24.166 -13.333 -38.499 -18s-28.166 -7 -41.499 -7c-24.667 0 -44.834 7.66699 -60.501 23s-23.5 37 -23.5 65z" />
    <glyph glyph-name="eogonek" unicode="&#x119;" horiz-adv-x="357" 
d="M194 -65c0 9.33301 1.16602 18.832 3.49902 28.499s6.16602 20.167 11.499 31.5c-5.33301 -0.666992 -11 -1.16699 -17 -1.5s-12 -0.5 -18 -0.5c-21.333 0 -39.666 2.83301 -54.999 8.5s-28.333 13 -39 22s-19.167 19.167 -25.5 30.5s-10.833 22.666 -13.5 33.999
c-2 8 -3.66699 18 -5 30s-2.33301 25.167 -3 39.5s-1.16699 28.833 -1.5 43.5s-0.5 28.334 -0.5 41.001c0 16.667 0.166992 33.5 0.5 50.5s1.16602 33.167 2.49902 48.5s3 29.5 5 42.5s4.66699 23.833 8 32.5c9.33301 26 24.833 46.667 46.5 62s51.167 23 88.5 23
c49.333 0 85 -13.667 107 -41s33 -65 33 -113v-122h-212c0 -22 0.5 -43.667 1.5 -65s3.16699 -37.666 6.5 -48.999c9.33301 -30 30 -45 62 -45c19.333 0 33.833 6.5 43.5 19.5s15.167 31.167 16.5 54.5l81 -15c-3.33301 -48 -19 -82.667 -47 -104
c-8.66699 -14 -15 -26.5 -19 -37.5s-6 -22.167 -6 -33.5c0 -17.333 3.83301 -29 11.5 -35s17.834 -9 30.501 -9c7.33301 0 15 1 23 3s17 5.66699 27 11l17 -48c-11.333 -7.33301 -24.166 -13.333 -38.499 -18s-28.166 -7 -41.499 -7c-24.667 0 -44.834 7.66699 -60.501 23
s-23.5 37 -23.5 65zM241.999 288.999l-0.000976562 41.998c0 12.667 -0.833008 24.834 -2.5 36.501s-4.83398 21.834 -9.50098 30.501s-11.167 15.5 -19.5 20.5s-19.166 7.5 -32.499 7.5c-12 0 -23 -2.83301 -33 -8.5s-18 -16.167 -24 -31.5
c-3.33301 -9.33301 -5.66602 -22 -6.99902 -38s-2.33301 -35.667 -3 -59h131z" />
    <glyph glyph-name="Ecaron" unicode="&#x11a;" horiz-adv-x="366" 
d="M53 0v696h298v-73h-219v-233h190v-73h-190v-245h219v-72h-298zM318 875l34 -30l-123 -117h-47l-130 119l34 28l116 -74z" />
    <glyph glyph-name="ecaron" unicode="&#x11b;" horiz-adv-x="357" 
d="M180 66c19.333 0 33.834 6.5 43.501 19.5s15.167 31.167 16.5 54.5l81 -15c-2.66699 -42.667 -15.834 -75.334 -39.501 -98.001s-59.5 -34 -107.5 -34c-21.333 0 -39.666 2.83301 -54.999 8.5s-28.333 13 -39 22s-19.167 19.167 -25.5 30.5s-10.833 22.666 -13.5 33.999
c-2 8 -3.66699 18 -5 30s-2.33301 25.167 -3 39.5s-1.16699 28.833 -1.5 43.5s-0.5 28.334 -0.5 41.001c0 16.667 0.166992 33.5 0.5 50.5s1.16602 33.167 2.49902 48.5s3 29.5 5 42.5s4.66699 23.833 8 32.5c9.33301 26 24.833 46.667 46.5 62s51.167 23 88.5 23
c49.333 0 85 -13.667 107 -41s33 -65 33 -113v-122h-212c0 -22 0.5 -43.667 1.5 -65s3.16699 -37.666 6.5 -48.999c9.33301 -30 30 -45 62 -45zM242.001 289l-0.000976562 41.998c0 12.667 -0.833008 24.834 -2.5 36.501s-4.83398 21.834 -9.50098 30.501
s-11.167 15.5 -19.5 20.5s-19.166 7.5 -32.499 7.5c-12 0 -23 -2.83301 -33 -8.5s-18 -16.167 -24 -31.5c-3.33301 -9.33301 -5.66602 -22 -6.99902 -38s-2.33301 -35.667 -3 -59h131zM298 719.998l34 -30l-123 -137h-47l-130 139l34 28l116 -94z" />
    <glyph glyph-name="Gcircumflex" unicode="&#x11c;" horiz-adv-x="414" 
d="M207 -7c-52.667 0 -92.001 14.6709 -118.001 44.0039s-39 70.666 -39 123.999v344c0 24.667 2.16699 48.834 6.5 72.501s12.166 44.667 23.499 63s27.333 33.166 48 44.499s47 17 79 17c54 0 92.833 -13.833 116.5 -41.5s36.167 -65.167 37.5 -112.5l-79 -19
c0.666992 30.667 -4.83301 55 -16.5 73s-31.5 27 -59.5 27c-16 0 -29 -3.66699 -39 -11s-17.833 -16.5 -23.5 -27.5s-9.5 -23.167 -11.5 -36.5s-3 -26 -3 -38v-351c0 -10 1 -20.833 3 -32.5s5.83301 -22.334 11.5 -32.001s13.334 -17.834 23.001 -24.501s22.5 -10 38.5 -10
h1c25.333 0 45.333 6.66699 60 20s22 31.666 22 54.999v166h-81v69h160v-225c0 -26 -4.16699 -48.833 -12.5 -68.5s-19.666 -36.167 -33.999 -49.5s-31.333 -23.333 -51 -30s-40.5 -10 -62.5 -10zM206.999 801.004l-116 -74l-34 28l130 119h47l123 -117l-34 -30z" />
    <glyph glyph-name="gcircumflex" unicode="&#x11d;" horiz-adv-x="370" 
d="M247 47c-10 -18 -24.668 -31.1689 -44.001 -39.502s-36.666 -12.5 -51.999 -12.5c-27.333 0 -49 5.83301 -65 17.5s-28 27.334 -36 47.001s-13.167 42.167 -15.5 67.5s-3.5 52 -3.5 80v83.5c0 27 1.66699 56.5 5 88.5c2.66699 27.333 8.83398 49 18.501 65
s20.5 28.167 32.5 36.5s24.167 13.666 36.5 15.999s23.166 3.5 32.499 3.5c26 0 45 -3.83301 57 -11.5s23.333 -18.834 34 -33.501l2 1v38h79v-531c0 -20 -2 -39.667 -6 -59s-11.333 -36.666 -22 -51.999s-25.5 -27.666 -44.5 -36.999s-43.833 -14 -74.5 -14
c-44 0 -77.667 10.833 -101 32.5s-35.666 52.167 -36.999 91.5l79 15c0.666992 -20 5.5 -36 14.5 -48s25.167 -18 48.5 -18c11.333 0 21.166 2.33301 29.499 7s15 10.834 20 18.501s8.66699 16.167 11 25.5s3.5 19 3.5 29v93h-2zM182.999 422.998
c-16.667 0 -29.667 -3.16602 -39 -9.49902s-16.5 -16.5 -21.5 -30.5s-8.16699 -31.833 -9.5 -53.5s-2 -47.834 -2 -78.501c0 -32 0.5 -59.167 1.5 -81.5s3.66699 -40.833 8 -55.5s11.333 -25.334 21 -32.001s23.5 -10 41.5 -10c18.667 0 34.5 7 47.5 21s19.5 30.667 19.5 50
v202c0 22.667 -5.66699 41.334 -17 56.001s-28 22 -50 22zM179.999 645.999l-116 -94l-34 28l130 139h47l123 -137l-34 -30z" />
    <glyph glyph-name="Gbreve" unicode="&#x11e;" horiz-adv-x="414" 
d="M207 -7c-52.667 0 -92.001 14.6709 -118.001 44.0039s-39 70.666 -39 123.999v344c0 24.667 2.16699 48.834 6.5 72.501s12.166 44.667 23.499 63s27.333 33.166 48 44.499s47 17 79 17c54 0 92.833 -13.833 116.5 -41.5s36.167 -65.167 37.5 -112.5l-79 -19
c0.666992 30.667 -4.83301 55 -16.5 73s-31.5 27 -59.5 27c-16 0 -29 -3.66699 -39 -11s-17.833 -16.5 -23.5 -27.5s-9.5 -23.167 -11.5 -36.5s-3 -26 -3 -38v-351c0 -10 1 -20.833 3 -32.5s5.83301 -22.334 11.5 -32.001s13.334 -17.834 23.001 -24.501s22.5 -10 38.5 -10
h1c25.333 0 45.333 6.66699 60 20s22 31.666 22 54.999v166h-81v69h160v-225c0 -26 -4.16699 -48.833 -12.5 -68.5s-19.666 -36.167 -33.999 -49.5s-31.333 -23.333 -51 -30s-40.5 -10 -62.5 -10zM139.999 875.004c0.666992 -6.66699 2.66699 -13.667 6 -21
s7.83301 -14.166 13.5 -20.499s12.5 -11.5 20.5 -15.5s17 -6 27 -6c10.667 0 20.167 2 28.5 6s15.5 9.16699 21.5 15.5s10.5 13.166 13.5 20.499s4.5 14.333 4.5 21h63c-1.33301 -12.667 -4.66602 -26.167 -9.99902 -40.5s-13.333 -27.5 -24 -39.5s-24 -22 -40 -30
s-35 -12 -57 -12c-24.667 0 -45.334 4 -62.001 12s-30.167 18 -40.5 30s-17.833 25.167 -22.5 39.5s-7 27.833 -7 40.5h65z" />
    <glyph glyph-name="gbreve" unicode="&#x11f;" horiz-adv-x="370" 
d="M247 47c-10 -18 -24.668 -31.1689 -44.001 -39.502s-36.666 -12.5 -51.999 -12.5c-27.333 0 -49 5.83301 -65 17.5s-28 27.334 -36 47.001s-13.167 42.167 -15.5 67.5s-3.5 52 -3.5 80v83.5c0 27 1.66699 56.5 5 88.5c2.66699 27.333 8.83398 49 18.501 65
s20.5 28.167 32.5 36.5s24.167 13.666 36.5 15.999s23.166 3.5 32.499 3.5c26 0 45 -3.83301 57 -11.5s23.333 -18.834 34 -33.501l2 1v38h79v-531c0 -20 -2 -39.667 -6 -59s-11.333 -36.666 -22 -51.999s-25.5 -27.666 -44.5 -36.999s-43.833 -14 -74.5 -14
c-44 0 -77.667 10.833 -101 32.5s-35.666 52.167 -36.999 91.5l79 15c0.666992 -20 5.5 -36 14.5 -48s25.167 -18 48.5 -18c11.333 0 21.166 2.33301 29.499 7s15 10.834 20 18.501s8.66699 16.167 11 25.5s3.5 19 3.5 29v93h-2zM182.999 422.998
c-16.667 0 -29.667 -3.16602 -39 -9.49902s-16.5 -16.5 -21.5 -30.5s-8.16699 -31.833 -9.5 -53.5s-2 -47.834 -2 -78.501c0 -32 0.5 -59.167 1.5 -81.5s3.66699 -40.833 8 -55.5s11.333 -25.334 21 -32.001s23.5 -10 41.5 -10c18.667 0 34.5 7 47.5 21s19.5 30.667 19.5 50
v202c0 22.667 -5.66699 41.334 -17 56.001s-28 22 -50 22zM118.999 689.999c0.666992 -6.66699 2.66699 -13.667 6 -21s7.83301 -14.166 13.5 -20.499s12.5 -11.5 20.5 -15.5s17 -6 27 -6c10.667 0 20.167 2 28.5 6s15.5 9.16699 21.5 15.5s10.5 13.166 13.5 20.499
s4.5 14.333 4.5 21h63c-1.33301 -12.667 -4.66602 -26.167 -9.99902 -40.5s-13.333 -27.5 -24 -39.5s-24 -22 -40 -30s-35 -12 -57 -12c-24.667 0 -45.334 4 -62.001 12s-30.167 18 -40.5 30s-17.833 25.167 -22.5 39.5s-7 27.833 -7 40.5h65z" />
    <glyph glyph-name="Gdotaccent" unicode="&#x120;" horiz-adv-x="414" 
d="M207 -7c-52.667 0 -92.001 14.6709 -118.001 44.0039s-39 70.666 -39 123.999v344c0 24.667 2.16699 48.834 6.5 72.501s12.166 44.667 23.499 63s27.333 33.166 48 44.499s47 17 79 17c54 0 92.833 -13.833 116.5 -41.5s36.167 -65.167 37.5 -112.5l-79 -19
c0.666992 30.667 -4.83301 55 -16.5 73s-31.5 27 -59.5 27c-16 0 -29 -3.66699 -39 -11s-17.833 -16.5 -23.5 -27.5s-9.5 -23.167 -11.5 -36.5s-3 -26 -3 -38v-351c0 -10 1 -20.833 3 -32.5s5.83301 -22.334 11.5 -32.001s13.334 -17.834 23.001 -24.501s22.5 -10 38.5 -10
h1c25.333 0 45.333 6.66699 60 20s22 31.666 22 54.999v166h-81v69h160v-225c0 -26 -4.16699 -48.833 -12.5 -68.5s-19.666 -36.167 -33.999 -49.5s-31.333 -23.333 -51 -30s-40.5 -10 -62.5 -10zM172.999 772.004v80h68v-80h-68z" />
    <glyph glyph-name="gdotaccent" unicode="&#x121;" horiz-adv-x="370" 
d="M247 47c-10 -18 -24.668 -31.1689 -44.001 -39.502s-36.666 -12.5 -51.999 -12.5c-27.333 0 -49 5.83301 -65 17.5s-28 27.334 -36 47.001s-13.167 42.167 -15.5 67.5s-3.5 52 -3.5 80v83.5c0 27 1.66699 56.5 5 88.5c2.66699 27.333 8.83398 49 18.501 65
s20.5 28.167 32.5 36.5s24.167 13.666 36.5 15.999s23.166 3.5 32.499 3.5c26 0 45 -3.83301 57 -11.5s23.333 -18.834 34 -33.501l2 1v38h79v-531c0 -20 -2 -39.667 -6 -59s-11.333 -36.666 -22 -51.999s-25.5 -27.666 -44.5 -36.999s-43.833 -14 -74.5 -14
c-44 0 -77.667 10.833 -101 32.5s-35.666 52.167 -36.999 91.5l79 15c0.666992 -20 5.5 -36 14.5 -48s25.167 -18 48.5 -18c11.333 0 21.166 2.33301 29.499 7s15 10.834 20 18.501s8.66699 16.167 11 25.5s3.5 19 3.5 29v93h-2zM182.999 422.998
c-16.667 0 -29.667 -3.16602 -39 -9.49902s-16.5 -16.5 -21.5 -30.5s-8.16699 -31.833 -9.5 -53.5s-2 -47.834 -2 -78.501c0 -32 0.5 -59.167 1.5 -81.5s3.66699 -40.833 8 -55.5s11.333 -25.334 21 -32.001s23.5 -10 41.5 -10c18.667 0 34.5 7 47.5 21s19.5 30.667 19.5 50
v202c0 22.667 -5.66699 41.334 -17 56.001s-28 22 -50 22zM159.999 601.999v80h68v-80h-68z" />
    <glyph glyph-name="Gcommaaccent" unicode="&#x122;" horiz-adv-x="414" 
d="M207 -7c-52.667 0 -92.001 14.6709 -118.001 44.0039s-39 70.666 -39 123.999v344c0 24.667 2.16699 48.834 6.5 72.501s12.166 44.667 23.499 63s27.333 33.166 48 44.499s47 17 79 17c54 0 92.833 -13.833 116.5 -41.5s36.167 -65.167 37.5 -112.5l-79 -19
c0.666992 30.667 -4.83301 55 -16.5 73s-31.5 27 -59.5 27c-16 0 -29 -3.66699 -39 -11s-17.833 -16.5 -23.5 -27.5s-9.5 -23.167 -11.5 -36.5s-3 -26 -3 -38v-351c0 -10 1 -20.833 3 -32.5s5.83301 -22.334 11.5 -32.001s13.334 -17.834 23.001 -24.501s22.5 -10 38.5 -10
h1c25.333 0 45.333 6.66699 60 20s22 31.666 22 54.999v166h-81v69h160v-225c0 -26 -4.16699 -48.833 -12.5 -68.5s-19.666 -36.167 -33.999 -49.5s-31.333 -23.333 -51 -30s-40.5 -10 -62.5 -10zM206.999 -250.996h-44l24 89h-21v97h86v-95z" />
    <glyph glyph-name="gcommaaccent" unicode="&#x123;" horiz-adv-x="370" 
d="M207 744h44l-24 -89h21v-97h-86v95zM247 47c-10 -18 -24.668 -31.1689 -44.001 -39.502s-36.666 -12.5 -51.999 -12.5c-27.333 0 -49 5.83301 -65 17.5s-28 27.334 -36 47.001s-13.167 42.167 -15.5 67.5s-3.5 52 -3.5 80v83.5c0 27 1.66699 56.5 5 88.5
c2.66699 27.333 8.83398 49 18.501 65s20.5 28.167 32.5 36.5s24.167 13.666 36.5 15.999s23.166 3.5 32.499 3.5c26 0 45 -3.83301 57 -11.5s23.333 -18.834 34 -33.501l2 1v38h79v-531c0 -20 -2 -39.667 -6 -59s-11.333 -36.666 -22 -51.999s-25.5 -27.666 -44.5 -36.999
s-43.833 -14 -74.5 -14c-44 0 -77.667 10.833 -101 32.5s-35.666 52.167 -36.999 91.5l79 15c0.666992 -20 5.5 -36 14.5 -48s25.167 -18 48.5 -18c11.333 0 21.166 2.33301 29.499 7s15 10.834 20 18.501s8.66699 16.167 11 25.5s3.5 19 3.5 29v93h-2zM182.999 422.998
c-16.667 0 -29.667 -3.16602 -39 -9.49902s-16.5 -16.5 -21.5 -30.5s-8.16699 -31.833 -9.5 -53.5s-2 -47.834 -2 -78.501c0 -32 0.5 -59.167 1.5 -81.5s3.66699 -40.833 8 -55.5s11.333 -25.334 21 -32.001s23.5 -10 41.5 -10c18.667 0 34.5 7 47.5 21s19.5 30.667 19.5 50
v202c0 22.667 -5.66699 41.334 -17 56.001s-28 22 -50 22z" />
    <glyph glyph-name="Hcircumflex" unicode="&#x124;" horiz-adv-x="427" 
d="M294 0v321h-162v-321h-79v696h79v-306h162v306h79v-696h-79zM213 801l-116 -74l-34 28l130 119h47l123 -117l-34 -30z" />
    <glyph glyph-name="hcircumflex" unicode="&#x125;" horiz-adv-x="369" 
d="M117 445l3 0.000976562c23.333 36 57 54 101 54c36.667 0 64.167 -11.833 82.5 -35.5s27.5 -54.5 27.5 -92.5v-371h-80v350c0 21.333 -5.66699 38.166 -17 50.499s-28 18.5 -50 18.5c-21.333 0 -38 -6.33301 -50 -19s-18 -30.667 -18 -54v-346h-78v726h79v-281z
M77 801.001l-116 -74l-34 28l130 119h47l123 -117l-34 -30z" />
    <glyph glyph-name="Hbar" unicode="&#x126;" horiz-adv-x="427" 
d="M294 0v321h-162v-321h-79v540h-50v55h50v101h79v-101h162v101h79v-101h50v-55h-50v-540h-79zM294 390v150h-162v-150h162z" />
    <glyph glyph-name="hbar" unicode="&#x127;" horiz-adv-x="369" 
d="M117 635l140 0.000976562v-55h-140v-135h3c23.333 36 57 54 101 54c36.667 0 64.167 -11.833 82.5 -35.5s27.5 -54.5 27.5 -92.5v-371h-80v350c0 21.333 -5.66699 38.166 -17 50.499s-28 18.5 -50 18.5c-21.333 0 -38 -6.33301 -50 -19s-18 -30.667 -18 -54v-346h-78v580
h-35v55h35v91h79v-91z" />
    <glyph glyph-name="Itilde" unicode="&#x128;" horiz-adv-x="192" 
d="M56 0v696h80v-696h-80zM243 823c-12.667 -23.333 -26.998 -41.667 -42.998 -55s-31.333 -20 -46 -20c-10 0 -19.833 2 -29.5 6s-19 8.16699 -28 12.5l-25.5 12.5c-8 4 -16 6 -24 6c-18.667 0 -36.334 -12 -53.001 -36l-40 25c4 8.66699 9.16699 17.334 15.5 26.001
s13.166 16.667 20.499 24s15.333 13.333 24 18s17.667 7 27 7c10 0 19.333 -2 28 -6s17.5 -8.33301 26.5 -13s18.167 -9 27.5 -13s19 -6 29 -6c9.33301 0 17.833 3.16699 25.5 9.5s16.5 16.166 26.5 29.499z" />
    <glyph glyph-name="itilde" unicode="&#x129;" horiz-adv-x="248" 
d="M86 0v494h80v-494h-80zM269 653c-12.667 -23.333 -26.998 -41.667 -42.998 -55s-31.333 -20 -46 -20c-10 0 -19.833 2 -29.5 6s-19 8.16699 -28 12.5l-25.5 12.5c-8 4 -16 6 -24 6c-18.667 0 -36.334 -12 -53.001 -36l-40 25c4 8.66699 9.16699 17.334 15.5 26.001
s13.166 16.667 20.499 24s15.333 13.333 24 18s17.667 7 27 7c10 0 19.333 -2 28 -6s17.5 -8.33301 26.5 -13s18.167 -9 27.5 -13s19 -6 29 -6c9.33301 0 17.833 3.16699 25.5 9.5s16.5 16.166 26.5 29.499z" />
    <glyph glyph-name="Imacron" unicode="&#x12a;" horiz-adv-x="192" 
d="M56 0v696h80v-696h-80zM-25 752v67h239v-67h-239z" />
    <glyph glyph-name="imacron" unicode="&#x12b;" horiz-adv-x="219" 
d="M69 0v494h80v-494h-80zM-10 588v67h239v-67h-239z" />
    <glyph glyph-name="Ibreve" unicode="&#x12c;" horiz-adv-x="192" 
d="M56 0v696h80v-696h-80zM28 875c0.666992 -6.66699 2.66699 -13.667 6 -21s7.83301 -14.166 13.5 -20.499s12.5 -11.5 20.5 -15.5s17 -6 27 -6c10.667 0 20.167 2 28.5 6s15.5 9.16699 21.5 15.5s10.5 13.166 13.5 20.499s4.5 14.333 4.5 21h63
c-1.33301 -12.667 -4.66602 -26.167 -9.99902 -40.5s-13.333 -27.5 -24 -39.5s-24 -22 -40 -30s-35 -12 -57 -12c-24.667 0 -45.334 4 -62.001 12s-30.167 18 -40.5 30s-17.833 25.167 -22.5 39.5s-7 27.833 -7 40.5h65z" />
    <glyph glyph-name="ibreve" unicode="&#x12d;" horiz-adv-x="239" 
d="M80 0v494h80v-494h-80zM53 696c0.666992 -6.66699 2.66699 -13.667 6 -21s7.83301 -14.166 13.5 -20.499s12.5 -11.5 20.5 -15.5s17 -6 27 -6c10.667 0 20.167 2 28.5 6s15.5 9.16699 21.5 15.5s10.5 13.166 13.5 20.499s4.5 14.333 4.5 21h63
c-1.33301 -12.667 -4.66602 -26.167 -9.99902 -40.5s-13.333 -27.5 -24 -39.5s-24 -22 -40 -30s-35 -12 -57 -12c-24.667 0 -45.334 4 -62.001 12s-30.167 18 -40.5 30s-17.833 25.167 -22.5 39.5s-7 27.833 -7 40.5h65z" />
    <glyph glyph-name="Iogonek" unicode="&#x12e;" horiz-adv-x="192" 
d="M37 -90c0 13.333 2.33008 27 6.99707 41s12.667 30.333 24 49h-12v696h80v-696h-17c-9.33301 -15.333 -16.166 -28.833 -20.499 -40.5s-6.5 -23.167 -6.5 -34.5c0 -17.333 3.83301 -29 11.5 -35s17.834 -9 30.501 -9c7.33301 0 15 1 23 3s17 5.66699 27 11l17 -48
c-11.333 -7.33301 -24.166 -13.333 -38.499 -18s-28.166 -7 -41.499 -7c-24.667 0 -44.834 7.66699 -60.501 23s-23.5 37 -23.5 65z" />
    <glyph glyph-name="iogonek" unicode="&#x12f;" horiz-adv-x="170" 
d="M27 -90c0 13.333 2.33008 27 6.99707 41s12.667 30.333 24 49h-14v494h80v-494h-15c-9.33301 -15.333 -16.166 -28.833 -20.499 -40.5s-6.5 -23.167 -6.5 -34.5c0 -17.333 3.83301 -29 11.5 -35s17.834 -9 30.501 -9c7.33301 0 15 1 23 3s17 5.66699 27 11l17 -48
c-11.333 -7.33301 -24.166 -13.333 -38.499 -18s-28.166 -7 -41.499 -7c-24.667 0 -44.834 7.66699 -60.501 23s-23.5 37 -23.5 65zM43.9971 616v80h80v-80h-80z" />
    <glyph glyph-name="Idotaccent" unicode="&#x130;" horiz-adv-x="192" 
d="M56 0v696h80v-696h-80zM63 772v80h68v-80h-68z" />
    <glyph glyph-name="dotlessi" unicode="&#x131;" horiz-adv-x="170" 
d="M44 0v494h80v-494h-80z" />
    <glyph glyph-name="IJ" unicode="&#x132;" horiz-adv-x="550" 
d="M54 0v696h80v-696h-80zM484 696l0.000976562 -518.001c0 -60.667 -13.167 -106.667 -39.5 -138s-66.5 -47 -120.5 -47c-28.667 0 -54.334 5.33301 -77.001 16s-41 27.334 -55 50.001l58 47c7.33301 -10.667 17.833 -20.167 31.5 -28.5s27.5 -12.5 41.5 -12.5
c29.333 0 50.333 9.5 63 28.5s19 43.5 19 73.5v529h79z" />
    <glyph glyph-name="ij" unicode="&#x133;" horiz-adv-x="390" 
d="M44 616v80h80v-80h-80zM44 0v494h80v-494h-80zM262 617v80h80v-80h-80zM342 -69c0 -17.333 -1.83203 -33.833 -5.49902 -49.5s-9.83398 -29.5 -18.501 -41.5s-20.5 -21.5 -35.5 -28.5s-33.833 -10.5 -56.5 -10.5h-30v75h14c22.667 0 37 5 43 15s9 28.667 9 56v547h80
v-563z" />
    <glyph glyph-name="Jcircumflex" unicode="&#x134;" horiz-adv-x="344" 
d="M278 697l0.000976562 -518.001c0 -60.667 -13.167 -106.667 -39.5 -138s-66.5 -47 -120.5 -47c-28.667 0 -54.334 5.33301 -77.001 16s-41 27.334 -55 50.001l58 47c7.33301 -10.667 17.833 -20.167 31.5 -28.5s27.5 -12.5 41.5 -12.5c29.333 0 50.333 9.5 63 28.5
s19 43.5 19 73.5v529h79zM240.001 802.999l-116 -74l-34 28l130 119h47l123 -117l-34 -30z" />
    <glyph glyph-name="jcircumflex" unicode="&#x135;" horiz-adv-x="280" 
d="M182 -79c0 -17.333 -2.00098 -33.833 -6.00098 -49.5s-10.833 -29.5 -20.5 -41.5s-22.167 -21.5 -37.5 -28.5s-34.333 -10.5 -57 -10.5h-25v75h9c22.667 0 37.834 7.5 45.501 22.5s11.5 36.167 11.5 63.5v542h80v-573zM139.999 646l-116 -94l-34 28l130 139h47l123 -137
l-34 -30z" />
    <glyph glyph-name="Kcommaaccent" unicode="&#x136;" horiz-adv-x="414" 
d="M326 0l-126 334l-68 -132v-202h-79v696h79v-347h2l168 347h79l-135 -275l160 -421h-80zM225 -231h-44l24 89h-21v97h86v-95z" />
    <glyph glyph-name="kcommaaccent" unicode="&#x137;" horiz-adv-x="374" 
d="M123 257l138 237h88l-114 -191l135 -303h-85l-101 234l-63 -114v-120h-79v726h79v-469h2zM208 -251h-44l24 89h-21v97h86v-95z" />
    <glyph glyph-name="kgreenlandic" unicode="&#x138;" horiz-adv-x="370" 
d="M123 257l138 237h88l-114 -191l129 -303h-85l-95 234l-63 -114v-120h-79v494h79v-237h2z" />
    <glyph glyph-name="Lacute" unicode="&#x139;" horiz-adv-x="340" 
d="M53 0v696h79v-624h203v-72h-282zM68 753l142 113l49 -57l-162 -92z" />
    <glyph glyph-name="lacute" unicode="&#x13a;" horiz-adv-x="210" 
d="M49 726h79.999v-596c0 -22.667 2.83301 -39.167 8.5 -49.5s18.5 -15.5 38.5 -15.5h12v-72h-16c-21.333 0 -39.666 1.83301 -54.999 5.5s-28 10 -38 19s-17.5 21.5 -22.5 37.5s-7.5 36.333 -7.5 61v610zM59.999 773l142 113l49 -57l-162 -92z" />
    <glyph glyph-name="Lcommaaccent" unicode="&#x13b;" horiz-adv-x="340" 
d="M53 0v696h79v-624h203v-72h-282zM194 -251h-44l24 89h-21v97h86v-95z" />
    <glyph glyph-name="lcommaaccent" unicode="&#x13c;" horiz-adv-x="210" 
d="M49 726h79.999v-596c0 -22.667 2.83301 -39.167 8.5 -49.5s18.5 -15.5 38.5 -15.5h12v-72h-16c-21.333 0 -39.666 1.83301 -54.999 5.5s-28 10 -38 19s-17.5 21.5 -22.5 37.5s-7.5 36.333 -7.5 61v610zM118.999 -251h-44l24 89h-21v97h86v-95z" />
    <glyph glyph-name="Lcaron" unicode="&#x13d;" horiz-adv-x="340" 
d="M53 0v696h79v-624h203v-72h-282zM279 510h-44l24 89h-21v97h86v-95z" />
    <glyph glyph-name="lcaron" unicode="&#x13e;" horiz-adv-x="272" 
d="M228 540h-44l24 89h-21v97h86v-95zM49 726h79.999v-596c0 -22.667 2.83301 -39.167 8.5 -49.5s18.5 -15.5 38.5 -15.5h12v-72h-16c-21.333 0 -39.666 1.83301 -54.999 5.5s-28 10 -38 19s-17.5 21.5 -22.5 37.5s-7.5 36.333 -7.5 61v610z" />
    <glyph glyph-name="Ldot" unicode="&#x13f;" horiz-adv-x="340" 
d="M53 0v696h79v-624h203v-72h-282zM202 295v80h68v-80h-68z" />
    <glyph glyph-name="ldot" unicode="&#x140;" horiz-adv-x="263" 
d="M178 343v80h68v-80h-68zM49 726h79.999v-596c0 -22.667 2.83301 -39.167 8.5 -49.5s18.5 -15.5 38.5 -15.5h12v-72h-16c-21.333 0 -39.666 1.83301 -54.999 5.5s-28 10 -38 19s-17.5 21.5 -22.5 37.5s-7.5 36.333 -7.5 61v610z" />
    <glyph glyph-name="Lslash" unicode="&#x141;" horiz-adv-x="379" 
d="M92 0v222l-62 -44l-30 45l92 66v407h79v-350l96 69l30 -45l-126 -91v-207h203v-72h-282z" />
    <glyph glyph-name="lslash" unicode="&#x142;" horiz-adv-x="297" 
d="M99 267l-69.001 -49l-30 45l99 71v392h80v-335l88 64l30 -45l-118 -85v-195c0 -22.667 2.83301 -39.167 8.5 -49.5s18.5 -15.5 38.5 -15.5h12v-72h-16c-21.333 0 -39.666 1.83301 -54.999 5.5s-28 10 -38 19s-17.5 21.5 -22.5 37.5s-7.5 36.333 -7.5 61v151z" />
    <glyph glyph-name="Nacute" unicode="&#x143;" horiz-adv-x="450" 
d="M129 476v-476h-79v696h75l144 -353l48 -127l4 1v479h79v-696h-74l-144 350l-50 126h-3zM194 753l142 113l49 -57l-162 -92z" />
    <glyph glyph-name="nacute" unicode="&#x144;" horiz-adv-x="366" 
d="M114 445l2.99902 0.000976562c23.333 36 57 54 101 54c36.667 0 64.167 -11.833 82.5 -35.5s27.5 -54.5 27.5 -92.5v-371h-80v350c0 21.333 -5 38.166 -15 50.499s-26 18.5 -48 18.5c-21.333 0 -38.666 -7 -51.999 -21s-20 -32.667 -20 -56v-342h-78v494h79v-49z
M119.999 573.001l68 168l71 -25l-96 -160z" />
    <glyph glyph-name="Ncommaaccent" unicode="&#x145;" horiz-adv-x="450" 
d="M129 476v-476h-79v696h75l144 -353l48 -127l4 1v479h79v-696h-74l-144 350l-50 126h-3zM225 -231h-44l24 89h-21v97h86v-95z" />
    <glyph glyph-name="ncommaaccent" unicode="&#x146;" horiz-adv-x="366" 
d="M114 445l2.99902 0.000976562c23.333 36 57 54 101 54c36.667 0 64.167 -11.833 82.5 -35.5s27.5 -54.5 27.5 -92.5v-371h-80v350c0 21.333 -5 38.166 -15 50.499s-26 18.5 -48 18.5c-21.333 0 -38.666 -7 -51.999 -21s-20 -32.667 -20 -56v-342h-78v494h79v-49z
M179.999 -250.999h-44l24 89h-21v97h86v-95z" />
    <glyph glyph-name="Ncaron" unicode="&#x147;" horiz-adv-x="450" 
d="M129 476v-476h-79v696h75l144 -353l48 -127l4 1v479h79v-696h-74l-144 350l-50 126h-3zM342 875l34 -30l-123 -117h-47l-130 119l34 28l116 -74z" />
    <glyph glyph-name="ncaron" unicode="&#x148;" horiz-adv-x="366" 
d="M114 445l2.99902 0.000976562c23.333 36 57 54 101 54c36.667 0 64.167 -11.833 82.5 -35.5s27.5 -54.5 27.5 -92.5v-371h-80v350c0 21.333 -5 38.166 -15 50.499s-26 18.5 -48 18.5c-21.333 0 -38.666 -7 -51.999 -21s-20 -32.667 -20 -56v-342h-78v494h79v-49z
M290.999 720.001l34 -30l-123 -137h-47l-130 139l34 28l116 -94z" />
    <glyph glyph-name="napostrophe" unicode="&#x149;" horiz-adv-x="450" 
d="M198 445l2.99902 0.000976562c23.333 36 57 54 101 54c36.667 0 64.167 -11.833 82.5 -35.5s27.5 -54.5 27.5 -92.5v-371h-80v350c0 21.333 -5 38.166 -15 50.499s-26 18.5 -48 18.5c-21.333 0 -38.666 -7 -51.999 -21s-20 -32.667 -20 -56v-342h-78v494h79v-49z
M51.999 476.001h-44l24 89h-21v97h86v-95z" />
    <glyph glyph-name="Eng" unicode="&#x14a;" horiz-adv-x="450" 
d="M129 476l0.000976562 -476h-79v696h75l144 -353l48 -127l4 1v479h79v-751c0 -38 -7.83301 -65 -23.5 -81s-37.834 -24 -66.501 -24c-9.33301 0 -18.5 0.666992 -27.5 2s-20.5 5.33301 -34.5 12l17 55c8 -2.66699 16.667 -4 26 -4s16.5 2.83301 21.5 8.5
s7.5 16.167 7.5 31.5v69l-138 336l-50 126h-3z" />
    <glyph glyph-name="eng" unicode="&#x14b;" horiz-adv-x="366" 
d="M114 445l3 0.000976562c23.333 36 57 54 101 54c36.667 0 64.167 -11.833 82.5 -35.5s27.5 -54.5 27.5 -92.5v-426c0 -38 -7.83301 -65 -23.5 -81s-37.834 -24 -66.501 -24c-9.33301 0 -18.5 0.666992 -27.5 2s-20.5 5.33301 -34.5 12l17 55c8 -2.66699 16.667 -4 26 -4
s16.5 2.83301 21.5 8.5s7.5 16.167 7.5 31.5v405c0 21.333 -5 38.166 -15 50.499s-26 18.5 -48 18.5c-21.333 0 -38.666 -7 -51.999 -21s-20 -32.667 -20 -56v-342h-78v494h79v-49z" />
    <glyph glyph-name="Omacron" unicode="&#x14c;" horiz-adv-x="414" 
d="M367 187c0 -62 -12.1689 -109.832 -36.502 -143.499s-65.833 -50.5 -124.5 -50.5c-57.333 0 -98.166 15.667 -122.499 47s-36.5 72.666 -36.5 123.999v343c0 24.667 2.16699 48.667 6.5 72s12.333 44.166 24 62.499s27.834 33 48.501 44s47.667 16.5 81 16.5
c34.667 0 62.5 -4.83301 83.5 -14.5s37.167 -23.167 48.5 -40.5s18.833 -37.666 22.5 -60.999s5.5 -49 5.5 -77v-322zM287.998 522.001c0 12 -0.833984 24.334 -2.50098 37.001s-5.16699 24.167 -10.5 34.5s-13.5 19 -24.5 26s-25.5 10.5 -43.5 10.5
c-20 0 -35.333 -4.83301 -46 -14.5s-18.667 -21.167 -24 -34.5s-8.5 -27.5 -9.5 -42.5s-1.5 -27.5 -1.5 -37.5v-338c0 -10 1 -20.667 3 -32s6 -22 12 -32s14.167 -18.167 24.5 -24.5s23.833 -9.5 40.5 -9.5s30.334 3.33301 41.001 10s19 15.167 25 25.5
s10.167 22.166 12.5 35.499s3.5 27 3.5 41v345zM89.9971 752.002v67h239v-67h-239z" />
    <glyph glyph-name="omacron" unicode="&#x14d;" horiz-adv-x="362" 
d="M186 501c28 0 50.8311 -3.66895 68.498 -11.002s31.834 -17.5 42.501 -30.5s18.334 -28.333 23.001 -46s7.66699 -36.834 9 -57.501c1.33301 -19.333 2.33301 -40 3 -62s1 -41.667 1 -59c0 -38 -2 -76 -6 -114c-3.33301 -26.667 -10 -48.334 -20 -65.001
s-22.167 -29.667 -36.5 -39s-29.833 -15.666 -46.5 -18.999s-33 -5 -49 -5c-20.667 0 -38.5 2.66699 -53.5 8s-27.833 12.333 -38.5 21s-19.334 18.834 -26.001 30.501s-11.667 23.5 -15 35.5c-2 8 -3.66699 18 -5 30s-2.16602 25.167 -2.49902 39.5l-1 43.5
c-0.333008 14.667 -0.5 28.334 -0.5 41.001c0 16.667 0.333008 33.834 1 51.501s1.66699 34.5 3 50.5s3 30.5 5 43.5s4.66699 23.5 8 31.5c9.33301 25.333 25 45.333 47 60s51.667 22 89 22zM183.998 428.998c-13.333 0 -25.499 -2.99902 -36.499 -8.99902
s-19.5 -16.667 -25.5 -32c-4 -9.33301 -6.66699 -28.833 -8 -58.5s-2.33301 -64.5 -3 -104.5c0 -22 0.333008 -43.5 1 -64.5s2.66699 -37.167 6 -48.5c9.33301 -30.667 31.333 -46 66 -46c14 0 26.333 4.16699 37 12.5s18.667 19.166 24 32.499
c1.33301 3.33301 2.66602 9.5 3.99902 18.5s2.5 19.667 3.5 32s1.66699 25.5 2 39.5s0.5 28 0.5 42s-0.166992 27.833 -0.5 41.5l-1 39.5c-0.333008 12.667 -1 24 -2 34s-2.5 18 -4.5 24c-9.33301 31.333 -30.333 47 -63 47zM56.999 587.999v67h239v-67h-239z" />
    <glyph glyph-name="Obreve" unicode="&#x14e;" horiz-adv-x="414" 
d="M367 187c0 -62 -12.1689 -109.832 -36.502 -143.499s-65.833 -50.5 -124.5 -50.5c-57.333 0 -98.166 15.667 -122.499 47s-36.5 72.666 -36.5 123.999v343c0 24.667 2.16699 48.667 6.5 72s12.333 44.166 24 62.499s27.834 33 48.501 44s47.667 16.5 81 16.5
c34.667 0 62.5 -4.83301 83.5 -14.5s37.167 -23.167 48.5 -40.5s18.833 -37.666 22.5 -60.999s5.5 -49 5.5 -77v-322zM287.998 522.001c0 12 -0.833984 24.334 -2.50098 37.001s-5.16699 24.167 -10.5 34.5s-13.5 19 -24.5 26s-25.5 10.5 -43.5 10.5
c-20 0 -35.333 -4.83301 -46 -14.5s-18.667 -21.167 -24 -34.5s-8.5 -27.5 -9.5 -42.5s-1.5 -27.5 -1.5 -37.5v-338c0 -10 1 -20.667 3 -32s6 -22 12 -32s14.167 -18.167 24.5 -24.5s23.833 -9.5 40.5 -9.5s30.334 3.33301 41.001 10s19 15.167 25 25.5
s10.167 22.166 12.5 35.499s3.5 27 3.5 41v345zM143.997 875.002c0.666992 -6.66699 2.66699 -13.667 6 -21s7.83301 -14.166 13.5 -20.499s12.5 -11.5 20.5 -15.5s17 -6 27 -6c10.667 0 20.167 2 28.5 6s15.5 9.16699 21.5 15.5s10.5 13.166 13.5 20.499s4.5 14.333 4.5 21
h63c-1.33301 -12.667 -4.66602 -26.167 -9.99902 -40.5s-13.333 -27.5 -24 -39.5s-24 -22 -40 -30s-35 -12 -57 -12c-24.667 0 -45.334 4 -62.001 12s-30.167 18 -40.5 30s-17.833 25.167 -22.5 39.5s-7 27.833 -7 40.5h65z" />
    <glyph glyph-name="obreve" unicode="&#x14f;" horiz-adv-x="362" 
d="M186 501c28 0 50.8311 -3.66895 68.498 -11.002s31.834 -17.5 42.501 -30.5s18.334 -28.333 23.001 -46s7.66699 -36.834 9 -57.501c1.33301 -19.333 2.33301 -40 3 -62s1 -41.667 1 -59c0 -38 -2 -76 -6 -114c-3.33301 -26.667 -10 -48.334 -20 -65.001
s-22.167 -29.667 -36.5 -39s-29.833 -15.666 -46.5 -18.999s-33 -5 -49 -5c-20.667 0 -38.5 2.66699 -53.5 8s-27.833 12.333 -38.5 21s-19.334 18.834 -26.001 30.501s-11.667 23.5 -15 35.5c-2 8 -3.66699 18 -5 30s-2.16602 25.167 -2.49902 39.5l-1 43.5
c-0.333008 14.667 -0.5 28.334 -0.5 41.001c0 16.667 0.333008 33.834 1 51.501s1.66699 34.5 3 50.5s3 30.5 5 43.5s4.66699 23.5 8 31.5c9.33301 25.333 25 45.333 47 60s51.667 22 89 22zM183.998 428.998c-13.333 0 -25.499 -2.99902 -36.499 -8.99902
s-19.5 -16.667 -25.5 -32c-4 -9.33301 -6.66699 -28.833 -8 -58.5s-2.33301 -64.5 -3 -104.5c0 -22 0.333008 -43.5 1 -64.5s2.66699 -37.167 6 -48.5c9.33301 -30.667 31.333 -46 66 -46c14 0 26.333 4.16699 37 12.5s18.667 19.166 24 32.499
c1.33301 3.33301 2.66602 9.5 3.99902 18.5s2.5 19.667 3.5 32s1.66699 25.5 2 39.5s0.5 28 0.5 42s-0.166992 27.833 -0.5 41.5l-1 39.5c-0.333008 12.667 -1 24 -2 34s-2.5 18 -4.5 24c-9.33301 31.333 -30.333 47 -63 47zM110.999 689.999
c0.666992 -6.66699 2.66699 -13.667 6 -21s7.83301 -14.166 13.5 -20.499s12.5 -11.5 20.5 -15.5s17 -6 27 -6c10.667 0 20.167 2 28.5 6s15.5 9.16699 21.5 15.5s10.5 13.166 13.5 20.499s4.5 14.333 4.5 21h63c-1.33301 -12.667 -4.66602 -26.167 -9.99902 -40.5
s-13.333 -27.5 -24 -39.5s-24 -22 -40 -30s-35 -12 -57 -12c-24.667 0 -45.334 4 -62.001 12s-30.167 18 -40.5 30s-17.833 25.167 -22.5 39.5s-7 27.833 -7 40.5h65z" />
    <glyph glyph-name="Ohungarumlaut" unicode="&#x150;" horiz-adv-x="414" 
d="M367 187c0 -62 -12.1689 -109.832 -36.502 -143.499s-65.833 -50.5 -124.5 -50.5c-57.333 0 -98.166 15.667 -122.499 47s-36.5 72.666 -36.5 123.999v343c0 24.667 2.16699 48.667 6.5 72s12.333 44.166 24 62.499s27.834 33 48.501 44s47.667 16.5 81 16.5
c34.667 0 62.5 -4.83301 83.5 -14.5s37.167 -23.167 48.5 -40.5s18.833 -37.666 22.5 -60.999s5.5 -49 5.5 -77v-322zM287.998 522.001c0 12 -0.833984 24.334 -2.50098 37.001s-5.16699 24.167 -10.5 34.5s-13.5 19 -24.5 26s-25.5 10.5 -43.5 10.5
c-20 0 -35.333 -4.83301 -46 -14.5s-18.667 -21.167 -24 -34.5s-8.5 -27.5 -9.5 -42.5s-1.5 -27.5 -1.5 -37.5v-338c0 -10 1 -20.667 3 -32s6 -22 12 -32s14.167 -18.167 24.5 -24.5s23.833 -9.5 40.5 -9.5s30.334 3.33301 41.001 10s19 15.167 25 25.5
s10.167 22.166 12.5 35.499s3.5 27 3.5 41v345zM96.9971 753.002l132 113l49 -57l-152 -92zM246.997 753.002l132 113l49 -57l-152 -92z" />
    <glyph glyph-name="ohungarumlaut" unicode="&#x151;" horiz-adv-x="362" 
d="M186 501c28 0 50.8311 -3.66895 68.498 -11.002s31.834 -17.5 42.501 -30.5s18.334 -28.333 23.001 -46s7.66699 -36.834 9 -57.501c1.33301 -19.333 2.33301 -40 3 -62s1 -41.667 1 -59c0 -38 -2 -76 -6 -114c-3.33301 -26.667 -10 -48.334 -20 -65.001
s-22.167 -29.667 -36.5 -39s-29.833 -15.666 -46.5 -18.999s-33 -5 -49 -5c-20.667 0 -38.5 2.66699 -53.5 8s-27.833 12.333 -38.5 21s-19.334 18.834 -26.001 30.501s-11.667 23.5 -15 35.5c-2 8 -3.66699 18 -5 30s-2.16602 25.167 -2.49902 39.5l-1 43.5
c-0.333008 14.667 -0.5 28.334 -0.5 41.001c0 16.667 0.333008 33.834 1 51.501s1.66699 34.5 3 50.5s3 30.5 5 43.5s4.66699 23.5 8 31.5c9.33301 25.333 25 45.333 47 60s51.667 22 89 22zM183.998 428.998c-13.333 0 -25.499 -2.99902 -36.499 -8.99902
s-19.5 -16.667 -25.5 -32c-4 -9.33301 -6.66699 -28.833 -8 -58.5s-2.33301 -64.5 -3 -104.5c0 -22 0.333008 -43.5 1 -64.5s2.66699 -37.167 6 -48.5c9.33301 -30.667 31.333 -46 66 -46c14 0 26.333 4.16699 37 12.5s18.667 19.166 24 32.499
c1.33301 3.33301 2.66602 9.5 3.99902 18.5s2.5 19.667 3.5 32s1.66699 25.5 2 39.5s0.5 28 0.5 42s-0.166992 27.833 -0.5 41.5l-1 39.5c-0.333008 12.667 -1 24 -2 34s-2.5 18 -4.5 24c-9.33301 31.333 -30.333 47 -63 47zM89.999 572.999l68 168l71 -25l-96 -160z
M191.999 572.999l68 168l71 -25l-96 -160z" />
    <glyph glyph-name="OE" unicode="&#x152;" horiz-adv-x="566" 
d="M260 0c-8 -2 -16.833 -3.66504 -26.5 -4.99805s-19.834 -2 -30.501 -2c-57.333 0 -98.333 15.667 -123 47s-37 72.666 -37 123.999v343c0 24.667 2.16699 48.667 6.5 72s12.333 44.166 24 62.499s27.834 33 48.501 44s47.667 16.5 81 16.5c22 0 41 -2 57 -6h291v-73h-219
v-233h190v-73h-190v-245h219v-72h-291zM202 65.002c21.333 0 38.333 5.66602 51 16.999v533c-6 4.66699 -13 8.33398 -21 11.001s-17.667 4 -29 4c-20 0 -35.333 -4.83301 -46 -14.5s-18.667 -21.167 -24 -34.5s-8.5 -27.5 -9.5 -42.5s-1.5 -27.5 -1.5 -37.5v-338
c0 -10 1 -20.667 3 -32s6 -22 12 -32s14.167 -18.167 24.5 -24.5s23.833 -9.5 40.5 -9.5z" />
    <glyph glyph-name="oe" unicode="&#x153;" horiz-adv-x="576" 
d="M402 -7c-26.667 0 -48.665 4.16309 -65.998 12.4961s-31.333 19.166 -42 32.499c-15.333 -18 -33.833 -30 -55.5 -36s-42.834 -9 -63.501 -9s-38.5 2.66699 -53.5 8s-27.833 12.333 -38.5 21s-19.334 18.834 -26.001 30.501s-11.667 23.5 -15 35.5
c-2 8 -3.66699 18 -5 30s-2.16602 25.167 -2.49902 39.5l-1 43.5c-0.333008 14.667 -0.5 28.334 -0.5 41.001c0 16.667 0.333008 33.834 1 51.501s1.5 34.5 2.5 50.5s2.5 30.5 4.5 43.5s4.66699 23.5 8 31.5c9.33301 25.333 25 45.333 47 60s51.667 22 89 22
c26.667 0 49.167 -4.16699 67.5 -12.5s33.166 -19.166 44.499 -32.499c12 14 27.167 25 45.5 33s40.833 12 67.5 12c49.333 0 85 -13.667 107 -41s33 -65 33 -113v-122h-212c0 -22 0.5 -43.667 1.5 -65s3.16699 -37.666 6.5 -48.999c9.33301 -30 30 -45 62 -45
c20.667 0 35.667 6.66699 45 20s15 29 17 47l79 -18c-3.33301 -17.333 -8 -33.5 -14 -48.5s-14.833 -28 -26.5 -39s-26.167 -19.5 -43.5 -25.5s-38.333 -9 -63 -9zM184.002 428.996c-13.333 0 -25.498 -2.99902 -36.498 -8.99902s-19.5 -16.667 -25.5 -32
c-5.33301 -12.667 -8.33301 -33 -9 -61s-1.33398 -62 -2.00098 -102c0 -22 0.333008 -43.5 1 -64.5s2.66699 -37.167 6 -48.5c9.33301 -30.667 31.333 -46 66 -46c14 0 26.333 4.16699 37 12.5s18.667 19.166 24 32.499c1.33301 3.33301 2.66602 9.5 3.99902 18.5
s2.5 19.667 3.5 32s1.66699 25.5 2 39.5s0.5 28 0.5 42s-0.166992 27.833 -0.5 41.5l-1 39.5c-0.333008 12.667 -1 24 -2 34s-2.5 18 -4.5 24c-9.33301 31.333 -30.333 47 -63 47zM470.004 288.997l-0.000976562 41.998c0 12.667 -0.833008 24.834 -2.5 36.501
s-4.83398 21.834 -9.50098 30.501s-11.167 15.5 -19.5 20.5s-19.166 7.5 -32.499 7.5c-12 0 -23 -2.83301 -33 -8.5s-18 -16.167 -24 -31.5c-3.33301 -9.33301 -5.66602 -22 -6.99902 -38s-2.33301 -35.667 -3 -59h131z" />
    <glyph glyph-name="Racute" unicode="&#x154;" horiz-adv-x="414" 
d="M306 0l-99.001 305.002h-75v-305h-79v696h153c56.667 0 98.334 -16.333 125.001 -49s40 -82.334 40 -149.001c0 -40 -6 -75.333 -18 -106s-36 -54.334 -72 -71.001l106 -321h-81zM290.999 498.002c0 18.667 -1.33105 35.665 -3.99805 50.998s-7.83398 28.5 -15.501 39.5
s-17.834 19.5 -30.501 25.5s-29 9 -49 9h-60v-245h67c18 0 33 2.83301 45 8.5s21.5 13.834 28.5 24.501s11.833 23.334 14.5 38.001s4 31 4 49zM142.001 753l142 113l49 -57l-162 -92z" />
    <glyph glyph-name="racute" unicode="&#x155;" horiz-adv-x="257" 
d="M131 438c12.667 25.333 27.333 42.168 44 50.501s37.667 12.5 63 12.5h9v-95c-5.33301 0.666992 -10.166 1.16699 -14.499 1.5s-8.83301 0.5 -13.5 0.5c-28.667 0 -50.834 -6.83301 -66.501 -20.5s-23.5 -37.834 -23.5 -72.501v-315h-79v494h79v-56h2zM92.999 573.002
l68 168l71 -25l-96 -160z" />
    <glyph glyph-name="Rcommaaccent" unicode="&#x156;" horiz-adv-x="414" 
d="M306 0l-99.001 305.002h-75v-305h-79v696h153c56.667 0 98.334 -16.333 125.001 -49s40 -82.334 40 -149.001c0 -40 -6 -75.333 -18 -106s-36 -54.334 -72 -71.001l106 -321h-81zM290.999 498.002c0 18.667 -1.33105 35.665 -3.99805 50.998s-7.83398 28.5 -15.501 39.5
s-17.834 19.5 -30.501 25.5s-29 9 -49 9h-60v-245h67c18 0 33 2.83301 45 8.5s21.5 13.834 28.5 24.501s11.833 23.334 14.5 38.001s4 31 4 49zM208.001 -231h-44l24 89h-21v97h86v-95z" />
    <glyph glyph-name="rcommaaccent" unicode="&#x157;" horiz-adv-x="257" 
d="M131 438c12.667 25.333 27.333 42.168 44 50.501s37.667 12.5 63 12.5h9v-95c-5.33301 0.666992 -10.166 1.16699 -14.499 1.5s-8.83301 0.5 -13.5 0.5c-28.667 0 -50.834 -6.83301 -66.501 -20.5s-23.5 -37.834 -23.5 -72.501v-315h-79v494h79v-56h2zM87.999 -250.998
h-44l24 89h-21v97h86v-95z" />
    <glyph glyph-name="Rcaron" unicode="&#x158;" horiz-adv-x="414" 
d="M306 0l-99.001 305.002h-75v-305h-79v696h153c56.667 0 98.334 -16.333 125.001 -49s40 -82.334 40 -149.001c0 -40 -6 -75.333 -18 -106s-36 -54.334 -72 -71.001l106 -321h-81zM290.999 498.002c0 18.667 -1.33105 35.665 -3.99805 50.998s-7.83398 28.5 -15.501 39.5
s-17.834 19.5 -30.501 25.5s-29 9 -49 9h-60v-245h67c18 0 33 2.83301 45 8.5s21.5 13.834 28.5 24.501s11.833 23.334 14.5 38.001s4 31 4 49zM293.001 875l34 -30l-123 -117h-47l-130 119l34 28l116 -74z" />
    <glyph glyph-name="rcaron" unicode="&#x159;" horiz-adv-x="257" 
d="M131 438c12.667 25.333 27.333 42.168 44 50.501s37.667 12.5 63 12.5h9v-95c-5.33301 0.666992 -10.166 1.16699 -14.499 1.5s-8.83301 0.5 -13.5 0.5c-28.667 0 -50.834 -6.83301 -66.501 -20.5s-23.5 -37.834 -23.5 -72.501v-315h-79v494h79v-56h2zM234.999 720.002
l34 -30l-123 -137h-47l-130 139l34 28l116 -94z" />
    <glyph glyph-name="Sacute" unicode="&#x15a;" horiz-adv-x="394" 
d="M360 190c0 -30 -2.83203 -57.001 -8.49902 -81.001s-15 -44.667 -28 -62s-29.833 -30.666 -50.5 -39.999s-46.334 -14 -77.001 -14c-28 0 -52.333 4 -73 12s-37.667 19.167 -51 33.5s-23.166 31.166 -29.499 50.499s-9.5 40.333 -9.5 63l79 16
c0 -13.333 1.33301 -25.833 4 -37.5s7.16699 -22.167 13.5 -31.5s15 -16.666 26 -21.999s24.5 -8 40.5 -8c20 0 35.833 3.16699 47.5 9.5s20.334 15 26.001 26s9.16699 23.833 10.5 38.5s2 30 2 46c0 20.667 -1 37.5 -3 50.5s-6.33301 24.333 -13 34
s-16.167 18.167 -28.5 25.5s-28.833 15.333 -49.5 24c-32.667 14 -58.834 28.167 -78.501 42.5s-34.834 29.333 -45.501 45s-17.667 32.334 -21 50.001s-5 37.167 -5 58.5c0 26.667 3.33301 51.167 10 73.5s16.834 41.666 30.501 57.999s30.834 29 51.501 38
s44.667 13.5 72 13.5c30 0 55.167 -4.66699 75.5 -14s36.666 -21.5 48.999 -36.5s21 -31.5 26 -49.5s7.5 -35.667 7.5 -53l-78 -20c0 31.333 -6.33301 55.5 -19 72.5s-34.334 25.5 -65.001 25.5c-17.333 0 -31.166 -3.33301 -41.499 -10s-18.5 -15.167 -24.5 -25.5
s-10 -21.833 -12 -34.5s-3 -25 -3 -37c0 -14.667 0.833008 -27.5 2.5 -38.5s6.16699 -21.333 13.5 -31s18.166 -19.167 32.499 -28.5s34.5 -19 60.5 -29c30 -12 53.833 -24.5 71.5 -37.5s31.167 -27.5 40.5 -43.5s15.333 -34 18 -54s4 -42.667 4 -68zM122.001 752.999
l142 113l49 -57l-162 -92z" />
    <glyph glyph-name="sacute" unicode="&#x15b;" horiz-adv-x="339" 
d="M111 140c-0.666992 -22.667 3.99805 -40.667 13.998 -54s24.667 -20 44 -20c24.667 0 41.667 5.66699 51 17s14 29.333 14 54c0 11.333 -1 21.166 -3 29.499s-5.66699 15.666 -11 21.999s-12.666 12.166 -21.999 17.499s-21.666 11 -36.999 17
c-25.333 9.33301 -46.166 19.333 -62.499 30s-29 22 -38 34s-15.167 24.667 -18.5 38s-5 27.333 -5 42c0 39.333 11.5 71.5 34.5 96.5s57.5 37.5 103.5 37.5c49.333 0 84.5 -12.167 105.5 -36.5s31.5 -57.5 31.5 -99.5l-82 -11c1.33301 26 -3.33398 44.833 -14.001 56.5
s-24.667 17.5 -42 17.5c-12 0 -22 -1.83301 -30 -5.5s-14.167 -8.5 -18.5 -14.5s-7.33301 -12.667 -9 -20s-2.5 -14.333 -2.5 -21c0 -8 1 -15.5 3 -22.5s6 -13.667 12 -20s14.333 -12.5 25 -18.5s25 -12 43 -18c24.667 -8.66699 44.5 -18.167 59.5 -28.5
s26.5 -21.666 34.5 -33.999s13.167 -25.666 15.5 -39.999s3.5 -30.166 3.5 -47.499c0 -44 -10.833 -79.167 -32.5 -105.5s-56.5 -39.5 -104.5 -39.5s-83.5 11.5 -106.5 34.5s-35.167 56.167 -36.5 99.5zM135.998 573l68 168l71 -25l-96 -160z" />
    <glyph glyph-name="Scircumflex" unicode="&#x15c;" horiz-adv-x="394" 
d="M360 190c0 -30 -2.83203 -57.001 -8.49902 -81.001s-15 -44.667 -28 -62s-29.833 -30.666 -50.5 -39.999s-46.334 -14 -77.001 -14c-28 0 -52.333 4 -73 12s-37.667 19.167 -51 33.5s-23.166 31.166 -29.499 50.499s-9.5 40.333 -9.5 63l79 16
c0 -13.333 1.33301 -25.833 4 -37.5s7.16699 -22.167 13.5 -31.5s15 -16.666 26 -21.999s24.5 -8 40.5 -8c20 0 35.833 3.16699 47.5 9.5s20.334 15 26.001 26s9.16699 23.833 10.5 38.5s2 30 2 46c0 20.667 -1 37.5 -3 50.5s-6.33301 24.333 -13 34
s-16.167 18.167 -28.5 25.5s-28.833 15.333 -49.5 24c-32.667 14 -58.834 28.167 -78.501 42.5s-34.834 29.333 -45.501 45s-17.667 32.334 -21 50.001s-5 37.167 -5 58.5c0 26.667 3.33301 51.167 10 73.5s16.834 41.666 30.501 57.999s30.834 29 51.501 38
s44.667 13.5 72 13.5c30 0 55.167 -4.66699 75.5 -14s36.666 -21.5 48.999 -36.5s21 -31.5 26 -49.5s7.5 -35.667 7.5 -53l-78 -20c0 31.333 -6.33301 55.5 -19 72.5s-34.334 25.5 -65.001 25.5c-17.333 0 -31.166 -3.33301 -41.499 -10s-18.5 -15.167 -24.5 -25.5
s-10 -21.833 -12 -34.5s-3 -25 -3 -37c0 -14.667 0.833008 -27.5 2.5 -38.5s6.16699 -21.333 13.5 -31s18.166 -19.167 32.499 -28.5s34.5 -19 60.5 -29c30 -12 53.833 -24.5 71.5 -37.5s31.167 -27.5 40.5 -43.5s15.333 -34 18 -54s4 -42.667 4 -68zM197.001 800.999
l-116 -74l-34 28l130 119h47l123 -117l-34 -30z" />
    <glyph glyph-name="scircumflex" unicode="&#x15d;" horiz-adv-x="339" 
d="M111 140c-0.666992 -22.667 3.99805 -40.667 13.998 -54s24.667 -20 44 -20c24.667 0 41.667 5.66699 51 17s14 29.333 14 54c0 11.333 -1 21.166 -3 29.499s-5.66699 15.666 -11 21.999s-12.666 12.166 -21.999 17.499s-21.666 11 -36.999 17
c-25.333 9.33301 -46.166 19.333 -62.499 30s-29 22 -38 34s-15.167 24.667 -18.5 38s-5 27.333 -5 42c0 39.333 11.5 71.5 34.5 96.5s57.5 37.5 103.5 37.5c49.333 0 84.5 -12.167 105.5 -36.5s31.5 -57.5 31.5 -99.5l-82 -11c1.33301 26 -3.33398 44.833 -14.001 56.5
s-24.667 17.5 -42 17.5c-12 0 -22 -1.83301 -30 -5.5s-14.167 -8.5 -18.5 -14.5s-7.33301 -12.667 -9 -20s-2.5 -14.333 -2.5 -21c0 -8 1 -15.5 3 -22.5s6 -13.667 12 -20s14.333 -12.5 25 -18.5s25 -12 43 -18c24.667 -8.66699 44.5 -18.167 59.5 -28.5
s26.5 -21.666 34.5 -33.999s13.167 -25.666 15.5 -39.999s3.5 -30.166 3.5 -47.499c0 -44 -10.833 -79.167 -32.5 -105.5s-56.5 -39.5 -104.5 -39.5s-83.5 11.5 -106.5 34.5s-35.167 56.167 -36.5 99.5zM179.998 646l-116 -94l-34 28l130 139h47l123 -137l-34 -30z" />
    <glyph glyph-name="Scedilla" unicode="&#x15e;" horiz-adv-x="394" 
d="M360 190c0 -28 -2.49707 -53.668 -7.49707 -77.001s-13.167 -43.5 -24.5 -60.5s-26.166 -30.5 -44.499 -40.5s-40.5 -16 -66.5 -18l-13 -49c15.333 -1.33301 28 -4.5 38 -9.5s17.833 -11.167 23.5 -18.5s9.66699 -15.166 12 -23.499s3.5 -16.166 3.5 -23.499
c0 -8 -1.5 -16.333 -4.5 -25s-7.66699 -16.667 -14 -24s-14.833 -13.333 -25.5 -18s-23.334 -7 -38.001 -7c-5.33301 0 -16.333 0.666992 -33 2s-32.334 5.66602 -47.001 12.999l13 36c11.333 -5.33301 21.666 -8.66602 30.999 -9.99902s18 -2 26 -2
c10 0 18.833 2.83301 26.5 8.5s11.5 14.167 11.5 25.5c0 12.667 -3.83301 22.5 -11.5 29.5s-21.167 9.83301 -40.5 8.5l-16 14l20 73c-50.667 3.33301 -87.667 19.666 -111 48.999s-35 65.666 -35 108.999l79 16c0 -13.333 1.33301 -25.833 4 -37.5
s7.16699 -22.167 13.5 -31.5s15 -16.666 26 -21.999s24.5 -8 40.5 -8c20 0 35.833 3.16699 47.5 9.5s20.334 15 26.001 26s9.16699 23.833 10.5 38.5s2 30 2 46c0 20.667 -1 37.5 -3 50.5s-6.33301 24.333 -13 34s-16.167 18.167 -28.5 25.5s-28.833 15.333 -49.5 24
c-32.667 14 -58.834 28.167 -78.501 42.5s-34.834 29.333 -45.501 45s-17.667 32.334 -21 50.001s-5 37.167 -5 58.5c0 26.667 3.33301 51.167 10 73.5s16.834 41.666 30.501 57.999s30.834 29 51.501 38s44.667 13.5 72 13.5c30 0 55.167 -4.66699 75.5 -14
s36.666 -21.5 48.999 -36.5s21 -31.5 26 -49.5s7.5 -35.667 7.5 -53l-78 -20c0 31.333 -6.33301 55.5 -19 72.5s-34.334 25.5 -65.001 25.5c-17.333 0 -31.166 -3.33301 -41.499 -10s-18.5 -15.167 -24.5 -25.5s-10 -21.833 -12 -34.5s-3 -25 -3 -37
c0 -14.667 0.833008 -27.5 2.5 -38.5s6.16699 -21.333 13.5 -31s18.166 -19.167 32.499 -28.5s34.5 -19 60.5 -29c30 -12 53.833 -24.5 71.5 -37.5s31.167 -27.5 40.5 -43.5s15.333 -34 18 -54s4 -42.667 4 -68z" />
    <glyph glyph-name="scedilla" unicode="&#x15f;" horiz-adv-x="339" 
d="M111 140c-0.666992 -22.667 4 -40.668 14 -54.001s24.667 -20 44 -20c24.667 0 41.667 5.66699 51 17s14 29.333 14 54c0 11.333 -1 21.166 -3 29.499s-5.66699 15.666 -11 21.999s-12.666 12.166 -21.999 17.499s-21.666 11 -36.999 17
c-25.333 9.33301 -46.166 19.333 -62.499 30s-29 22 -38 34s-15.167 24.667 -18.5 38s-5 27.333 -5 42c0 39.333 11.5 71.5 34.5 96.5s57.5 37.5 103.5 37.5c49.333 0 84.5 -12.167 105.5 -36.5s31.5 -57.5 31.5 -99.5l-82 -11c1.33301 26 -3.33398 44.833 -14.001 56.5
s-24.667 17.5 -42 17.5c-12 0 -22 -1.83301 -30 -5.5s-14.167 -8.5 -18.5 -14.5s-7.33301 -12.667 -9 -20s-2.5 -14.333 -2.5 -21c0 -8 1 -15.5 3 -22.5s6 -13.667 12 -20s14.333 -12.5 25 -18.5s25 -12 43 -18c24.667 -8.66699 44.5 -18.167 59.5 -28.5
s26.5 -21.666 34.5 -33.999s13.167 -25.666 15.5 -39.999s3.5 -30.166 3.5 -47.499c0 -42 -9.66699 -75.833 -29 -101.5s-50.666 -39.834 -93.999 -42.501l-13 -49c15.333 -1.33301 28 -4.5 38 -9.5s17.833 -11.167 23.5 -18.5s9.66699 -15.166 12 -23.499
s3.5 -16.166 3.5 -23.499c0 -8 -1.5 -16.333 -4.5 -25s-7.66699 -16.667 -14 -24s-14.833 -13.333 -25.5 -18s-23.334 -7 -38.001 -7c-5.33301 0 -16.333 0.666992 -33 2s-32.334 5.66602 -47.001 12.999l13 36c11.333 -5.33301 21.666 -8.66602 30.999 -9.99902
s18 -2 26 -2c10 0 18.833 2.83301 26.5 8.5s11.5 14.167 11.5 25.5c0 12.667 -3.83301 22.5 -11.5 29.5s-21.167 9.83301 -40.5 8.5l-16 14l20 73c-40 3.33301 -69.5 16.333 -88.5 39s-29.167 54 -30.5 94z" />
    <glyph glyph-name="Scaron" unicode="&#x160;" horiz-adv-x="394" 
d="M360 190c0 -30 -2.83203 -57.001 -8.49902 -81.001s-15 -44.667 -28 -62s-29.833 -30.666 -50.5 -39.999s-46.334 -14 -77.001 -14c-28 0 -52.333 4 -73 12s-37.667 19.167 -51 33.5s-23.166 31.166 -29.499 50.499s-9.5 40.333 -9.5 63l79 16
c0 -13.333 1.33301 -25.833 4 -37.5s7.16699 -22.167 13.5 -31.5s15 -16.666 26 -21.999s24.5 -8 40.5 -8c20 0 35.833 3.16699 47.5 9.5s20.334 15 26.001 26s9.16699 23.833 10.5 38.5s2 30 2 46c0 20.667 -1 37.5 -3 50.5s-6.33301 24.333 -13 34
s-16.167 18.167 -28.5 25.5s-28.833 15.333 -49.5 24c-32.667 14 -58.834 28.167 -78.501 42.5s-34.834 29.333 -45.501 45s-17.667 32.334 -21 50.001s-5 37.167 -5 58.5c0 26.667 3.33301 51.167 10 73.5s16.834 41.666 30.501 57.999s30.834 29 51.501 38
s44.667 13.5 72 13.5c30 0 55.167 -4.66699 75.5 -14s36.666 -21.5 48.999 -36.5s21 -31.5 26 -49.5s7.5 -35.667 7.5 -53l-78 -20c0 31.333 -6.33301 55.5 -19 72.5s-34.334 25.5 -65.001 25.5c-17.333 0 -31.166 -3.33301 -41.499 -10s-18.5 -15.167 -24.5 -25.5
s-10 -21.833 -12 -34.5s-3 -25 -3 -37c0 -14.667 0.833008 -27.5 2.5 -38.5s6.16699 -21.333 13.5 -31s18.166 -19.167 32.499 -28.5s34.5 -19 60.5 -29c30 -12 53.833 -24.5 71.5 -37.5s31.167 -27.5 40.5 -43.5s15.333 -34 18 -54s4 -42.667 4 -68zM313.001 874.999
l34 -30l-123 -117h-47l-130 119l34 28l116 -74z" />
    <glyph glyph-name="scaron" unicode="&#x161;" horiz-adv-x="339" 
d="M111 140c-0.666992 -22.667 3.99805 -40.667 13.998 -54s24.667 -20 44 -20c24.667 0 41.667 5.66699 51 17s14 29.333 14 54c0 11.333 -1 21.166 -3 29.499s-5.66699 15.666 -11 21.999s-12.666 12.166 -21.999 17.499s-21.666 11 -36.999 17
c-25.333 9.33301 -46.166 19.333 -62.499 30s-29 22 -38 34s-15.167 24.667 -18.5 38s-5 27.333 -5 42c0 39.333 11.5 71.5 34.5 96.5s57.5 37.5 103.5 37.5c49.333 0 84.5 -12.167 105.5 -36.5s31.5 -57.5 31.5 -99.5l-82 -11c1.33301 26 -3.33398 44.833 -14.001 56.5
s-24.667 17.5 -42 17.5c-12 0 -22 -1.83301 -30 -5.5s-14.167 -8.5 -18.5 -14.5s-7.33301 -12.667 -9 -20s-2.5 -14.333 -2.5 -21c0 -8 1 -15.5 3 -22.5s6 -13.667 12 -20s14.333 -12.5 25 -18.5s25 -12 43 -18c24.667 -8.66699 44.5 -18.167 59.5 -28.5
s26.5 -21.666 34.5 -33.999s13.167 -25.666 15.5 -39.999s3.5 -30.166 3.5 -47.499c0 -44 -10.833 -79.167 -32.5 -105.5s-56.5 -39.5 -104.5 -39.5s-83.5 11.5 -106.5 34.5s-35.167 56.167 -36.5 99.5zM288.998 720l34 -30l-123 -137h-47l-130 139l34 28l116 -94z" />
    <glyph glyph-name="Tcommaaccent" unicode="&#x162;" horiz-adv-x="320" 
d="M200 624v-624h-80v624h-118v72h316v-72h-118zM160 -251h-44l24 89h-21v97h86v-95z" />
    <glyph glyph-name="tcommaaccent" unicode="&#x163;" horiz-adv-x="226" 
d="M142 494l64.001 -0.00195312v-61h-64v-298c0 -25.333 4.16699 -41.666 12.5 -48.999s20.166 -11 35.499 -11h15v-75h-40c-21.333 0 -38.666 3.33301 -51.999 10s-23.833 15.334 -31.5 26.001s-12.834 22.5 -15.501 35.5s-4 25.833 -4 38.5v323h-52v61h54v121h78v-121z
M114.001 -251.002h-44l24 89h-21v97h86v-95z" />
    <glyph glyph-name="Tcaron" unicode="&#x164;" horiz-adv-x="320" 
d="M200 624v-624h-80v624h-118v72h316v-72h-118zM276 875l34 -30l-123 -117h-47l-130 119l34 28l116 -74z" />
    <glyph glyph-name="tcaron" unicode="&#x165;" horiz-adv-x="308" 
d="M250 548h-44l24 89h-21v97h86v-95zM148 494l64.001 -0.00195312v-61h-64v-298c0 -25.333 4.16699 -41.666 12.5 -48.999s20.166 -11 35.499 -11h15v-75h-40c-21.333 0 -38.666 3.33301 -51.999 10s-23.833 15.334 -31.5 26.001s-12.834 22.5 -15.501 35.5
s-4 25.833 -4 38.5v323h-52v61h54v121h78v-121z" />
    <glyph glyph-name="Tbar" unicode="&#x166;" horiz-adv-x="320" 
d="M200 624v-210h98v-55h-98v-359h-80v359h-97v55h97v210h-118v72h316v-72h-118z" />
    <glyph glyph-name="tbar" unicode="&#x167;" horiz-adv-x="226" 
d="M142 494l64.001 -0.00195312v-61h-64v-122h64v-55h-64v-121c0 -25.333 4.16699 -41.666 12.5 -48.999s20.166 -11 35.499 -11h15v-75h-40c-21.333 0 -38.666 3.33301 -51.999 10s-23.833 15.334 -31.5 26.001s-12.834 22.5 -15.501 35.5s-4 25.833 -4 38.5v146h-52v55h52
v122h-52v61h54v121h78v-121z" />
    <glyph glyph-name="Utilde" unicode="&#x168;" horiz-adv-x="420" 
d="M370 695l-0.000976562 -507.998c0 -62 -12 -109.833 -36 -143.5s-65.333 -50.5 -124 -50.5c-57.333 0 -98.333 15.667 -123 47s-37 72.666 -37 123.999v531h79v-532c0 -10 1 -20.667 3 -32s6 -22 12 -32s14.167 -18.167 24.5 -24.5s23.833 -9.5 40.5 -9.5
s30.334 3.33301 41.001 10s19 15.167 25 25.5s10.167 22.166 12.5 35.499s3.5 27 3.5 41v518h79zM349.999 823.002c-12.667 -23.333 -26.998 -41.667 -42.998 -55s-31.333 -20 -46 -20c-10 0 -19.833 2 -29.5 6s-19 8.16699 -28 12.5l-25.5 12.5c-8 4 -16 6 -24 6
c-18.667 0 -36.334 -12 -53.001 -36l-40 25c4 8.66699 9.16699 17.334 15.5 26.001s13.166 16.667 20.499 24s15.333 13.333 24 18s17.667 7 27 7c10 0 19.333 -2 28 -6s17.5 -8.33301 26.5 -13s18.167 -9 27.5 -13s19 -6 29 -6c9.33301 0 17.833 3.16699 25.5 9.5
s16.5 16.166 26.5 29.499z" />
    <glyph glyph-name="utilde" unicode="&#x169;" horiz-adv-x="369" 
d="M250 50h-3c-23.333 -36 -57 -54 -101 -54c-36.667 0 -64.167 11.833 -82.5 35.5s-27.5 54.5 -27.5 92.5v371h80v-350c0 -48.667 21.333 -73 64 -73c19.333 0 36 7 50 21s21 32.667 21 56v346h78v-494h-79v49zM328 653c-12.667 -23.333 -26.998 -41.667 -42.998 -55
s-31.333 -20 -46 -20c-10 0 -19.833 2 -29.5 6s-19 8.16699 -28 12.5l-25.5 12.5c-8 4 -16 6 -24 6c-18.667 0 -36.334 -12 -53.001 -36l-40 25c4 8.66699 9.16699 17.334 15.5 26.001s13.166 16.667 20.499 24s15.333 13.333 24 18s17.667 7 27 7c10 0 19.333 -2 28 -6
s17.5 -8.33301 26.5 -13s18.167 -9 27.5 -13s19 -6 29 -6c9.33301 0 17.833 3.16699 25.5 9.5s16.5 16.166 26.5 29.499z" />
    <glyph glyph-name="Umacron" unicode="&#x16a;" horiz-adv-x="420" 
d="M370 695l-0.000976562 -507.998c0 -62 -12 -109.833 -36 -143.5s-65.333 -50.5 -124 -50.5c-57.333 0 -98.333 15.667 -123 47s-37 72.666 -37 123.999v531h79v-532c0 -10 1 -20.667 3 -32s6 -22 12 -32s14.167 -18.167 24.5 -24.5s23.833 -9.5 40.5 -9.5
s30.334 3.33301 41.001 10s19 15.167 25 25.5s10.167 22.166 12.5 35.499s3.5 27 3.5 41v518h79zM92.999 752.002v67h239v-67h-239z" />
    <glyph glyph-name="umacron" unicode="&#x16b;" horiz-adv-x="369" 
d="M250 50h-3c-23.333 -36 -57 -54 -101 -54c-36.667 0 -64.167 11.833 -82.5 35.5s-27.5 54.5 -27.5 92.5v371h80v-350c0 -48.667 21.333 -73 64 -73c19.333 0 36 7 50 21s21 32.667 21 56v346h78v-494h-79v49zM69 588v67h239v-67h-239z" />
    <glyph glyph-name="Ubreve" unicode="&#x16c;" horiz-adv-x="420" 
d="M370 695l-0.000976562 -507.998c0 -62 -12 -109.833 -36 -143.5s-65.333 -50.5 -124 -50.5c-57.333 0 -98.333 15.667 -123 47s-37 72.666 -37 123.999v531h79v-532c0 -10 1 -20.667 3 -32s6 -22 12 -32s14.167 -18.167 24.5 -24.5s23.833 -9.5 40.5 -9.5
s30.334 3.33301 41.001 10s19 15.167 25 25.5s10.167 22.166 12.5 35.499s3.5 27 3.5 41v518h79zM147.999 875.002c0.666992 -6.66699 2.66699 -13.667 6 -21s7.83301 -14.166 13.5 -20.499s12.5 -11.5 20.5 -15.5s17 -6 27 -6c10.667 0 20.167 2 28.5 6
s15.5 9.16699 21.5 15.5s10.5 13.166 13.5 20.499s4.5 14.333 4.5 21h63c-1.33301 -12.667 -4.66602 -26.167 -9.99902 -40.5s-13.333 -27.5 -24 -39.5s-24 -22 -40 -30s-35 -12 -57 -12c-24.667 0 -45.334 4 -62.001 12s-30.167 18 -40.5 30s-17.833 25.167 -22.5 39.5
s-7 27.833 -7 40.5h65z" />
    <glyph glyph-name="ubreve" unicode="&#x16d;" horiz-adv-x="369" 
d="M250 50h-3c-23.333 -36 -57 -54 -101 -54c-36.667 0 -64.167 11.833 -82.5 35.5s-27.5 54.5 -27.5 92.5v371h80v-350c0 -48.667 21.333 -73 64 -73c19.333 0 36 7 50 21s21 32.667 21 56v346h78v-494h-79v49zM118 690c0.666992 -6.66699 2.66699 -13.667 6 -21
s7.83301 -14.166 13.5 -20.499s12.5 -11.5 20.5 -15.5s17 -6 27 -6c10.667 0 20.167 2 28.5 6s15.5 9.16699 21.5 15.5s10.5 13.166 13.5 20.499s4.5 14.333 4.5 21h63c-1.33301 -12.667 -4.66602 -26.167 -9.99902 -40.5s-13.333 -27.5 -24 -39.5s-24 -22 -40 -30
s-35 -12 -57 -12c-24.667 0 -45.334 4 -62.001 12s-30.167 18 -40.5 30s-17.833 25.167 -22.5 39.5s-7 27.833 -7 40.5h65z" />
    <glyph glyph-name="Uring" unicode="&#x16e;" horiz-adv-x="420" 
d="M370 695l-0.000976562 -507.998c0 -62 -12 -109.833 -36 -143.5s-65.333 -50.5 -124 -50.5c-57.333 0 -98.333 15.667 -123 47s-37 72.666 -37 123.999v531h79v-532c0 -10 1 -20.667 3 -32s6 -22 12 -32s14.167 -18.167 24.5 -24.5s23.833 -9.5 40.5 -9.5
s30.334 3.33301 41.001 10s19 15.167 25 25.5s10.167 22.166 12.5 35.499s3.5 27 3.5 41v518h79zM211.999 704.002c-12.667 0 -24.5 2.33105 -35.5 6.99805s-20.667 11 -29 19s-14.833 17.5 -19.5 28.5s-7 22.833 -7 35.5s2.33301 24.5 7 35.5s11.167 20.5 19.5 28.5
s18 14.333 29 19s22.833 7 35.5 7c25.333 0 46.666 -8.66699 63.999 -26s26 -38.666 26 -63.999s-8.66699 -46.666 -26 -63.999s-38.666 -26 -63.999 -26zM211.999 840c-13.333 0 -24.666 -4.5 -33.999 -13.5s-14 -20.167 -14 -33.5s4.66699 -24.666 14 -33.999
s20.666 -14 33.999 -14s24.5 4.66699 33.5 14s13.5 20.666 13.5 33.999s-4.5 24.5 -13.5 33.5s-20.167 13.5 -33.5 13.5z" />
    <glyph glyph-name="uring" unicode="&#x16f;" horiz-adv-x="369" 
d="M250 50h-3c-23.333 -36 -57 -54 -101 -54c-36.667 0 -64.167 11.833 -82.5 35.5s-27.5 54.5 -27.5 92.5v371h80v-350c0 -48.667 21.333 -73 64 -73c19.333 0 36 7 50 21s21 32.667 21 56v346h78v-494h-79v49zM192 542c-12.667 0 -24.5 2.33105 -35.5 6.99805
s-20.667 11 -29 19s-14.833 17.5 -19.5 28.5s-7 22.833 -7 35.5s2.33301 24.5 7 35.5s11.167 20.5 19.5 28.5s18 14.333 29 19s22.833 7 35.5 7c25.333 0 46.666 -8.66699 63.999 -26s26 -38.666 26 -63.999s-8.66699 -46.666 -26 -63.999s-38.666 -26 -63.999 -26z
M192 677.998c-13.333 0 -24.666 -4.5 -33.999 -13.5s-14 -20.167 -14 -33.5s4.66699 -24.666 14 -33.999s20.666 -14 33.999 -14s24.5 4.66699 33.5 14s13.5 20.666 13.5 33.999s-4.5 24.5 -13.5 33.5s-20.167 13.5 -33.5 13.5z" />
    <glyph glyph-name="Uhungarumlaut" unicode="&#x170;" horiz-adv-x="420" 
d="M370 695l-0.000976562 -507.998c0 -62 -12 -109.833 -36 -143.5s-65.333 -50.5 -124 -50.5c-57.333 0 -98.333 15.667 -123 47s-37 72.666 -37 123.999v531h79v-532c0 -10 1 -20.667 3 -32s6 -22 12 -32s14.167 -18.167 24.5 -24.5s23.833 -9.5 40.5 -9.5
s30.334 3.33301 41.001 10s19 15.167 25 25.5s10.167 22.166 12.5 35.499s3.5 27 3.5 41v518h79zM86.999 753.002l132 113l49 -57l-152 -92zM236.999 753.002l132 113l49 -57l-152 -92z" />
    <glyph glyph-name="uhungarumlaut" unicode="&#x171;" horiz-adv-x="369" 
d="M250 50h-3c-23.333 -36 -57 -54 -101 -54c-36.667 0 -64.167 11.833 -82.5 35.5s-27.5 54.5 -27.5 92.5v371h80v-350c0 -48.667 21.333 -73 64 -73c19.333 0 36 7 50 21s21 32.667 21 56v346h78v-494h-79v49zM94 573l68 168l71 -25l-96 -160zM196 573l68 168l71 -25
l-96 -160z" />
    <glyph glyph-name="Uogonek" unicode="&#x172;" horiz-adv-x="420" 
d="M162 -90c0 12.667 1.99609 25.501 5.99609 38.501s11 28.167 21 45.5c-49.333 3.33301 -84.833 20.5 -106.5 51.5s-32.5 70.5 -32.5 118.5v531h79v-532c0 -10 1 -20.667 3 -32s6 -22 12 -32s14.167 -18.167 24.5 -24.5s23.833 -9.5 40.5 -9.5s30.334 3.33301 41.001 10
s19 15.167 25 25.5s10.167 22.166 12.5 35.499s3.5 27 3.5 41v518h79v-508c0 -56.667 -9.66699 -101.334 -29 -134.001s-52.666 -52 -99.999 -58c-16 -27.333 -24 -50.666 -24 -69.999c0 -17.333 3.83301 -29 11.5 -35s17.834 -9 30.501 -9c7.33301 0 15 1 23 3
s17 5.66699 27 11l17 -48c-11.333 -7.33301 -24.166 -13.333 -38.499 -18s-28.166 -7 -41.499 -7c-24.667 0 -44.834 7.66699 -60.501 23s-23.5 37 -23.5 65z" />
    <glyph glyph-name="uogonek" unicode="&#x173;" horiz-adv-x="369" 
d="M218 -90c0 13.333 2.33105 27.167 6.99805 41.5s13 30.833 25 49.5v49h-3c-23.333 -36 -57 -54 -101 -54c-36.667 0 -64.167 11.833 -82.5 35.5s-27.5 54.5 -27.5 92.5v371h80v-350c0 -48.667 21.333 -73 64 -73c19.333 0 36 7 50 21s21 32.667 21 56v346h78v-494h-28
c-9.33301 -15.333 -16.333 -29 -21 -41s-7 -23.667 -7 -35c0 -17.333 3.83301 -29 11.5 -35s17.834 -9 30.501 -9c7.33301 0 15 1 23 3s17 5.66699 27 11l17 -48c-11.333 -7.33301 -24.166 -13.333 -38.499 -18s-28.166 -7 -41.499 -7c-24.667 0 -44.834 7.66699 -60.501 23
s-23.5 37 -23.5 65z" />
    <glyph glyph-name="Wcircumflex" unicode="&#x174;" horiz-adv-x="581" 
d="M456 -1h-74l-61 329l-30 180h-3l-31 -184l-60 -325h-73l-101 697h82l37 -297l22 -200h3l32 198l55 299h73l53 -295l34 -202h3l22 204l35 293h83zM290 801l-116 -74l-34 28l130 119h47l123 -117l-34 -30z" />
    <glyph glyph-name="wcircumflex" unicode="&#x175;" horiz-adv-x="550" 
d="M429 0h-81l-34 150l-38 187h-4l-36 -180l-35 -157h-80l-111 494h83l35 -179l35 -190h3l34 192l36 177h81l33 -172l36 -200h3l34 196l34 176h83zM275 646l-116 -94l-34 28l130 139h47l123 -137l-34 -30z" />
    <glyph glyph-name="Ycircumflex" unicode="&#x176;" horiz-adv-x="376" 
d="M190 408l90 288h83l-136 -402v-295h-78v295l-136 402h83l51 -163l39 -125h4zM189 801l-116 -74l-34 28l130 119h47l123 -117l-34 -30z" />
    <glyph glyph-name="ycircumflex" unicode="&#x177;" horiz-adv-x="336" 
d="M191 -83c-8 -33.333 -20.667 -60.166 -38 -80.499s-43.666 -30.5 -78.999 -30.5h-30v68h20c18.667 0 32.167 6.16699 40.5 18.5s16.166 35.166 23.499 68.499l8 35l-131 498h84l42 -189l40 -171h3l37 173l41 187h81zM174 646l-116 -94l-34 28l130 139h47l123 -137
l-34 -30z" />
    <glyph glyph-name="Ydieresis" unicode="&#x178;" horiz-adv-x="376" 
d="M190 408l90 288h83l-136 -402v-295h-78v295l-136 402h83l51 -163l39 -125h4zM76 752v80h69v-80h-69zM230 752v80h68v-80h-68z" />
    <glyph glyph-name="Zacute" unicode="&#x179;" horiz-adv-x="321" 
d="M302 624l-201 -552h200v-72h-281v72l203 552h-193v72h272v-72zM132 753l142 113l49 -57l-162 -92z" />
    <glyph glyph-name="zacute" unicode="&#x17a;" horiz-adv-x="306" 
d="M283 424l-174 -349h174v-75h-260v75l174 349h-161v69h247v-69zM136 573l68 168l71 -25l-96 -160z" />
    <glyph glyph-name="Zdotaccent" unicode="&#x17b;" horiz-adv-x="321" 
d="M302 624l-201 -552h200v-72h-281v72l203 552h-193v72h272v-72zM145 772v80h68v-80h-68z" />
    <glyph glyph-name="zdotaccent" unicode="&#x17c;" horiz-adv-x="306" 
d="M283 424l-174 -349h174v-75h-260v75l174 349h-161v69h247v-69zM132 602v80h68v-80h-68z" />
    <glyph glyph-name="Zcaron" unicode="&#x17d;" horiz-adv-x="321" 
d="M302 624l-201 -552h200v-72h-281v72l203 552h-193v72h272v-72zM281 875l34 -30l-123 -117h-47l-130 119l34 28l116 -74z" />
    <glyph glyph-name="zcaron" unicode="&#x17e;" horiz-adv-x="306" 
d="M283 424l-174 -349h174v-75h-260v75l174 349h-161v69h247v-69zM278 720l34 -30l-123 -137h-47l-130 139l34 28l116 -94z" />
    <glyph glyph-name="florin" unicode="&#x192;" horiz-adv-x="380" 
d="M93 417h77.9961l12 91c2.66699 22.667 6.66699 45.334 12 68.001s13.333 42.667 24 60s24.5 31.5 41.5 42.5s38.5 16.5 64.5 16.5c11.333 0 22.5 -1 33.5 -3s20.5 -5 28.5 -9c-2.66699 -13.333 -5.16699 -25 -7.5 -35s-4.83301 -21.667 -7.5 -35
c-7.33301 3.33301 -15.833 5.83301 -25.5 7.5s-18.167 2.5 -25.5 2.5c-23.333 0 -39.833 -10.333 -49.5 -31s-16.167 -47 -19.5 -79l-13 -96h82v-69h-90l-29 -243c-3.33301 -32 -7.83301 -60 -13.5 -84s-13.5 -44.333 -23.5 -61s-22.5 -29.167 -37.5 -37.5
s-33.167 -12.5 -54.5 -12.5c-11.333 0 -23.666 1.5 -36.999 4.5s-25.666 7.16699 -36.999 12.5c3.33301 13.333 6.5 23.666 9.5 30.999s6.5 17.333 10.5 30c8.66699 -4 16.834 -6.66699 24.501 -8s14.834 -2 21.501 -2c22 0 37.5 10.5 46.5 31.5s15.833 52.5 20.5 94.5
l30 244h-69v69z" />
    <glyph glyph-name="Ohorn" unicode="&#x1a0;" horiz-adv-x="440" 
d="M367 187c0 -62 -12.1689 -109.832 -36.502 -143.499s-65.833 -50.5 -124.5 -50.5c-57.333 0 -98.166 15.667 -122.499 47s-36.5 72.666 -36.5 123.999v343c0 24.667 2.16699 48.667 6.5 72s12.333 44.166 24 62.499s27.834 33 48.501 44s47.667 16.5 81 16.5
c34 0 61.5 -4.66699 82.5 -14s37.167 -22.666 48.5 -39.999c16.667 3.33301 28.167 10.833 34.5 22.5s9.5 31.5 9.5 59.5v46h70v-41c0 -46 -6.83301 -81.167 -20.5 -105.5s-37.167 -39.5 -70.5 -45.5c4 -23.333 6 -48.333 6 -75v-322zM287.998 522.001
c0 12 -0.833984 24.334 -2.50098 37.001s-5.16699 24.167 -10.5 34.5s-13.5 19 -24.5 26s-25.5 10.5 -43.5 10.5c-20 0 -35.333 -4.83301 -46 -14.5s-18.667 -21.167 -24 -34.5s-8.5 -27.5 -9.5 -42.5s-1.5 -27.5 -1.5 -37.5v-338c0 -10 1 -20.667 3 -32s6 -22 12 -32
s14.167 -18.167 24.5 -24.5s23.833 -9.5 40.5 -9.5s30.334 3.33301 41.001 10s19 15.167 25 25.5s10.167 22.166 12.5 35.499s3.5 27 3.5 41v345z" />
    <glyph glyph-name="ohorn" unicode="&#x1a1;" horiz-adv-x="410" 
d="M186 501c30 0 54.168 -4.1709 72.501 -12.5039s32.833 -20.166 43.5 -35.499c16 2.66699 27.167 10 33.5 22s9.5 31.667 9.5 59v46h70v-41c0 -46 -6.83301 -81 -20.5 -105s-36.834 -39.333 -69.501 -46l4 -32c1.33301 -19.333 2.33301 -40 3 -62s1 -41.667 1 -59
c0 -38 -2 -76 -6 -114c-3.33301 -26.667 -10 -48.334 -20 -65.001s-22.167 -29.667 -36.5 -39s-29.833 -15.666 -46.5 -18.999s-33 -5 -49 -5c-20.667 0 -38.5 2.66699 -53.5 8s-27.833 12.333 -38.5 21s-19.334 18.834 -26.001 30.501s-11.667 23.5 -15 35.5
c-2 8 -3.66699 18 -5 30s-2.16602 25.167 -2.49902 39.5l-1 43.5c-0.333008 14.667 -0.5 28.334 -0.5 41.001c0 16.667 0.333008 33.834 1 51.501s1.66699 34.5 3 50.5s3 30.5 5 43.5s4.66699 23.5 8 31.5c9.33301 25.333 25 45.333 47 60s51.667 22 89 22zM184.001 428.996
c-13.333 0 -25.499 -2.99902 -36.499 -8.99902s-19.5 -16.667 -25.5 -32c-4 -9.33301 -6.66699 -28.833 -8 -58.5s-2.33301 -64.5 -3 -104.5c0 -22 0.333008 -43.5 1 -64.5s2.66699 -37.167 6 -48.5c9.33301 -30.667 31.333 -46 66 -46c14 0 26.333 4.16699 37 12.5
s18.667 19.166 24 32.499c1.33301 3.33301 2.66602 9.5 3.99902 18.5s2.5 19.667 3.5 32s1.66699 25.5 2 39.5s0.5 28 0.5 42s-0.166992 27.833 -0.5 41.5l-1 39.5c-0.333008 12.667 -1 24 -2 34s-2.5 18 -4.5 24c-9.33301 31.333 -30.333 47 -63 47z" />
    <glyph glyph-name="Uhorn" unicode="&#x1af;" horiz-adv-x="463" 
d="M370 695v-46.998c17.333 2 29.5 9 36.5 21s10.5 32.333 10.5 61v46h70v-41c0 -51.333 -8.83301 -89.333 -26.5 -114s-47.834 -38 -90.501 -40v-394c0 -62 -12 -109.833 -36 -143.5s-65.333 -50.5 -124 -50.5c-57.333 0 -98.333 15.667 -123 47s-37 72.666 -37 123.999
v531h79v-532c0 -10 1 -20.667 3 -32s6 -22 12 -32s14.167 -18.167 24.5 -24.5s23.833 -9.5 40.5 -9.5s30.334 3.33301 41.001 10s19 15.167 25 25.5s10.167 22.166 12.5 35.499s3.5 27 3.5 41v518h79z" />
    <glyph glyph-name="uhorn" unicode="&#x1b0;" horiz-adv-x="443" 
d="M250 50h-3c-23.333 -36 -57 -54 -101 -54c-36.667 0 -64.167 11.833 -82.5 35.5s-27.5 54.5 -27.5 92.5v371h80v-350c0 -48.667 21.333 -73 64 -73c19.333 0 36 7 50 21s21 32.667 21 56v346h78v-43c18 2 30.5 9 37.5 21s10.5 32.333 10.5 61v46h70v-41
c0 -51.333 -8.83301 -89.5 -26.5 -114.5s-48.167 -38.167 -91.5 -39.5v-384h-79v49z" />
    <glyph glyph-name="AEacute" unicode="&#x1fc;" horiz-adv-x="624" 
d="M300 182h-154l-62 -182h-80l250 696h344v-73h-219v-233h190v-73h-190v-244h219v-73h-298v182zM172 256h128v367h-3zM364 753l142 113l49 -57l-162 -92z" />
    <glyph glyph-name="aeacute" unicode="&#x1fd;" horiz-adv-x="557" 
d="M383 -7c-32 0 -57.332 5.83203 -75.999 17.499s-33 25.834 -43 42.501c-18.667 -24 -38.167 -39.833 -58.5 -47.5s-38.166 -11.5 -53.499 -11.5c-26 0 -47.333 4.16699 -64 12.5s-29.834 19.333 -39.501 33s-16.334 29 -20.001 46s-5.5 34.5 -5.5 52.5
c0 18.667 2.33301 37.167 7 55.5s12.334 35 23.001 50s24.5 27.167 41.5 36.5s38.167 14 63.5 14h78v69c0 19.333 -5.33301 34.666 -16 45.999s-27 17 -49 17c-13.333 0 -26.333 -4 -39 -12s-20.667 -21 -24 -39l-75 21c7.33301 32.667 24.333 58.334 51 77.001s57 28 91 28
c30 0 53 -4.16699 69 -12.5s28 -18.5 36 -30.5c12 13.333 27.167 23.833 45.5 31.5s40.166 11.5 65.499 11.5c49.333 0 85 -13.667 107 -41s33 -65 33 -113v-118h-212c0 -22 0.5 -44.333 1.5 -67s3.16699 -39.667 6.5 -51c9.33301 -30 30 -45 62 -45
c20.667 0 35.667 6.66699 45 20s15 29 17 47l79 -18c-3.33301 -17.333 -8 -33.5 -14 -48.5s-14.833 -28 -26.5 -39s-26.167 -19.5 -43.5 -25.5s-38.333 -9 -63 -9zM236.001 229.999l-57.998 0.000976562c-20.667 0 -38.834 -6.5 -54.501 -19.5s-23.5 -35.5 -23.5 -67.5
c0 -20.667 5.66699 -37.834 17 -51.501s28.666 -20.5 51.999 -20.5c21.333 0 37.833 7.33301 49.5 22s17.5 33.667 17.5 57v80zM451.003 293l-0.000976562 37.998c0 12.667 -0.833008 24.834 -2.5 36.501s-4.83398 21.834 -9.50098 30.501s-11.167 15.5 -19.5 20.5
s-19.166 7.5 -32.499 7.5c-12 0 -23 -2.83301 -33 -8.5s-18 -16.167 -24 -31.5c-3.33301 -9.33301 -5.66602 -21.333 -6.99902 -36s-2.33301 -33.667 -3 -57h131zM261.002 572.998l68 168l71 -25l-96 -160z" />
    <glyph glyph-name="Oslashacute" unicode="&#x1fe;" horiz-adv-x="414" 
d="M367 187c0 -62 -12.168 -109.834 -36.501 -143.501s-65.833 -50.5 -124.5 -50.5c-49.333 0 -87 12.333 -113 37l-17 -39l-40 22l27 61c-10.667 25.333 -16 55.333 -16 90v343c0 24.667 2.16699 48.667 6.5 72s12.333 44.166 24 62.499s27.834 33 48.501 44
s47.667 16.5 81 16.5c27.333 0 50.333 -3 69 -9s34 -14.667 46 -26l16 37l43 -21l-28 -64c5.33301 -15.333 9 -32.166 11 -50.499s3 -38.166 3 -59.499v-322zM125.999 217.999l156 357c-4.66699 15.333 -12.5 28.333 -23.5 39s-28.167 16 -51.5 16
c-20 0 -35.333 -4.83301 -46 -14.5s-18.667 -21.167 -24 -34.5s-8.5 -27.5 -9.5 -42.5s-1.5 -27.5 -1.5 -37.5v-283zM287.999 471.999l-156.001 -352.998c4.66699 -14.667 12.667 -27.334 24 -38.001s28 -16 50 -16c16.667 0 30.334 3.33301 41.001 10s19 15.167 25 25.5
s10.167 22.166 12.5 35.499s3.5 27 3.5 41v295zM161.998 753.001l142 113l49 -57l-162 -92z" />
    <glyph glyph-name="oslashacute" unicode="&#x1ff;" horiz-adv-x="362" 
d="M186 501c21.333 0 39.667 -2.33496 55 -7.00195s28.333 -11 39 -19l14 27l34 -18l-21 -40c6.66699 -12 11.667 -25.5 15 -40.5s5.66602 -30.833 6.99902 -47.5c1.33301 -19.333 2.33301 -40 3 -62s1 -41.667 1 -59c0 -38 -2 -76 -6 -114
c-3.33301 -26.667 -10 -48.334 -20 -65.001s-22.167 -29.667 -36.5 -39s-29.833 -15.666 -46.5 -18.999s-33 -5 -49 -5c-20.667 0 -38.5 2.5 -53.5 7.5s-27.833 12.167 -38.5 21.5l-17 -32l-31 18l22 43c-6.66699 10.667 -11.667 23 -15 37c-2 8 -3.66699 18 -5 30
s-2.16602 25.167 -2.49902 39.5l-1 43.5c-0.333008 14.667 -0.5 28.334 -0.5 41.001c0 16.667 0.333008 33.834 1 51.501s1.66699 34.5 3 50.5s3 30.5 5 43.5s4.66699 23.5 8 31.5c9.33301 25.333 25 45.333 47 60s51.667 22 89 22zM255.001 242.998
c0 17.333 -0.166016 34.501 -0.499023 51.501s-1.16602 32.833 -2.49902 47.5l-129 -244c11.333 -21.333 31.666 -32 60.999 -32c14 0 26.333 4.16699 37 12.5s18.667 19.166 24 32.499c1.33301 3.33301 2.66602 9.5 3.99902 18.5s2.5 19.667 3.5 32s1.66699 25.5 2 39.5
s0.5 28 0.5 42zM184.002 428.999c-13.333 0 -25.5 -3 -36.5 -9s-19.5 -16.667 -25.5 -32c-4 -9.33301 -6.66699 -28.833 -8 -58.5s-2.33301 -64.5 -3 -104.5v-36c0 -12 0.333008 -23.333 1 -34l128 244c-12 20 -30.667 30 -56 30zM143.002 572.999l68 168l71 -25l-96 -160z
" />
    <glyph glyph-name="Scommaaccent" unicode="&#x218;" horiz-adv-x="394" 
d="M360 190c0 -30 -2.83203 -57.001 -8.49902 -81.001s-15 -44.667 -28 -62s-29.833 -30.666 -50.5 -39.999s-46.334 -14 -77.001 -14c-28 0 -52.333 4 -73 12s-37.667 19.167 -51 33.5s-23.166 31.166 -29.499 50.499s-9.5 40.333 -9.5 63l79 16
c0 -13.333 1.33301 -25.833 4 -37.5s7.16699 -22.167 13.5 -31.5s15 -16.666 26 -21.999s24.5 -8 40.5 -8c20 0 35.833 3.16699 47.5 9.5s20.334 15 26.001 26s9.16699 23.833 10.5 38.5s2 30 2 46c0 20.667 -1 37.5 -3 50.5s-6.33301 24.333 -13 34
s-16.167 18.167 -28.5 25.5s-28.833 15.333 -49.5 24c-32.667 14 -58.834 28.167 -78.501 42.5s-34.834 29.333 -45.501 45s-17.667 32.334 -21 50.001s-5 37.167 -5 58.5c0 26.667 3.33301 51.167 10 73.5s16.834 41.666 30.501 57.999s30.834 29 51.501 38
s44.667 13.5 72 13.5c30 0 55.167 -4.66699 75.5 -14s36.666 -21.5 48.999 -36.5s21 -31.5 26 -49.5s7.5 -35.667 7.5 -53l-78 -20c0 31.333 -6.33301 55.5 -19 72.5s-34.334 25.5 -65.001 25.5c-17.333 0 -31.166 -3.33301 -41.499 -10s-18.5 -15.167 -24.5 -25.5
s-10 -21.833 -12 -34.5s-3 -25 -3 -37c0 -14.667 0.833008 -27.5 2.5 -38.5s6.16699 -21.333 13.5 -31s18.166 -19.167 32.499 -28.5s34.5 -19 60.5 -29c30 -12 53.833 -24.5 71.5 -37.5s31.167 -27.5 40.5 -43.5s15.333 -34 18 -54s4 -42.667 4 -68zM203.001 -251.001h-44
l24 89h-21v97h86v-95z" />
    <glyph glyph-name="scommaaccent" unicode="&#x219;" horiz-adv-x="339" 
d="M111 140c-0.666992 -22.667 3.99805 -40.667 13.998 -54s24.667 -20 44 -20c24.667 0 41.667 5.66699 51 17s14 29.333 14 54c0 11.333 -1 21.166 -3 29.499s-5.66699 15.666 -11 21.999s-12.666 12.166 -21.999 17.499s-21.666 11 -36.999 17
c-25.333 9.33301 -46.166 19.333 -62.499 30s-29 22 -38 34s-15.167 24.667 -18.5 38s-5 27.333 -5 42c0 39.333 11.5 71.5 34.5 96.5s57.5 37.5 103.5 37.5c49.333 0 84.5 -12.167 105.5 -36.5s31.5 -57.5 31.5 -99.5l-82 -11c1.33301 26 -3.33398 44.833 -14.001 56.5
s-24.667 17.5 -42 17.5c-12 0 -22 -1.83301 -30 -5.5s-14.167 -8.5 -18.5 -14.5s-7.33301 -12.667 -9 -20s-2.5 -14.333 -2.5 -21c0 -8 1 -15.5 3 -22.5s6 -13.667 12 -20s14.333 -12.5 25 -18.5s25 -12 43 -18c24.667 -8.66699 44.5 -18.167 59.5 -28.5
s26.5 -21.666 34.5 -33.999s13.167 -25.666 15.5 -39.999s3.5 -30.166 3.5 -47.499c0 -44 -10.833 -79.167 -32.5 -105.5s-56.5 -39.5 -104.5 -39.5s-83.5 11.5 -106.5 34.5s-35.167 56.167 -36.5 99.5zM171.998 -251h-44l24 89h-21v97h86v-95z" />
    <glyph glyph-name="schwa" unicode="&#x259;" horiz-adv-x="357" 
d="M174 428c-19.333 0 -33.834 -6.5 -43.501 -19.5s-15.167 -31.167 -16.5 -54.5l-81 15c2.66699 42.667 15.834 75.334 39.501 98.001s59.5 34 107.5 34c21.333 0 39.666 -2.83301 54.999 -8.5s28.333 -13 39 -22s19 -19.167 25 -30.5s10.667 -22.666 14 -33.999
c2 -8 3.66699 -18 5 -30s2.33301 -25.167 3 -39.5s1.16699 -28.833 1.5 -43.5s0.5 -28.334 0.5 -41.001c0 -16.667 -0.166992 -33.5 -0.5 -50.5s-1.16602 -33.167 -2.49902 -48.5s-3 -29.5 -5 -42.5s-4.66699 -23.833 -8 -32.5c-9.33301 -26 -24.833 -46.667 -46.5 -62
s-51.167 -23 -88.5 -23c-49.333 0 -85 13.667 -107 41s-33 65 -33 113v122h212c0 22 -0.5 43.667 -1.5 65s-3.16699 37.666 -6.5 48.999c-9.33301 30 -30 45 -62 45zM111.999 205l0.000976562 -42.001c0 -13.333 0.833008 -25.666 2.5 -36.999s4.83398 -21.333 9.50098 -30
s11.167 -15.5 19.5 -20.5s19.166 -7.5 32.499 -7.5c12 0 23 2.83301 33 8.5s18 16.167 24 31.5c3.33301 9.33301 5.66602 22 6.99902 38s2.33301 35.667 3 59h-131z" />
    <glyph glyph-name="primemod" unicode="&#x2b9;" horiz-adv-x="230" 
d="M236 670l-138 -266l-51 18l99 272z" />
    <glyph glyph-name="circumflex" unicode="&#x2c6;" horiz-adv-x="362" 
d="M180 646l-116 -94l-34 28l130 139h47l123 -137l-34 -30z" />
    <glyph glyph-name="caron" unicode="&#x2c7;" horiz-adv-x="361" 
d="M298 720l34 -30l-123 -137h-47l-130 139l34 28l116 -94z" />
    <glyph glyph-name="breve" unicode="&#x2d8;" horiz-adv-x="361" 
d="M112 690c0.666992 -6.66699 2.66699 -13.667 6 -21s7.83301 -14.166 13.5 -20.499s12.5 -11.5 20.5 -15.5s17 -6 27 -6c10.667 0 20.167 2 28.5 6s15.5 9.16699 21.5 15.5s10.5 13.166 13.5 20.499s4.5 14.333 4.5 21h63
c-1.33301 -12.667 -4.66602 -26.167 -9.99902 -40.5s-13.333 -27.5 -24 -39.5s-24 -22 -40 -30s-35 -12 -57 -12c-24.667 0 -45.334 4 -62.001 12s-30.167 18 -40.5 30s-17.833 25.167 -22.5 39.5s-7 27.833 -7 40.5h65z" />
    <glyph glyph-name="dotaccent" unicode="&#x2d9;" horiz-adv-x="361" 
d="M157 602v80h68v-80h-68z" />
    <glyph glyph-name="ring" unicode="&#x2da;" horiz-adv-x="361" 
d="M192 542c-12.667 0 -24.5 2.33105 -35.5 6.99805s-20.667 11 -29 19s-14.833 17.5 -19.5 28.5s-7 22.833 -7 35.5s2.33301 24.5 7 35.5s11.167 20.5 19.5 28.5s18 14.333 29 19s22.833 7 35.5 7c25.333 0 46.666 -8.66699 63.999 -26s26 -38.666 26 -63.999
s-8.66699 -46.666 -26 -63.999s-38.666 -26 -63.999 -26zM192 677.998c-13.333 0 -24.666 -4.5 -33.999 -13.5s-14 -20.167 -14 -33.5s4.66699 -24.666 14 -33.999s20.666 -14 33.999 -14s24.5 4.66699 33.5 14s13.5 20.666 13.5 33.999s-4.5 24.5 -13.5 33.5
s-20.167 13.5 -33.5 13.5z" />
    <glyph glyph-name="ogonek" unicode="&#x2db;" horiz-adv-x="395" 
d="M274 -92c0 13.333 2.49805 27.498 7.49805 42.498s13.833 32.167 26.5 51.5h49l1 -2c-9.33301 -15.333 -16.5 -29.166 -21.5 -41.499s-7.5 -24.166 -7.5 -35.499c0 -17.333 3.83301 -29 11.5 -35s17.834 -9 30.501 -9c7.33301 0 15 1 23 3s17 5.66699 27 11l17 -48
c-11.333 -7.33301 -24.166 -13.333 -38.499 -18s-28.166 -7 -41.499 -7c-24.667 0 -44.834 7.66699 -60.501 23s-23.5 37 -23.5 65z" />
    <glyph glyph-name="tilde" unicode="&#x2dc;" horiz-adv-x="362" 
d="M325 653c-12.667 -23.333 -26.998 -41.667 -42.998 -55s-31.333 -20 -46 -20c-10 0 -19.833 2 -29.5 6s-19 8.16699 -28 12.5l-25.5 12.5c-8 4 -16 6 -24 6c-18.667 0 -36.334 -12 -53.001 -36l-40 25c4 8.66699 9.16699 17.334 15.5 26.001s13.166 16.667 20.499 24
s15.333 13.333 24 18s17.667 7 27 7c10 0 19.333 -2 28 -6s17.5 -8.33301 26.5 -13s18.167 -9 27.5 -13s19 -6 29 -6c9.33301 0 17.833 3.16699 25.5 9.5s16.5 16.166 26.5 29.499z" />
    <glyph glyph-name="hungarumlaut" unicode="&#x2dd;" horiz-adv-x="361" 
d="M94 573l68 168l71 -25l-96 -160zM196 573l68 168l71 -25l-96 -160z" />
    <glyph glyph-name="tonos" unicode="&#x384;" horiz-adv-x="357" 
d="M136 573l68 168l71 -25l-96 -160z" />
    <glyph glyph-name="dieresistonos" unicode="&#x385;" horiz-adv-x="362" 
d="M260 589v80h68v-80h-68zM38 589v80h69v-80h-69zM126 573l68 168l71 -25l-96 -160z" />
    <glyph glyph-name="Alphatonos" unicode="&#x386;" horiz-adv-x="395" 
d="M307 0l-32 155h-155l-31 -155h-76l148 696h74l150 -696h-78zM195 554l-29 -162l-33 -163h128l-34 165l-28 160h-4zM-61 553l68 168l71 -25l-96 -160z" />
    <glyph glyph-name="anoteleia" unicode="&#x387;" horiz-adv-x="193" 
d="M52 300v91h87v-91h-87z" />
    <glyph glyph-name="Epsilontonos" unicode="&#x388;" horiz-adv-x="366" 
d="M53 0v696h298v-73h-219v-233h190v-73h-190v-245h219v-72h-298zM-122 553l68 168l71 -25l-96 -160z" />
    <glyph glyph-name="Etatonos" unicode="&#x389;" horiz-adv-x="427" 
d="M294 0v321h-162v-321h-79v696h79v-306h162v306h79v-696h-79zM-115 553l68 168l71 -25l-96 -160z" />
    <glyph glyph-name="Iotatonos" unicode="&#x38a;" horiz-adv-x="192" 
d="M56 0v696h80v-696h-80zM-116 553l68 168l71 -25l-96 -160z" />
    <glyph glyph-name="Omicrontonos" unicode="&#x38c;" horiz-adv-x="414" 
d="M367 187c0 -62 -12.1689 -109.832 -36.502 -143.499s-65.833 -50.5 -124.5 -50.5c-57.333 0 -98.166 15.667 -122.499 47s-36.5 72.666 -36.5 123.999v343c0 24.667 2.16699 48.667 6.5 72s12.333 44.166 24 62.499s27.834 33 48.501 44s47.667 16.5 81 16.5
c34.667 0 62.5 -4.83301 83.5 -14.5s37.167 -23.167 48.5 -40.5s18.833 -37.666 22.5 -60.999s5.5 -49 5.5 -77v-322zM287.998 522.001c0 12 -0.833984 24.334 -2.50098 37.001s-5.16699 24.167 -10.5 34.5s-13.5 19 -24.5 26s-25.5 10.5 -43.5 10.5
c-20 0 -35.333 -4.83301 -46 -14.5s-18.667 -21.167 -24 -34.5s-8.5 -27.5 -9.5 -42.5s-1.5 -27.5 -1.5 -37.5v-338c0 -10 1 -20.667 3 -32s6 -22 12 -32s14.167 -18.167 24.5 -24.5s23.833 -9.5 40.5 -9.5s30.334 3.33301 41.001 10s19 15.167 25 25.5
s10.167 22.166 12.5 35.499s3.5 27 3.5 41v345zM-101.003 553.002l68 168l71 -25l-96 -160z" />
    <glyph glyph-name="Upsilontonos" unicode="&#x38e;" horiz-adv-x="376" 
d="M190 408l90 288h83l-136 -402v-295h-78v295l-136 402h83l51 -163l39 -125h4zM-139 553l68 168l71 -25l-96 -160z" />
    <glyph glyph-name="Omegatonos" unicode="&#x38f;" horiz-adv-x="414" 
d="M288 522c0 12 -0.835938 24.333 -2.50293 37s-5.16699 24.167 -10.5 34.5s-13.5 19 -24.5 26s-25.5 10.5 -43.5 10.5c-20 0 -35.333 -4.83301 -46 -14.5s-18.667 -21.167 -24 -34.5s-8.5 -27.5 -9.5 -42.5s-1.5 -27.5 -1.5 -37.5v-330
c0 -21.333 4.83301 -38.666 14.5 -51.999s22.167 -22.666 37.5 -27.999v-91h-138v76h52c-15.333 11.333 -26.666 26.5 -33.999 45.5s-11 39.833 -11 62.5v323c0 24.667 2.16699 48.667 6.5 72s12.333 44.166 24 62.499s27.834 33 48.501 44s47.667 16.5 81 16.5
c34.667 0 62.5 -4.83301 83.5 -14.5s37.167 -23.167 48.5 -40.5s18.833 -37.666 22.5 -60.999s5.5 -49 5.5 -77v-325c0 -22.667 -3.66699 -43.5 -11 -62.5s-18.666 -34.167 -33.999 -45.5h52v-76h-138v91c15.333 5.33301 27.833 14.666 37.5 27.999s14.5 30.666 14.5 51.999
v351zM-99.0029 553l68 168l71 -25l-96 -160z" />
    <glyph glyph-name="iotadieresistonos" unicode="&#x390;" horiz-adv-x="176" 
d="M158 -3c-4.66699 -0.666992 -8 -1.00098 -10 -1.00098h-8c-18 0 -33 1.66699 -45 5s-21.5 9 -28.5 17s-12 18.333 -15 31s-4.5 28.334 -4.5 47.001v398h80v-379c0 -17.333 2 -29 6 -35s13 -9.33301 27 -10zM182 588.999v80h68v-80h-68zM-40 588.999v80h69v-80h-69z
M48 572.999l68 168l71 -25l-96 -160z" />
    <glyph glyph-name="Alpha" unicode="&#x391;" horiz-adv-x="395" 
d="M307 0l-32 155h-155l-31 -155h-76l148 696h74l150 -696h-78zM195 554l-29 -162l-33 -163h128l-34 165l-28 160h-4z" />
    <glyph glyph-name="Beta" unicode="&#x392;" horiz-adv-x="414" 
d="M291 365c30.667 -9.33301 51.501 -28.166 62.501 -56.499s16.5 -62.833 16.5 -103.5c0 -72 -14.833 -124.167 -44.5 -156.5s-75.834 -48.5 -138.501 -48.5h-134v696h147c60 0 102.333 -16 127 -48s37 -77.333 37 -136c0 -36.667 -5.33301 -65.834 -16 -87.501
s-29.667 -40.167 -57 -55.5v-4zM294.001 213c0 38 -7.16699 67.333 -21.5 88s-41.833 31 -82.5 31h-58v-261h62c22 0 39.5 3.83301 52.5 11.5s23 18 30 31s11.667 28 14 45s3.5 35.167 3.5 54.5zM288.001 513c0 36 -7.83203 63.5 -23.499 82.5s-41.834 28.5 -78.501 28.5
h-54v-223h53c36.667 0 63 9.66699 79 29s24 47 24 83z" />
    <glyph glyph-name="Gamma" unicode="&#x393;" horiz-adv-x="358" 
d="M132 622v-622h-79v696h282v-74h-203z" />
    <glyph glyph-name="Delta" unicode="&#x394;" horiz-adv-x="395" 
d="M13 0l148 696h74l150 -696h-372zM195 532l-33 -163l-59 -295h188l-59 298l-32 160h-5z" />
    <glyph glyph-name="Delta" unicode="&#x2206;" horiz-adv-x="395" 
d="M13 0l148 696h74l150 -696h-372zM195 532l-33 -163l-59 -295h188l-59 298l-32 160h-5z" />
    <glyph glyph-name="Epsilon" unicode="&#x395;" horiz-adv-x="366" 
d="M53 0v696h298v-73h-219v-233h190v-73h-190v-245h219v-72h-298z" />
    <glyph glyph-name="Zeta" unicode="&#x396;" horiz-adv-x="321" 
d="M302 624l-201 -552h200v-72h-281v72l203 552h-193v72h272v-72z" />
    <glyph glyph-name="Eta" unicode="&#x397;" horiz-adv-x="427" 
d="M294 0v321h-162v-321h-79v696h79v-306h162v306h79v-696h-79z" />
    <glyph glyph-name="Theta" unicode="&#x398;" horiz-adv-x="414" 
d="M151 390h113v-73h-113v73zM367 187c0 -62 -12.001 -109.832 -36.001 -143.499s-65.333 -50.5 -124 -50.5c-57.333 0 -98.333 15.667 -123 47s-37 72.666 -37 123.999v343c0 24.667 2.16699 48.667 6.5 72s12.333 44.166 24 62.499s27.834 33 48.501 44
s47.667 16.5 81 16.5c34.667 0 62.5 -4.83301 83.5 -14.5s37.167 -23.167 48.5 -40.5s18.833 -37.666 22.5 -60.999s5.5 -49 5.5 -77v-322zM287.999 522.001c0 12 -0.833984 24.334 -2.50098 37.001s-5.16699 24.167 -10.5 34.5s-13.5 19 -24.5 26s-25.5 10.5 -43.5 10.5
c-20 0 -35.333 -4.83301 -46 -14.5s-18.667 -21.167 -24 -34.5s-8.5 -27.5 -9.5 -42.5s-1.5 -27.5 -1.5 -37.5v-338c0 -10 1 -20.667 3 -32s6 -22 12 -32s14.167 -18.167 24.5 -24.5s23.833 -9.5 40.5 -9.5s30.334 3.33301 41.001 10s19 15.167 25 25.5
s10.167 22.166 12.5 35.499s3.5 27 3.5 41v345z" />
    <glyph glyph-name="Iota" unicode="&#x399;" horiz-adv-x="192" 
d="M56 0v696h80v-696h-80z" />
    <glyph glyph-name="Kappa" unicode="&#x39a;" horiz-adv-x="414" 
d="M326 0l-126 334l-68 -132v-202h-79v696h79v-347h2l168 347h79l-135 -275l160 -421h-80z" />
    <glyph glyph-name="Lambda" unicode="&#x39b;" horiz-adv-x="395" 
d="M307 0c-4 21.333 -7.49902 39.167 -10.499 53.5l-8 38l-6.5 31c-2 9.66699 -4 20.167 -6 31.5l-78 383c-8.66699 -42 -15.834 -74.833 -21.501 -98.5s-9.5 -40.167 -11.5 -49.5l-24 -126l-15 -78l-9.5 -48.5l-7 -36l-8 -39.5l-12.5 -61h-76l148 696h74l150 -696h-78z" />
    <glyph glyph-name="Mu" unicode="&#x39c;" horiz-adv-x="564" 
d="M427 482l-55 -144l-72 -169h-37l-72 169l-55 144h-4v-482h-79v696h80l83 -217l64 -170h3l66 175l81 212h81v-696h-79v482h-5z" />
    <glyph glyph-name="Nu" unicode="&#x39d;" horiz-adv-x="450" 
d="M129 476v-476h-79v696h75l144 -353l48 -127l4 1v479h79v-696h-74l-144 350l-50 126h-3z" />
    <glyph glyph-name="Xi" unicode="&#x39e;" horiz-adv-x="358" 
d="M26 622v74h311v-74h-311zM52 317v73h259v-73h-259zM26 0v80h311v-80h-311z" />
    </font>
</defs>
</svg>
